<svg id="Layer_1" data-name="Layer 1" xmlns="http://www.w3.org/2000/svg" viewBox="0 0 1920 1080"><defs><style>.cls-1{fill:#f25a29;}.cls-2,.cls-3{fill:#282828;}.cls-3{font-size:93px;font-family:MyriadPro-Regular, Myriad Pro;letter-spacing:0.02em;}</style></defs><path class="cls-1" d="M722,591.93c6-20.48,6.76-40.77,1.8-61.33-1.38-5.71-3.7-7.49-9.54-7.41C660.2,524,614,493,594.68,443.27c-1-2.58-1.74-5.27-2.85-8.65a109.63,109.63,0,0,1,40.68-1.31c43.68,6.79,75.76,30.21,95.58,70.15,2.54,5.12,5.67,4.21,9.42,3.21q46.32-12.29,70.5-54c1.79-3.08,2.67-7.1,7.94-4.68,4.25,1.94,8.44,2.33,7.75,9.39-1.64,16.89,6.5,30.17,22.14,36.54,6.43,2.63,3.5,6.76,3.46,10.63,0,4.67-3.26,4.66-6.72,4.76-50.76,1.45-90.88,32-106.37,80.81C734.24,596.32,731.86,596.69,722,591.93ZM612,446.91c9,33.87,73.61,72.49,102.77,61.44C698.06,468,647.57,441.28,612,446.91Zm197.65,28.14c-19.4,24.25-44.07,39.48-74,46.17,1.75,9.23,3.36,17.72,5.25,27.66,21.26-28.58,48.29-45.29,81.64-51.63Z"/><path class="cls-2" d="M1135.17,500h45.95v11.58h-31.23v16.35h28.58v12.44h-29v24.52h-14.27Z"/><path class="cls-2" d="M1212.54,565.71c-16.18,0-26.83-10.24-26.77-25.8.06-15.31,10.54-25.32,26.58-25.38,16.26,0,26.83,10.12,26.75,25.74C1239,555.57,1228.47,565.68,1212.54,565.71ZM1225,540.26c0-8.26-5.27-14.08-12.7-14-7.21.09-12.33,5.74-12.43,13.74-.11,8.27,5.07,14.2,12.45,14.28S1225,548.52,1225,540.26Z"/><path class="cls-2" d="M1265.59,548.32c-3.13,4.68-5.77,8-7.66,11.64-2.24,4.33-5.35,5.93-10.06,5.3-2.6-.34-5.28-.06-9.1-.06,5.23-7.81,9.69-14.81,14.53-21.54,2.13-2.95,2.36-5.1.15-8.19-4.51-6.32-8.56-13-13.77-21,6.61.6,12.73-.47,16.69,2s5.78,8.46,9,13.69c2.43-3.77,4.74-6.76,6.4-10.08,2.06-4.13,4.94-5.81,9.51-5.17,2.63.37,5.36.07,9.18.07-5.54,8.63-10.6,16.5-15.7,24.46l16.1,24.7C1276.16,570.06,1271,559.57,1265.59,548.32Z"/><text class="cls-3" transform="translate(950.06 563.47)">Neo</text></svg>