<?xml version="1.0" encoding="UTF-8" standalone="no"?>
<svg
   xmlns:dc="http://purl.org/dc/elements/1.1/"
   xmlns:cc="http://creativecommons.org/ns#"
   xmlns:rdf="http://www.w3.org/1999/02/22-rdf-syntax-ns#"
   xmlns:svg="http://www.w3.org/2000/svg"
   xmlns="http://www.w3.org/2000/svg"
   xmlns:sodipodi="http://sodipodi.sourceforge.net/DTD/sodipodi-0.dtd"
   xmlns:inkscape="http://www.inkscape.org/namespaces/inkscape"
   version="1.1"
   id="svg2"
   xml:space="preserve"
   width="1000"
   height="666.66669"
   viewBox="0 0 1000 666.66669"
   sodipodi:docname="404.ai.svg"
   inkscape:version="1.0.1 (0767f8302a, 2020-10-17)"><metadata
     id="metadata8"><rdf:RDF><cc:Work
         rdf:about=""><dc:format>image/svg+xml</dc:format><dc:type
           rdf:resource="http://purl.org/dc/dcmitype/StillImage" /><dc:title></dc:title></cc:Work></rdf:RDF></metadata><defs
     id="defs6"><clipPath
       clipPathUnits="userSpaceOnUse"
       id="clipPath20"><path
         d="M 0,500 H 750 V 0 H 0 Z"
         id="path18" /></clipPath><clipPath
       clipPathUnits="userSpaceOnUse"
       id="clipPath28"><path
         d="M 139.104,408.526 H 641.46 V 126.547 H 139.104 Z"
         id="path26" /></clipPath><linearGradient
       x1="0"
       y1="0"
       x2="1"
       y2="0"
       gradientUnits="userSpaceOnUse"
       gradientTransform="matrix(16.179775,244.31461,244.31461,-16.179775,387.91641,112.53667)"
       spreadMethod="pad"
       id="linearGradient40"><stop
         style="stop-opacity:1;stop-color:#31d1d6"
         offset="0"
         id="stop34" /><stop
         style="stop-opacity:1;stop-color:#31d1d6"
         offset="0.65297057"
         id="stop36" /><stop
         style="stop-opacity:1;stop-color:#45a3fa"
         offset="1"
         id="stop38" /></linearGradient><clipPath
       clipPathUnits="userSpaceOnUse"
       id="clipPath62"><path
         d="M 152.261,408.526 H 654.618 V 126.547 H 152.261 Z"
         id="path60" /></clipPath><linearGradient
       x1="0"
       y1="0"
       x2="1"
       y2="0"
       gradientUnits="userSpaceOnUse"
       gradientTransform="matrix(16.179775,244.31461,244.31461,-16.179775,401.07373,112.53667)"
       spreadMethod="pad"
       id="linearGradient74"><stop
         style="stop-opacity:1;stop-color:#31d1d6"
         offset="0"
         id="stop68" /><stop
         style="stop-opacity:1;stop-color:#31d1d6"
         offset="0.65297057"
         id="stop70" /><stop
         style="stop-opacity:1;stop-color:#45a3fa"
         offset="1"
         id="stop72" /></linearGradient><linearGradient
       x1="0"
       y1="0"
       x2="1"
       y2="0"
       gradientUnits="userSpaceOnUse"
       gradientTransform="matrix(0,42.606743,42.606743,0,238.67032,302.03372)"
       spreadMethod="pad"
       id="linearGradient108"><stop
         style="stop-opacity:1;stop-color:#f9e6d9"
         offset="0"
         id="stop102" /><stop
         style="stop-opacity:1;stop-color:#ffffff"
         offset="0.21702943"
         id="stop104" /><stop
         style="stop-opacity:1;stop-color:#ffffff"
         offset="1"
         id="stop106" /></linearGradient><linearGradient
       x1="0"
       y1="0"
       x2="1"
       y2="0"
       gradientUnits="userSpaceOnUse"
       gradientTransform="matrix(2.6966293,41.528088,41.528088,-2.6966293,530.77374,272.12473)"
       spreadMethod="pad"
       id="linearGradient130"><stop
         style="stop-opacity:1;stop-color:#f9e6d9"
         offset="0"
         id="stop124" /><stop
         style="stop-opacity:1;stop-color:#ffffff"
         offset="0.21702943"
         id="stop126" /><stop
         style="stop-opacity:1;stop-color:#ffffff"
         offset="1"
         id="stop128" /></linearGradient><linearGradient
       x1="0"
       y1="0"
       x2="1"
       y2="0"
       gradientUnits="userSpaceOnUse"
       gradientTransform="matrix(113.13414,0,0,-113.13414,218.25847,199.48439)"
       spreadMethod="pad"
       id="linearGradient152"><stop
         style="stop-opacity:1;stop-color:#31d1d6"
         offset="0"
         id="stop146" /><stop
         style="stop-opacity:1;stop-color:#31d1d6"
         offset="0.65297057"
         id="stop148" /><stop
         style="stop-opacity:1;stop-color:#45a3fa"
         offset="1"
         id="stop150" /></linearGradient><linearGradient
       x1="0"
       y1="0"
       x2="1"
       y2="0"
       gradientUnits="userSpaceOnUse"
       gradientTransform="matrix(-1.0786517,55.011234,55.011234,1.0786517,265.23032,116.94922)"
       spreadMethod="pad"
       id="linearGradient174"><stop
         style="stop-opacity:1;stop-color:#f9e6d9"
         offset="0"
         id="stop168" /><stop
         style="stop-opacity:1;stop-color:#ffffff"
         offset="0.21702943"
         id="stop170" /><stop
         style="stop-opacity:1;stop-color:#ffffff"
         offset="1"
         id="stop172" /></linearGradient><linearGradient
       x1="0"
       y1="0"
       x2="1"
       y2="0"
       gradientUnits="userSpaceOnUse"
       gradientTransform="matrix(111.07941,21.482841,21.482841,-111.07941,465.38773,177.96812)"
       spreadMethod="pad"
       id="linearGradient196"><stop
         style="stop-opacity:1;stop-color:#31d1d6"
         offset="0"
         id="stop190" /><stop
         style="stop-opacity:1;stop-color:#31d1d6"
         offset="0.65297057"
         id="stop192" /><stop
         style="stop-opacity:1;stop-color:#45a3fa"
         offset="1"
         id="stop194" /></linearGradient><linearGradient
       x1="0"
       y1="0"
       x2="1"
       y2="0"
       gradientUnits="userSpaceOnUse"
       gradientTransform="matrix(-1.0786517,55.011234,55.011234,1.0786517,517.23303,121.89045)"
       spreadMethod="pad"
       id="linearGradient218"><stop
         style="stop-opacity:1;stop-color:#f9e6d9"
         offset="0"
         id="stop212" /><stop
         style="stop-opacity:1;stop-color:#ffffff"
         offset="0.21702943"
         id="stop214" /><stop
         style="stop-opacity:1;stop-color:#ffffff"
         offset="1"
         id="stop216" /></linearGradient><linearGradient
       x1="0"
       y1="0"
       x2="1"
       y2="0"
       gradientUnits="userSpaceOnUse"
       gradientTransform="matrix(32,8.2696629,8.2696629,-32,290.25583,268.95294)"
       spreadMethod="pad"
       id="linearGradient240"><stop
         style="stop-opacity:1;stop-color:#31d1d6"
         offset="0"
         id="stop234" /><stop
         style="stop-opacity:1;stop-color:#31d1d6"
         offset="0.65297057"
         id="stop236" /><stop
         style="stop-opacity:1;stop-color:#45a3fa"
         offset="1"
         id="stop238" /></linearGradient><clipPath
       clipPathUnits="userSpaceOnUse"
       id="clipPath250"><path
         d="M 0,500 H 750 V 0 H 0 Z"
         id="path248" /></clipPath><linearGradient
       x1="0"
       y1="0"
       x2="1"
       y2="0"
       gradientUnits="userSpaceOnUse"
       gradientTransform="matrix(71.239159,0,0,-71.239159,226.73837,299.34637)"
       spreadMethod="pad"
       id="linearGradient278"><stop
         style="stop-opacity:1;stop-color:#31d1d6"
         offset="0"
         id="stop272" /><stop
         style="stop-opacity:1;stop-color:#31d1d6"
         offset="0.65297057"
         id="stop274" /><stop
         style="stop-opacity:1;stop-color:#45a3fa"
         offset="1"
         id="stop276" /></linearGradient><linearGradient
       x1="0"
       y1="0"
       x2="1"
       y2="0"
       gradientUnits="userSpaceOnUse"
       gradientTransform="matrix(52.375374,0,0,-52.375374,177.13853,441.0253)"
       spreadMethod="pad"
       id="linearGradient300"><stop
         style="stop-opacity:1;stop-color:#51adc6"
         offset="0"
         id="stop294" /><stop
         style="stop-opacity:1;stop-color:#caeb8a"
         offset="0.20091254"
         id="stop296" /><stop
         style="stop-opacity:1;stop-color:#caeb8a"
         offset="1"
         id="stop298" /></linearGradient><linearGradient
       x1="0"
       y1="0"
       x2="1"
       y2="0"
       gradientUnits="userSpaceOnUse"
       gradientTransform="matrix(-8.4752932,0,0,8.4752932,180.05078,447.07974)"
       spreadMethod="pad"
       id="linearGradient322"><stop
         style="stop-opacity:1;stop-color:#8aebd6"
         offset="0"
         id="stop316" /><stop
         style="stop-opacity:1;stop-color:#8aebd6"
         offset="0.79908746"
         id="stop318" /><stop
         style="stop-opacity:1;stop-color:#5193fa"
         offset="1"
         id="stop320" /></linearGradient><linearGradient
       x1="0"
       y1="0"
       x2="1"
       y2="0"
       gradientUnits="userSpaceOnUse"
       gradientTransform="matrix(-10.071132,0,0,10.071132,181.60155,442.00809)"
       spreadMethod="pad"
       id="linearGradient344"><stop
         style="stop-opacity:1;stop-color:#31d1d6"
         offset="0"
         id="stop338" /><stop
         style="stop-opacity:1;stop-color:#31d1d6"
         offset="0.65297057"
         id="stop340" /><stop
         style="stop-opacity:1;stop-color:#45a3fa"
         offset="1"
         id="stop342" /></linearGradient><linearGradient
       x1="0"
       y1="0"
       x2="1"
       y2="0"
       gradientUnits="userSpaceOnUse"
       gradientTransform="matrix(-9.2597027,0,0,9.2597027,181.6196,436.16104)"
       spreadMethod="pad"
       id="linearGradient366"><stop
         style="stop-opacity:1;stop-color:#8aebd6"
         offset="0"
         id="stop360" /><stop
         style="stop-opacity:1;stop-color:#8aebd6"
         offset="0.79908746"
         id="stop362" /><stop
         style="stop-opacity:1;stop-color:#5193fa"
         offset="1"
         id="stop364" /></linearGradient><clipPath
       clipPathUnits="userSpaceOnUse"
       id="clipPath376"><path
         d="M 0,500 H 750 V 0 H 0 Z"
         id="path374" /></clipPath><linearGradient
       x1="0"
       y1="0"
       x2="1"
       y2="0"
       gradientUnits="userSpaceOnUse"
       gradientTransform="matrix(30.799498,0,0,-30.799498,229.5139,441.53473)"
       spreadMethod="pad"
       id="linearGradient404"><stop
         style="stop-opacity:1;stop-color:#31d1d6"
         offset="0"
         id="stop398" /><stop
         style="stop-opacity:1;stop-color:#31d1d6"
         offset="0.65297057"
         id="stop400" /><stop
         style="stop-opacity:1;stop-color:#45a3fa"
         offset="1"
         id="stop402" /></linearGradient><linearGradient
       x1="0"
       y1="0"
       x2="1"
       y2="0"
       gradientUnits="userSpaceOnUse"
       gradientTransform="matrix(14.688348,0,0,-14.688348,216.04277,431.90024)"
       spreadMethod="pad"
       id="linearGradient426"><stop
         style="stop-opacity:1;stop-color:#f7be86"
         offset="0"
         id="stop420" /><stop
         style="stop-opacity:1;stop-color:#f7be86"
         offset="0.65297057"
         id="stop422" /><stop
         style="stop-opacity:1;stop-color:#f79244"
         offset="1"
         id="stop424" /></linearGradient><clipPath
       clipPathUnits="userSpaceOnUse"
       id="clipPath436"><path
         d="M 0,500 H 750 V 0 H 0 Z"
         id="path434" /></clipPath><linearGradient
       x1="0"
       y1="0"
       x2="1"
       y2="0"
       gradientUnits="userSpaceOnUse"
       gradientTransform="matrix(-0.4862694,-17.667789,-17.667789,0.4862694,302.79807,420.67322)"
       spreadMethod="pad"
       id="linearGradient460"><stop
         style="stop-opacity:1;stop-color:#7b6ed6"
         offset="0"
         id="stop454" /><stop
         style="stop-opacity:1;stop-color:#7b6ed6"
         offset="0.79908746"
         id="stop456" /><stop
         style="stop-opacity:1;stop-color:#333ea8"
         offset="1"
         id="stop458" /></linearGradient><linearGradient
       x1="0"
       y1="0"
       x2="1"
       y2="0"
       gradientUnits="userSpaceOnUse"
       gradientTransform="matrix(-1.2967185,-41.008724,-41.008724,1.2967185,314.7052,420.4407)"
       spreadMethod="pad"
       id="linearGradient482"><stop
         style="stop-opacity:1;stop-color:#7b6ed6"
         offset="0"
         id="stop476" /><stop
         style="stop-opacity:1;stop-color:#7b6ed6"
         offset="0.79908746"
         id="stop478" /><stop
         style="stop-opacity:1;stop-color:#333ea8"
         offset="1"
         id="stop480" /></linearGradient><linearGradient
       x1="0"
       y1="0"
       x2="1"
       y2="0"
       gradientUnits="userSpaceOnUse"
       gradientTransform="matrix(-0.4862694,-17.667789,-17.667789,0.4862694,325.51642,420.04794)"
       spreadMethod="pad"
       id="linearGradient504"><stop
         style="stop-opacity:1;stop-color:#7b6ed6"
         offset="0"
         id="stop498" /><stop
         style="stop-opacity:1;stop-color:#7b6ed6"
         offset="0.79908746"
         id="stop500" /><stop
         style="stop-opacity:1;stop-color:#333ea8"
         offset="1"
         id="stop502" /></linearGradient><linearGradient
       x1="0"
       y1="0"
       x2="1"
       y2="0"
       gradientUnits="userSpaceOnUse"
       gradientTransform="matrix(118.00463,0,0,-118.00463,221.00256,382.80405)"
       spreadMethod="pad"
       id="linearGradient526"><stop
         style="stop-opacity:1;stop-color:#7b6ed6"
         offset="0"
         id="stop520" /><stop
         style="stop-opacity:1;stop-color:#7b6ed6"
         offset="0.79908746"
         id="stop522" /><stop
         style="stop-opacity:1;stop-color:#333ea8"
         offset="1"
         id="stop524" /></linearGradient><linearGradient
       x1="0"
       y1="0"
       x2="1"
       y2="0"
       gradientUnits="userSpaceOnUse"
       gradientTransform="matrix(21.354055,0,0,-21.354055,272.09409,432.62244)"
       spreadMethod="pad"
       id="linearGradient548"><stop
         style="stop-opacity:1;stop-color:#f7be86"
         offset="0"
         id="stop542" /><stop
         style="stop-opacity:1;stop-color:#f7be86"
         offset="0.65297057"
         id="stop544" /><stop
         style="stop-opacity:1;stop-color:#f79244"
         offset="1"
         id="stop546" /></linearGradient><clipPath
       clipPathUnits="userSpaceOnUse"
       id="clipPath558"><path
         d="M 0,500 H 750 V 0 H 0 Z"
         id="path556" /></clipPath><clipPath
       clipPathUnits="userSpaceOnUse"
       id="clipPath566"><path
         d="m 283.494,417.899 h 55.513 v -53.413 h -55.513 z"
         id="path564" /></clipPath><linearGradient
       x1="0"
       y1="0"
       x2="1"
       y2="0"
       gradientUnits="userSpaceOnUse"
       gradientTransform="matrix(55.513027,0,0,-55.513027,283.49417,391.19254)"
       spreadMethod="pad"
       id="linearGradient578"><stop
         style="stop-opacity:1;stop-color:#3c0887"
         offset="0"
         id="stop572" /><stop
         style="stop-opacity:1;stop-color:#3c0887"
         offset="0.65297057"
         id="stop574" /><stop
         style="stop-opacity:1;stop-color:#822a8a"
         offset="1"
         id="stop576" /></linearGradient><linearGradient
       x1="0"
       y1="0"
       x2="1"
       y2="0"
       gradientUnits="userSpaceOnUse"
       gradientTransform="matrix(28.05924,0,0,-28.05924,296.63986,428.06897)"
       spreadMethod="pad"
       id="linearGradient612"><stop
         style="stop-opacity:1;stop-color:#f7be86"
         offset="0"
         id="stop606" /><stop
         style="stop-opacity:1;stop-color:#f7be86"
         offset="0.65297057"
         id="stop608" /><stop
         style="stop-opacity:1;stop-color:#f79244"
         offset="1"
         id="stop610" /></linearGradient><clipPath
       clipPathUnits="userSpaceOnUse"
       id="clipPath622"><path
         d="M 0,500 H 750 V 0 H 0 Z"
         id="path620" /></clipPath><clipPath
       clipPathUnits="userSpaceOnUse"
       id="clipPath662"><path
         d="M 203.391,126.547 H 611.753 V 50.826 H 203.391 Z"
         id="path660" /></clipPath><linearGradient
       x1="0"
       y1="0"
       x2="1"
       y2="0"
       gradientUnits="userSpaceOnUse"
       gradientTransform="matrix(1.0786518,74.426964,74.426964,-1.0786518,406.50137,48.111118)"
       spreadMethod="pad"
       id="linearGradient674"><stop
         style="stop-opacity:1;stop-color:#8aebd6"
         offset="0"
         id="stop668" /><stop
         style="stop-opacity:1;stop-color:#8aebd6"
         offset="0.79908746"
         id="stop670" /><stop
         style="stop-opacity:1;stop-color:#5193fa"
         offset="1"
         id="stop672" /></linearGradient><linearGradient
       x1="0"
       y1="0"
       x2="1"
       y2="0"
       gradientUnits="userSpaceOnUse"
       gradientTransform="matrix(0,65.528091,65.528091,0,581.41571,52.887642)"
       spreadMethod="pad"
       id="linearGradient708"><stop
         style="stop-opacity:1;stop-color:#8aebd6"
         offset="0"
         id="stop702" /><stop
         style="stop-opacity:1;stop-color:#8aebd6"
         offset="0.79908746"
         id="stop704" /><stop
         style="stop-opacity:1;stop-color:#5193fa"
         offset="1"
         id="stop706" /></linearGradient><linearGradient
       x1="0"
       y1="0"
       x2="1"
       y2="0"
       gradientUnits="userSpaceOnUse"
       gradientTransform="matrix(0,65.528091,65.528091,0,258.40448,52.887642)"
       spreadMethod="pad"
       id="linearGradient730"><stop
         style="stop-opacity:1;stop-color:#8aebd6"
         offset="0"
         id="stop724" /><stop
         style="stop-opacity:1;stop-color:#8aebd6"
         offset="0.79908746"
         id="stop726" /><stop
         style="stop-opacity:1;stop-color:#5193fa"
         offset="1"
         id="stop728" /></linearGradient><clipPath
       clipPathUnits="userSpaceOnUse"
       id="clipPath740"><path
         d="M 0,500 H 750 V 0 H 0 Z"
         id="path738" /></clipPath><linearGradient
       x1="0"
       y1="0"
       x2="1"
       y2="0"
       gradientUnits="userSpaceOnUse"
       gradientTransform="matrix(103.21886,-21.095962,-21.095962,-103.21886,352.29803,184.15543)"
       spreadMethod="pad"
       id="linearGradient764"><stop
         style="stop-opacity:1;stop-color:#31d1d6"
         offset="0"
         id="stop758" /><stop
         style="stop-opacity:1;stop-color:#31d1d6"
         offset="0.65297057"
         id="stop760" /><stop
         style="stop-opacity:1;stop-color:#45a3fa"
         offset="1"
         id="stop762" /></linearGradient><linearGradient
       x1="0"
       y1="0"
       x2="1"
       y2="0"
       gradientUnits="userSpaceOnUse"
       gradientTransform="matrix(-1.0786517,55.011234,55.011234,1.0786517,390.77307,119.41084)"
       spreadMethod="pad"
       id="linearGradient786"><stop
         style="stop-opacity:1;stop-color:#f9e6d9"
         offset="0"
         id="stop780" /><stop
         style="stop-opacity:1;stop-color:#ffffff"
         offset="0.21702943"
         id="stop782" /><stop
         style="stop-opacity:1;stop-color:#ffffff"
         offset="1"
         id="stop784" /></linearGradient><clipPath
       clipPathUnits="userSpaceOnUse"
       id="clipPath796"><path
         d="M 0,500 H 750 V 0 H 0 Z"
         id="path794" /></clipPath><linearGradient
       x1="0"
       y1="0"
       x2="1"
       y2="0"
       gradientUnits="userSpaceOnUse"
       gradientTransform="matrix(42.701817,0,0,-42.701817,441.81,254.715)"
       spreadMethod="pad"
       id="linearGradient820"><stop
         style="stop-opacity:1;stop-color:#7b6ed6"
         offset="0"
         id="stop814" /><stop
         style="stop-opacity:1;stop-color:#7b6ed6"
         offset="0.79908746"
         id="stop816" /><stop
         style="stop-opacity:1;stop-color:#333ea8"
         offset="1"
         id="stop818" /></linearGradient><clipPath
       clipPathUnits="userSpaceOnUse"
       id="clipPath830"><path
         d="M 0,500 H 750 V 0 H 0 Z"
         id="path828" /></clipPath></defs><sodipodi:namedview
     pagecolor="#ffffff"
     bordercolor="#666666"
     borderopacity="1"
     objecttolerance="10"
     gridtolerance="10"
     guidetolerance="10"
     inkscape:pageopacity="0"
     inkscape:pageshadow="2"
     inkscape:window-width="1920"
     inkscape:window-height="1013"
     id="namedview4"
     showgrid="false"
     inkscape:zoom="1.074"
     inkscape:cx="560.67763"
     inkscape:cy="333.33334"
     inkscape:window-x="0"
     inkscape:window-y="27"
     inkscape:window-maximized="1"
     inkscape:current-layer="g10" /><g
     id="g10"
     inkscape:groupmode="layer"
     inkscape:label="2634443"
     transform="matrix(1.3333333,0,0,-1.3333333,0,666.66667)"><g
       id="g14"
       transform="matrix(1.2032376,0,0,1.2032376,-105.90297,-56.511511)"><g
         id="g16"
         clip-path="url(#clipPath20)"><g
           id="g22"><g
             id="g24" /><g
             id="g54"><g
               clip-path="url(#clipPath28)"
               opacity="0.369995"
               id="g52"><g
                 id="g50"><g
                   id="g48"><g
                     id="g46"><g
                       id="g44"><path
                         d="m 204.161,126.547 h -51.484 c -13.776,14.31 -17.461,37.116 -9.232,55.196 7.844,17.235 24.685,28.62 34.889,44.571 21.777,34.041 11.251,84.755 40.844,112.273 14.792,13.756 36.063,17.735 56.198,19.343 20.136,1.609 40.947,1.564 59.568,9.39 22.963,9.652 40.273,30.382 63.926,38.193 26.559,8.771 58.329,-2.174 73.85,-25.442 9.712,-14.559 13.376,-32.851 24.861,-46.057 18.57,-21.354 51.288,-23.011 74.449,-39.272 15.886,-11.153 26.612,-29.367 28.658,-48.669 2.473,-23.304 -6.375,-49.776 7.599,-68.591 6.814,-9.174 17.861,-14.346 25.204,-23.104 7.316,-8.727 9.376,-16.678 7.074,-27.831 z"
                         style="fill:url(#linearGradient40);stroke:none"
                         id="path42" /></g></g></g></g></g></g></g><g
           id="g56"><g
             id="g58" /><g
             id="g88"><g
               clip-path="url(#clipPath62)"
               opacity="0.369995"
               id="g86"><g
                 id="g84"><g
                   id="g82"><g
                     id="g80"><g
                       id="g78"><path
                         d="m 217.318,126.547 h -51.483 c -13.777,14.31 -17.461,37.116 -9.233,55.196 7.844,17.235 24.686,28.62 34.89,44.571 21.776,34.041 11.251,84.755 40.843,112.273 14.792,13.756 36.063,17.735 56.199,19.343 20.135,1.609 40.946,1.564 59.568,9.39 22.962,9.652 40.273,30.382 63.925,38.193 26.559,8.771 58.329,-2.174 73.85,-25.442 9.712,-14.559 13.376,-32.851 24.861,-46.057 18.571,-21.354 51.288,-23.011 74.449,-39.272 15.886,-11.153 26.612,-29.367 28.659,-48.669 2.472,-23.304 -6.375,-49.776 7.598,-68.591 6.814,-9.174 17.862,-14.346 25.204,-23.104 7.316,-8.727 9.376,-16.678 7.075,-27.831 z"
                         style="fill:url(#linearGradient74);stroke:none"
                         id="path76" /></g></g></g></g></g></g></g></g></g><g
       id="g90"
       style="fill:#80ffe6"
       transform="matrix(1.2032376,0,0,1.2032376,-105.90297,-56.511511)"><g
         id="g92"
         style="fill:#80ffe6"><g
           id="g98"
           style="fill:#80ffe6"><g
             id="g100"
             style="fill:#80ffe6"><path
               d="m 224.508,377.408 c -5.571,-2.99 -10.331,-7.47 -13.67,-12.84 v 0 c -5.371,-8.63 -7.411,-19.829 -15.621,-25.82 v 0 c -9.16,-6.69 -21.96,-4.03 -32.899,-7.02 v 0 c -12.511,-3.42 -22.451,-16.319 -20.551,-29.02 v 0 l 0.46,0.06 h 191.46 l 2.12,0.07 c -0.13,2.67 -0.82,5.22 -2.96,6.65 v 0 c -1.779,1.19 -4.07,1.21 -6.089,1.92 v 0 c -4.211,1.51 -6.701,5.83 -8.221,10.04 v 0 c -1.52,4.2 -2.5,8.74 -5.24,12.28 v 0 c -5.83,7.52 -17.07,7.67 -26.44,6.02 v 0 c -2.86,-0.51 -5.82,-1.11 -8.61,-0.34 v 0 c -3.03,0.831 -5.409,3.16 -7.299,5.66 v 0 c -8.481,11.19 -10.911,27.99 -23.59,34.01 v 0 c -2.857,1.353 -5.959,1.957 -9.1,1.957 v 0 c -4.733,0 -9.555,-1.373 -13.75,-3.627"
               style="fill:#80ffe6;stroke:none"
               id="path110" /></g></g></g></g><g
       id="g112"
       style="fill:#80ffe6"
       transform="matrix(1.2032376,0,0,1.2032376,-105.90297,-56.511511)"><g
         id="g114"
         style="fill:#80ffe6"><g
           id="g120"
           style="fill:#80ffe6"><g
             id="g122"
             style="fill:#80ffe6"><path
               d="m 464.661,354.391 c -3.28,-1.52 -6.409,-3.42 -9.109,-5.82 v 0 c -6.821,-6.05 -10.601,-14.98 -11.88,-23.999 v 0 c -1.09,-7.601 -0.8,-16.05 -5.73,-21.941 v 0 c -2.57,-3.07 -6.22,-4.97 -9.65,-7.04 v 0 c -3.431,-2.06 -6.87,-4.54 -8.52,-8.19 v 0 c -1.27,-2.78 -1.051,-6.399 0.73,-8.74 v 0 h 223.27 c -1.31,7.37 -3.781,14.53 -7.281,21.141 v 0 c -2.099,3.959 -4.73,7.869 -8.659,10.019 v 0 c -4.875,2.663 -10.767,2.175 -16.578,1.686 v 0 c -6.67,-0.561 -13.235,-1.122 -18.033,3.084 v 0 c -3.5,3.07 -4.839,7.85 -6.599,12.17 v 0 c -4.211,10.37 -12.79,19.89 -23.891,21.33 v 0 c -9.439,1.211 -18.74,-3.639 -25.7,-10.129 v 0 c -4.899,-4.571 -10.449,-10.491 -16.98,-8.99 v 0 c -2.279,0.53 -4.249,1.939 -5.969,3.519 v 0 c -7.29,6.65 -11.391,16.62 -19.75,21.86 v 0 c -4.139,2.595 -8.914,3.717 -13.789,3.717 v 0 c -5.418,-10e-4 -10.959,-1.387 -15.882,-3.677"
               style="fill:#80ffe6;stroke:none"
               id="path132" /></g></g></g></g><g
       id="g134"
       transform="matrix(1.2032376,0,0,1.2032376,-105.90297,-56.511511)"><g
         id="g136"><g
           id="g142"><g
             id="g144"><path
               d="m 278.916,272.413 -60.658,-88.692 v -28.932 h 58.163 v -28.234 h 38.909 v 28.234 h 16.063 V 184.22 H 315.33 v 88.193 z M 268.54,208.264 c 2.859,4.455 5.421,9.243 7.683,14.366 v 0 h 1.097 c -0.134,-0.267 -0.317,-3.109 -0.549,-8.531 v 0 c -0.234,-5.421 -0.35,-9.726 -0.35,-12.919 v 0 -16.96 h -24.042 z"
               style="fill:url(#linearGradient152);stroke:none"
               id="path154" /></g></g></g></g><g
       id="g156"
       transform="matrix(1.2032376,0,0,1.2032376,-105.90297,-56.511511)"><g
         id="g158"><g
           id="g164"><g
             id="g166"><path
               d="M 268.29,272.404 207.633,183.712 V 154.78 h 58.163 v -28.233 h 38.909 v 28.233 h 16.062 v 29.431 h -16.062 v 88.193 z m -10.375,-64.149 c 2.858,4.455 5.42,9.244 7.682,14.366 v 0 h 1.096 c -0.133,-0.266 -0.315,-3.109 -0.548,-8.53 v 0 c -0.234,-5.422 -0.349,-9.727 -0.349,-12.919 v 0 -16.961 h -24.043 z"
               style="fill:url(#linearGradient174);stroke:none"
               id="path176" /></g></g></g></g><g
       id="g178"
       transform="matrix(1.2032376,0,0,1.2032376,-105.90297,-56.511511)"><g
         id="g180"><g
           id="g186"><g
             id="g188"><path
               d="m 511.434,259.331 -42.71,-98.59 5.49,-28.41 57.11,11.051 3.25,-16.83 h 39.63 l -4.68,24.21 5.34,1.029 10.43,2.021 -5.59,28.899 -10.431,-2.02 -5.339,-1.03 -16.739,86.59 z m 0.1,-69.439 1.9,4.49 c 1.959,4.919 3.56,10.109 4.81,15.569 v 0 l 1.08,0.201 c -0.08,-0.281 0.279,-3.111 1.08,-8.48 v 0 c 0.8,-5.36 1.501,-9.61 2.11,-12.75 v 0 l 3.219,-16.65 -10.429,-2.021 -13.171,-2.541 z"
               style="fill:url(#linearGradient196);stroke:none"
               id="path198" /></g></g></g></g><g
       id="g200"
       transform="matrix(1.2032376,0,0,1.2032376,-105.90297,-56.511511)"><g
         id="g202"><g
           id="g208"><g
             id="g210"><path
               d="m 511.434,259.331 -10.43,-2.019 -42.711,-98.602 5.491,-28.398 10.43,2.019 46.68,9.02 2.86,-14.799 h 39.63 l -4.29,22.189 10.43,2.021 5.34,1.029 -5.591,28.89 -15.769,-3.049 -16.75,86.589 z m -8.43,-66.97 c 1.96,4.911 3.559,10.1 4.809,15.561 v 0 l 1.08,0.21 c -0.08,-0.291 0.281,-3.12 1.08,-8.48 v 0 c 0.571,-3.821 1.09,-7.081 1.561,-9.76 v 0 c 0.19,-1.09 0.38,-2.081 0.55,-2.991 v 0 l 3.22,-16.65 -23.61,-4.569 z"
               style="fill:url(#linearGradient218);stroke:none"
               id="path220" /></g></g></g></g><g
       id="g222"
       transform="matrix(1.2032376,0,0,1.2032376,-105.90297,-56.511511)"><g
         id="g224"><g
           id="g230"><g
             id="g232"><path
               d="m 251.144,339.301 c 25.03,-4.46 46.833,-28.278 46.833,-28.278 v 0 l 15.092,-110.49 23.755,-0.002 -8.11,139.88 -53.73,1.46 z"
               style="fill:url(#linearGradient240);stroke:none"
               id="path242" /></g></g></g></g><g
       id="g244"
       transform="matrix(1.2032376,0,0,1.2032376,-105.90297,-56.511511)"><g
         id="g246"
         clip-path="url(#clipPath250)"><g
           id="g252"
           transform="translate(243.0708,261.272)"><path
             d="M 0,0 C 0,0 -13.498,-19.755 -7.505,-36.717 L 17.606,0 14.345,4.38 Z"
             style="fill:#111023;fill-opacity:1;fill-rule:nonzero;stroke:none"
             id="path254" /></g><g
           id="g256"
           transform="translate(313.0693,200.5322)"><path
             d="m 0,0 -0.809,-5.102 c 0,0 -7.156,-1.001 -7.556,-11.219 H 10.247 L 20.359,-6.449 21.303,0 Z"
             style="fill:#111023;fill-opacity:1;fill-rule:nonzero;stroke:none"
             id="path258" /></g></g></g><g
       id="g260"
       transform="matrix(1.2032376,0,0,1.2032376,-105.90297,-56.511511)"><g
         id="g262"><g
           id="g268"><g
             id="g270"><path
               d="m 251.134,339.301 -8.87,-0.96 c -10.96,-1.189 -18.07,-12.16 -14.67,-22.65 v 0 l 11.631,-56.299 20.177,7.229 -4.838,45.591 29.77,-1.111 13.643,-0.078 c 0,0 -21.803,23.818 -46.833,28.278 v 0 z"
               style="fill:url(#linearGradient278);stroke:none"
               id="path280" /></g></g></g></g><g
       id="g282"
       transform="matrix(1.2032376,0,0,1.2032376,-105.90297,-56.511511)"><g
         id="g284"><g
           id="g290"><g
             id="g292"><path
               d="m 181.62,441.07 c 0,-5.5 -1.957,-10.026 -4.481,-10.621 v 0 l 0.018,-0.072 38.896,4.932 4.39,0.559 c -0.108,1.506 -0.198,4.688 0.965,5.365 v 0 c 1.542,0.893 3.039,-0.569 5.194,-2.426 v 0 c 0.442,-0.387 0.883,-1.099 1.298,-1.992 v 0 l 1.614,0.207 v 1.326 6.374 1.055 l -52.267,5.896 c 2.47,-0.703 4.373,-5.175 4.373,-10.603"
               style="fill:url(#linearGradient300);stroke:none"
               id="path302" /></g></g></g></g><g
       id="g304"
       transform="matrix(1.2032376,0,0,1.2032376,-105.90297,-56.511511)"><g
         id="g306"><g
           id="g312"><g
             id="g314"><path
               d="m 171.576,442.396 c 0.568,0.261 1.208,0.388 1.83,0.469 v 0 c 0.937,0.126 1.893,0.18 2.768,0.523 v 0 c 0.829,0.325 1.56,0.892 2.065,1.631 v 0 c 0.694,0.992 0.956,2.228 1.514,3.31 v 0 c 0.09,0.171 0.189,0.333 0.297,0.496 v 0 c -0.748,1.514 -1.721,2.542 -2.803,2.848 v 0 l -0.812,0.091 c -2.515,-0.136 -4.562,-4.175 -4.859,-9.368"
               style="fill:url(#linearGradient322);stroke:none"
               id="path324" /></g></g></g></g><g
       id="g326"
       transform="matrix(1.2032376,0,0,1.2032376,-105.90297,-56.511511)"><g
         id="g328"><g
           id="g334"><g
             id="g336"><path
               d="m 179.753,448.329 c -0.558,-1.082 -0.82,-2.318 -1.514,-3.31 v 0 c -0.505,-0.739 -1.236,-1.306 -2.065,-1.631 v 0 c -0.875,-0.343 -1.831,-0.397 -2.768,-0.523 v 0 c -0.622,-0.081 -1.262,-0.208 -1.83,-0.469 v 0 c -0.037,-0.433 -0.046,-0.875 -0.046,-1.326 v 0 c 0,-2.172 0.307,-4.192 0.83,-5.878 v 0 c 0.315,0.495 0.739,0.91 1.262,1.181 v 0 c 1.027,0.514 2.245,0.378 3.372,0.631 v 0 c 1.218,0.28 2.326,1.037 3.02,2.074 v 0 c 0.596,0.883 0.902,1.956 1.543,2.813 v 0 c 0.018,0.018 0.026,0.036 0.045,0.054 v 0 c -0.1,2.705 -0.677,5.112 -1.552,6.88 v 0 c -0.108,-0.163 -0.207,-0.325 -0.297,-0.496"
               style="fill:url(#linearGradient344);stroke:none"
               id="path346" /></g></g></g></g><g
       id="g348"
       transform="matrix(1.2032376,0,0,1.2032376,-105.90297,-56.511511)"><g
         id="g350"><g
           id="g356"><g
             id="g358"><path
               d="m 181.557,441.891 c -0.641,-0.857 -0.947,-1.93 -1.543,-2.813 v 0 c -0.694,-1.037 -1.802,-1.794 -3.02,-2.074 v 0 c -1.127,-0.253 -2.345,-0.117 -3.372,-0.631 v 0 c -0.523,-0.271 -0.947,-0.686 -1.262,-1.181 v 0 c 0.902,-2.903 2.452,-4.815 4.21,-4.815 v 0 c 0.19,0 0.388,0.027 0.569,0.072 v 0 c 2.524,0.595 4.481,5.121 4.481,10.621 v 0 c 0,0.298 -0.01,0.586 -0.018,0.875 v 0 c -0.019,-0.018 -0.027,-0.036 -0.045,-0.054"
               style="fill:url(#linearGradient366);stroke:none"
               id="path368" /></g></g></g></g><g
       id="g370"
       transform="matrix(1.2032376,0,0,1.2032376,-105.90297,-56.511511)"><g
         id="g372"
         clip-path="url(#clipPath376)"><g
           id="g378"
           transform="translate(260.3135,443.6851)"><path
             d="m 0,0 h 15.724 c -1.641,-0.658 -3.038,-1.406 -3.669,-2.001 -0.496,-0.46 -0.28,-1.299 0.333,-2.372 L 0,-4.373 Z"
             style="fill:#111023;fill-opacity:1;fill-rule:nonzero;stroke:none"
             id="path380" /></g><g
           id="g382"
           transform="translate(295.1611,441.0522)"><path
             d="m 0,0 v -1.74 h -8.521 c -0.82,1.893 -1.433,3.489 -1.64,4.373 H 0 Z"
             style="fill:#111023;fill-opacity:1;fill-rule:nonzero;stroke:none"
             id="path384" /></g></g></g><g
       id="g386"
       transform="matrix(1.2032376,0,0,1.2032376,-105.90297,-56.511511)"><g
         id="g388"><g
           id="g394"><g
             id="g396"><path
               d="m 229.514,444.722 v -6.374 h 30.799 v 0.964 4.373 1.037 z"
               style="fill:url(#linearGradient404);stroke:none"
               id="path406" /></g></g></g></g><g
       id="g408"
       transform="matrix(1.2032376,0,0,1.2032376,-105.90297,-56.511511)"><g
         id="g410"><g
           id="g416"><g
             id="g418"><path
               d="m 221.408,441.233 c -1.163,-0.677 -1.073,-3.859 -0.965,-5.365 v 0 l -4.39,-0.559 c -0.334,-4.382 7.898,-13.01 7.898,-13.01 v 0 l 6.78,5.157 c 0,0 -1.245,5.96 -2.831,9.359 v 0 c -0.415,0.893 -0.856,1.605 -1.298,1.992 v 0 c -1.708,1.472 -3.003,2.695 -4.234,2.695 v 0 c -0.322,0 -0.64,-0.084 -0.96,-0.269"
               style="fill:url(#linearGradient426);stroke:none"
               id="path428" /></g></g></g></g><g
       id="g430"
       transform="matrix(1.2032376,0,0,1.2032376,-105.90297,-56.511511)"><g
         id="g432"
         clip-path="url(#clipPath436)"><g
           id="g438"
           transform="translate(185.1069,451.6338)"><path
             d="m 0,0 c -0.453,0.992 -1.918,0.145 -1.469,-0.838 2.788,-6.102 2.43,-12.814 -0.911,-18.618 -0.543,-0.942 0.921,-1.79 1.464,-0.845 C 2.735,-13.959 3.037,-6.647 0,0"
             style="fill:#5b2b89;fill-opacity:1;fill-rule:nonzero;stroke:none"
             id="path440" /></g></g></g><g
       id="g442"
       transform="matrix(1.2032376,0,0,1.2032376,-105.90297,-56.511511)"><g
         id="g444"><g
           id="g450"><g
             id="g452"><path
               d="m 305.863,415.419 v 5.229 l -6.257,0.686 z"
               style="fill:url(#linearGradient460);stroke:none"
               id="path462" /></g></g></g></g><g
       id="g464"
       transform="matrix(1.2032376,0,0,1.2032376,-105.90297,-56.511511)"><g
         id="g466"><g
           id="g472"><g
             id="g474"><path
               d="m 293.449,424.859 -6.871,-4.806 -3.084,-2.154 26.174,-35.506 c 0,0 23.912,5.797 29.34,6.816 v 0 c 5.427,1.009 5.264,7.249 6.157,12.884 v 0 c 0.829,5.23 -2.055,10.684 -6.771,11.352 v 0 c -0.351,0.054 -0.712,0.081 -1.091,0.072 v 0 c -5.346,-0.081 -19.123,-9.729 -19.123,-9.729 v 0 l -6.014,5.681 -6.303,5.95 -6.257,5.915 -1.749,1.65 -3.021,2.849 z"
               style="fill:url(#linearGradient482);stroke:none"
               id="path484" /></g></g></g></g><g
       id="g486"
       transform="matrix(1.2032376,0,0,1.2032376,-105.90297,-56.511511)"><g
         id="g488"><g
           id="g494"><g
             id="g496"><path
               d="m 312.166,409.469 6.014,-5.681 c 0,0 13.777,9.648 19.123,9.729 v 0 c 0.379,0.009 0.74,-0.018 1.091,-0.072 v 0 l -15.634,6.112 z"
               style="fill:url(#linearGradient504);stroke:none"
               id="path506" /></g></g></g></g><g
       id="g508"
       transform="matrix(1.2032376,0,0,1.2032376,-105.90297,-56.511511)"><g
         id="g510"><g
           id="g516"><g
             id="g518"><path
               d="m 223.951,422.298 -2.949,-2.245 22.127,-28.581 35.253,3.895 2.921,-23.586 -6.32,-29.908 c 16.22,-6.104 42.16,-3.146 50.815,-1.911 v 0 c 1.849,0.261 2.913,0.451 2.913,0.451 v 0 l 1.216,24.073 9.081,24.723 c -5.428,-1.019 -29.34,-6.816 -29.34,-6.816 v 0 l -26.174,35.506 3.084,2.154 c 0,0 -1.028,0.424 -2.219,1.281 v 0 l -32.719,-14.3 -20.909,20.422 z"
               style="fill:url(#linearGradient526);stroke:none"
               id="path528" /></g></g></g></g><g
       id="g530"
       transform="matrix(1.2032376,0,0,1.2032376,-105.90297,-56.511511)"><g
         id="g532"><g
           id="g538"><g
             id="g540"><path
               d="m 276.037,443.685 c -1.64,-0.658 -3.037,-1.406 -3.669,-2.001 v 0 c -0.496,-0.461 -0.279,-1.299 0.334,-2.372 v 0 c 1.911,-3.363 7.753,-8.998 8.051,-12.46 v 0 c 0.225,-2.579 2.056,-4.409 3.606,-5.518 v 0 c 1.191,-0.857 2.219,-1.281 2.219,-1.281 v 0 l 6.871,4.806 c 0,0 -4.32,8.647 -6.808,14.453 v 0 c -0.821,1.893 -1.434,3.49 -1.641,4.373 v 0 c -0.018,0.063 -0.036,0.127 -0.046,0.181 v 0 c -0.187,0.954 -1.171,1.325 -2.52,1.325 v 0 c -1.821,0 -4.309,-0.677 -6.397,-1.506"
               style="fill:url(#linearGradient548);stroke:none"
               id="path550" /></g></g></g></g><g
       id="g552"
       transform="matrix(1.2032376,0,0,1.2032376,-105.90297,-56.511511)"><g
         id="g554"
         clip-path="url(#clipPath558)"><g
           id="g560"><g
             id="g562" /><g
             id="g592"><g
               clip-path="url(#clipPath566)"
               opacity="0.380005"
               id="g590"><g
                 id="g588"><g
                   id="g586"><g
                     id="g584"><g
                       id="g582"><path
                         d="m 329.928,364.486 c -40.048,8.495 -46.434,53.412 -46.434,53.412 l 26.175,-35.531 29.338,6.842 z"
                         style="fill:url(#linearGradient578);stroke:none"
                         id="path580" /></g></g></g></g></g></g></g></g></g><g
       id="g594"
       transform="matrix(1.2032376,0,0,1.2032376,-105.90297,-56.511511)"><g
         id="g596"><g
           id="g602"><g
             id="g604"><path
               d="m 296.919,445.046 -0.054,-0.324 c -0.162,-0.838 -0.225,-2.128 -0.225,-3.67 v 0 c 0,-6.681 1.217,-18.068 1.217,-18.068 v 0 l 1.749,-1.65 6.257,-0.686 10.45,0.686 -4.147,-11.865 10.594,10.088 -0.857,13.733 c 0,0 3.471,3.714 2.678,6.806 v 0 c -0.343,1.353 -1.199,1.525 -2.046,1.29 v 0 c -1.1,-0.298 -2.21,-1.29 -2.21,-1.29 v 0 c 0,0 -0.604,-7.771 -2.551,-7.537 v 0 c -1.947,0.244 -3.373,14.11 -3.373,14.11 v 0 c 0,0 -10.161,-2.857 -17.482,-1.623"
               style="fill:url(#linearGradient612);stroke:none"
               id="path614" /></g></g></g></g><g
       id="g616"
       transform="matrix(1.2032376,0,0,1.2032376,-105.90297,-56.511511)"><g
         id="g618"
         clip-path="url(#clipPath622)"><g
           id="g624"
           transform="translate(322.6157,451.4663)"><path
             d="m 0,0 -0.081,-10.081 c -1.1,-0.297 -2.209,-1.289 -2.209,-1.289 0,0 -0.604,-7.772 -2.552,-7.537 -1.947,0.243 -3.372,14.11 -3.372,14.11 0,0 -10.161,-2.858 -17.482,-1.623 v 0.009 c -2.3,0.379 -4.31,1.172 -5.644,2.579 -5.599,5.896 -3.652,9.242 4.372,7.42 C -18.943,1.767 -2.308,11.423 0,0"
             style="fill:#111023;fill-opacity:1;fill-rule:nonzero;stroke:none"
             id="path626" /></g><g
           id="g628"
           transform="translate(316.3135,421.334)"><path
             d="m 0,0 -4.147,-11.866 -6.303,5.951 v 5.229 z"
             style="fill:#f79244;fill-opacity:1;fill-rule:nonzero;stroke:none"
             id="path630" /></g><g
           id="g632"
           transform="translate(296.2202,443.2173)"><path
             d="M 0,0 C 1.611,0.809 3.287,0.905 4.981,0.294 6.017,-0.078 5.236,-1.601 4.213,-1.232 3.147,-0.849 1.942,-0.925 0.931,-1.434 -0.042,-1.922 -0.983,-0.494 0,0"
             style="fill:#111023;fill-opacity:1;fill-rule:nonzero;stroke:none"
             id="path634" /></g><g
           id="g636"
           transform="translate(313.001,439.2271)"><path
             d="M 0,0 C 0.053,-1.006 -0.454,-1.851 -1.132,-1.886 -1.81,-1.921 -2.402,-1.134 -2.455,-0.128 -2.507,0.878 -2,1.722 -1.322,1.758 -0.645,1.793 -0.053,1.006 0,0"
             style="fill:#111023;fill-opacity:1;fill-rule:nonzero;stroke:none"
             id="path638" /></g><g
           id="g640"
           transform="translate(313.918,443.6265)"><path
             d="m 0,0 c -1.687,0.636 -3.363,0.557 -4.985,-0.227 -0.991,-0.478 -0.056,-1.911 0.923,-1.439 1.02,0.494 2.227,0.543 3.286,0.143 C 0.242,-1.907 1.029,-0.389 0,0"
             style="fill:#111023;fill-opacity:1;fill-rule:nonzero;stroke:none"
             id="path642" /></g><g
           id="g644"
           transform="translate(302.0527,433.5205)"><path
             d="M 0,0 C 0.546,2.584 1.882,5.215 2.785,7.698 2.973,8.215 3.734,7.825 3.548,7.314 2.979,5.749 2.41,4.183 1.841,2.616 1.644,2.074 1.164,1.176 1.109,0.603 0.923,-1.347 1.815,-1.195 2.825,-1.665 3.325,-1.897 2.939,-2.66 2.441,-2.428 1.2,-1.851 -0.375,-1.773 0,0"
             style="fill:#f79244;fill-opacity:1;fill-rule:nonzero;stroke:none"
             id="path646" /></g><g
           id="g648"
           transform="translate(301.1104,438.9482)"><path
             d="m 0,0 c -0.799,0.644 -1.707,1.067 -2.73,1.198 -0.629,0.08 -0.891,-0.886 -0.252,-0.968 0.516,-0.066 1.004,-0.214 1.461,-0.434 -0.533,-0.173 -1.066,-0.347 -1.6,-0.52 -0.61,-0.198 -0.355,-1.165 0.259,-0.966 0.879,0.286 1.757,0.571 2.635,0.856 C 0.093,-0.73 0.313,-0.252 0,0"
             style="fill:#111023;fill-opacity:1;fill-rule:nonzero;stroke:none"
             id="path650" /></g><g
           id="g652"
           transform="translate(307.4683,425.895)"><path
             d="m 0,0 c 0,-1.774 -0.996,-3.213 -2.225,-3.213 -1.228,0 -2.224,1.439 -2.224,3.213 0,1.775 0.996,3.214 2.224,3.214 C -0.996,3.214 0,1.775 0,0"
             style="fill:#ffffff;fill-opacity:1;fill-rule:nonzero;stroke:none"
             id="path654" /></g><g
           id="g656"><g
             id="g658" /><g
             id="g688"><g
               clip-path="url(#clipPath662)"
               opacity="0.5"
               id="g686"><g
                 id="g684"><g
                   id="g682"><g
                     id="g680"><g
                       id="g678"><path
                         d="M 611.753,126.547 H 210.494 c 0,0 -21.59,-14.333 10.508,-16.761 32.099,-2.427 82.165,-4.719 80.93,-15.64 -1.235,-10.921 -30.224,-8.764 -30.224,-28.044 0,-19.282 133.701,-14.832 133.701,-14.832 0,0 75.529,-0.989 86.285,11.775 10.755,12.764 -30.449,24.449 -22.97,29.483 7.478,5.034 61.77,-10.067 69.86,2.158 8.09,12.224 -1.618,19.955 13.304,21.573 14.921,1.617 57.348,-4.233 59.865,10.288"
                         style="fill:url(#linearGradient674);stroke:none"
                         id="path676" /></g></g></g></g></g></g></g></g></g><g
       id="g690"
       transform="matrix(1.2032376,0,0,1.2032376,-105.90297,-56.511511)"><g
         id="g692"><g
           id="g698"><g
             id="g700"><path
               d="m 551.079,101.157 c 0,-4.765 13.582,-8.629 30.337,-8.629 v 0 c 16.755,0 30.337,3.864 30.337,8.629 v 0 c 0,4.766 -13.582,8.629 -30.337,8.629 v 0 c -16.755,0 -30.337,-3.863 -30.337,-8.629"
               style="fill:url(#linearGradient708);stroke:none"
               id="path710" /></g></g></g></g><g
       id="g712"
       transform="matrix(1.2032376,0,0,1.2032376,-105.90297,-56.511511)"><g
         id="g714"><g
           id="g720"><g
             id="g722"><path
               d="m 231.888,93.696 c 0,-3.624 11.872,-6.562 26.516,-6.562 v 0 c 14.645,0 26.517,2.938 26.517,6.562 v 0 c 0,3.625 -11.872,6.563 -26.517,6.563 v 0 c -14.644,0 -26.516,-2.938 -26.516,-6.563"
               style="fill:url(#linearGradient730);stroke:none"
               id="path732" /></g></g></g></g><g
       id="g734"
       transform="matrix(1.2032376,0,0,1.2032376,-105.90297,-56.511511)"><g
         id="g736"
         clip-path="url(#clipPath740)"><g
           id="g742"
           transform="translate(440.5166,68.124)"><path
             d="m 0,0 c 0,-3.202 -13.483,-5.798 -30.117,-5.798 -16.634,0 -30.117,2.596 -30.117,5.798 0,3.201 13.483,5.797 30.117,5.797 C -13.483,5.797 0,3.201 0,0"
             style="fill:#e9fdff;fill-opacity:1;fill-rule:nonzero;stroke:none"
             id="path744" /></g></g></g><g
       id="g746"
       transform="matrix(1.2032376,0,0,1.2032376,-105.90297,-56.511511)"><g
         id="g748"><g
           id="g754"><g
             id="g756"><path
               d="m 372.924,220.271 c -10.9,-10.119 -18.941,-27.889 -24.141,-53.31 v 0 c -3.179,-15.569 -4.069,-29.039 -2.659,-40.409 v 0 h 37.16 c -0.471,6.639 0.84,17.5 3.92,32.559 v 0 c 3.33,16.29 6.63,27.291 9.899,33.01 v 0 c 1.901,3.32 4.051,5.511 6.451,6.57 v 0 c 1.73,0.77 3.601,0.951 5.59,0.54 v 0 c 4.761,-0.98 7.499,-4.849 8.22,-11.61 v 0 c 0.72,-6.77 -0.54,-18.069 -3.77,-33.899 v 0 c -2.43,-11.87 -4.871,-20.92 -7.31,-27.17 v 0 h 40.74 c 1.89,5.85 3.55,12.29 4.98,19.319 v 0 c 0.95,4.65 1.7,9.111 2.24,13.38 v 0 c 2.33,18.2 0.989,33.02 -4.011,44.459 v 0 c -6.179,14.131 -17.769,22.932 -34.769,26.401 v 0 c -1.85,0.38 -3.66,0.68 -5.429,0.901 v 0 c -2.6,0.329 -5.12,0.494 -7.562,0.494 v 0 c -11.647,0 -21.497,-3.745 -29.549,-11.235"
               style="fill:url(#linearGradient764);stroke:none"
               id="path766" /></g></g></g></g><g
       id="g768"
       transform="matrix(1.2032376,0,0,1.2032376,-105.90297,-56.511511)"><g
         id="g770"><g
           id="g776"><g
             id="g778"><path
               d="m 362.504,222.392 c -10.89,-10.131 -18.94,-27.901 -24.13,-53.311 v 0 c -1.06,-5.17 -1.86,-10.12 -2.41,-14.83 v 0 c -1.21,-10.35 -1.2,-19.59 0.04,-27.699 v 0 h 37.11 c -0.05,0.239 -0.08,0.479 -0.11,0.73 v 0 c -0.78,6.469 0.48,17.789 3.78,33.949 v 0 c 3.33,16.29 6.63,27.29 9.91,33.001 v 0 c 3.27,5.719 7.279,8.089 12.039,7.11 v 0 c 1.951,-0.401 3.561,-1.28 4.821,-2.651 v 0 c 1.85,-1.98 2.97,-4.96 3.4,-8.949 v 0 c 0.72,-6.77 -0.54,-18.07 -3.77,-33.9 v 0 c -2.72,-13.28 -5.451,-23.04 -8.19,-29.29 v 0 h 40.93 c 2.16,6.4 4.05,13.54 5.67,21.43 v 0 c 4.99,24.44 4.4,43.719 -1.769,57.849 v 0 c -5.552,12.691 -15.481,21.09 -29.79,25.181 v 0 c -1.611,0.46 -3.271,0.869 -4.991,1.219 v 0 c -4.549,0.931 -8.877,1.396 -12.981,1.396 v 0 c -11.647,0 -21.499,-3.745 -29.559,-11.235"
               style="fill:url(#linearGradient786);stroke:none"
               id="path788" /></g></g></g></g><g
       id="g790"
       transform="matrix(1.2032376,0,0,1.2032376,-105.90297,-56.511511)"><g
         id="g792"
         clip-path="url(#clipPath796)"><g
           id="g798"
           transform="translate(468.1904,301.1299)"><path
             d="M 0,0 -0.25,-0.19 -26.381,-20.53 -42.69,-33.22 -56.271,-70.8 -60.04,-69.439 -46.051,-30.77 -2.45,3.16 Z"
             style="fill:#2a2a2a;fill-opacity:1;fill-rule:nonzero;stroke:none"
             id="path800" /></g></g></g><g
       id="g802"
       transform="matrix(1.2032376,0,0,1.2032376,-105.90297,-56.511511)"><g
         id="g804"><g
           id="g810"><g
             id="g812"><path
               d="m 441.81,280.6 c 2.87,-1.19 5.09,-3.98 5.38,-7.1 v 0 c 0.421,-4.469 -2.67,-8.91 -1.51,-13.25 v 0 c 0.8,-2.99 3.5,-5.141 6.37,-6.3 v 0 c 3.21,-1.28 7.26,-2.01 8.601,-5.19 v 0 c 0.599,-1.41 0.488,-3.01 0.17,-4.51 v 0 c -0.801,-3.74 -2.852,-7.33 -2.411,-11.13 v 0 c 0.34,-2.889 2.109,-5.441 4.2,-7.469 v 0 c 2.091,-2.031 4.53,-3.661 6.72,-5.591 v 0 c 1.29,-1.149 2.55,-2.51 2.88,-4.22 v 0 c 0.47,-2.51 -1.19,-4.87 -2.76,-6.88 v 0 l 0.27,-0.47 c 3.971,2.349 8.02,4.769 10.99,8.3 v 0 c 2.97,3.53 4.709,8.44 3.309,12.84 v 0 c -1.019,3.179 -3.568,5.82 -4.069,9.13 v 0 c -0.78,5.18 3.689,9.851 3.751,15.09 v 0 c 0.059,4.67 -3.331,8.6 -6.701,11.83 v 0 c -1.63,1.57 -3.4,3.25 -3.81,5.47 v 0 c -0.261,1.45 0.1,2.93 0.52,4.35 v 0 c 1.06,3.52 2.55,7.02 2.53,10.7 v 0 c -0.05,5.809 -3.87,10.9 -8.299,14.74 v 0 z"
               style="fill:url(#linearGradient820);stroke:none"
               id="path822" /></g></g></g></g></g></svg>
