<?xml version="1.0" encoding="UTF-8" standalone="no"?>
<svg
   xmlns:dc="http://purl.org/dc/elements/1.1/"
   xmlns:cc="http://creativecommons.org/ns#"
   xmlns:rdf="http://www.w3.org/1999/02/22-rdf-syntax-ns#"
   xmlns:svg="http://www.w3.org/2000/svg"
   xmlns="http://www.w3.org/2000/svg"
   xmlns:sodipodi="http://sodipodi.sourceforge.net/DTD/sodipodi-0.dtd"
   xmlns:inkscape="http://www.inkscape.org/namespaces/inkscape"
   version="1.1"
   id="svg2"
   xml:space="preserve"
   width="1000"
   height="400"
   viewBox="0 0 1000 400"
   sodipodi:docname="geometric.ai.svg"
   inkscape:version="1.0.1 (0767f8302a, 2020-10-17)"><metadata
     id="metadata8"><rdf:RDF><cc:Work
         rdf:about=""><dc:format>image/svg+xml</dc:format><dc:type
           rdf:resource="http://purl.org/dc/dcmitype/StillImage" /><dc:title></dc:title></cc:Work></rdf:RDF></metadata><defs
     id="defs6"><clipPath
       clipPathUnits="userSpaceOnUse"
       id="clipPath20"><path
         d="M 0,500 H 750 V 0 H 0 Z"
         id="path18" /></clipPath><clipPath
       clipPathUnits="userSpaceOnUse"
       id="clipPath28"><path
         d="M 62.5204,347.625 H 207.344 V 142.8 H 62.5204 Z"
         id="path26" /></clipPath><clipPath
       clipPathUnits="userSpaceOnUse"
       id="clipPath72"><path
         d="M 0,500 H 750 V 0 H 0 Z"
         id="path70" /></clipPath><clipPath
       clipPathUnits="userSpaceOnUse"
       id="clipPath200"><path
         d="M 225.17,347.312 H 369.994 V 142.486 H 225.17 Z"
         id="path198" /></clipPath><clipPath
       clipPathUnits="userSpaceOnUse"
       id="clipPath220"><path
         d="M 0,500 H 750 V 0 H 0 Z"
         id="path218" /></clipPath><clipPath
       clipPathUnits="userSpaceOnUse"
       id="clipPath346"><path
         d="M 387.82,347.312 H 532.644 V 142.486 H 387.82 Z"
         id="path344" /></clipPath><clipPath
       clipPathUnits="userSpaceOnUse"
       id="clipPath366"><path
         d="M 0,500 H 750 V 0 H 0 Z"
         id="path364" /></clipPath><clipPath
       clipPathUnits="userSpaceOnUse"
       id="clipPath498"><path
         d="M 550.528,347.312 H 695.352 V 142.486 H 550.528 Z"
         id="path496" /></clipPath><clipPath
       clipPathUnits="userSpaceOnUse"
       id="clipPath518"><path
         d="M 0,500 H 750 V 0 H 0 Z"
         id="path516" /></clipPath></defs><sodipodi:namedview
     pagecolor="#ffffff"
     bordercolor="#666666"
     borderopacity="1"
     objecttolerance="10"
     gridtolerance="10"
     guidetolerance="10"
     inkscape:pageopacity="0"
     inkscape:pageshadow="2"
     inkscape:window-width="1920"
     inkscape:window-height="1013"
     id="namedview4"
     showgrid="false"
     inkscape:zoom="1.074"
     inkscape:cx="462.31989"
     inkscape:cy="333.33334"
     inkscape:window-x="0"
     inkscape:window-y="27"
     inkscape:window-maximized="1"
     inkscape:current-layer="g10" /><g
     id="g10"
     inkscape:groupmode="layer"
     inkscape:label="3542036"
     transform="matrix(1.3333333,0,0,-1.3333333,0,666.66667)"><g
       id="g14"
       transform="matrix(1.1526746,0,0,1.1526746,-58.945133,66.017458)"><g
         id="g16"
         clip-path="url(#clipPath20)"><g
           id="g22"><g
             id="g24" /><g
             id="g34"><g
               clip-path="url(#clipPath28)"
               opacity="0.300003"
               id="g32"><path
                 d="M 207.344,142.8 H 62.521 v 204.826 h 144.823 z"
                 style="fill:#a3a3a3;fill-opacity:1;fill-rule:nonzero;stroke:none"
                 id="path30" /></g></g></g></g></g><path
       d="M 175.57343,235.10098 H 8.6384828 V 471.19756 H 175.57343 Z"
       style="fill:#ffffff;fill-opacity:1;fill-rule:nonzero;stroke:none;stroke-width:1.15268"
       id="path36" /><text
       transform="scale(1,-1)"
       style="font-variant:normal;font-weight:bold;font-stretch:normal;font-size:13.8321px;font-family:'League Spartan';-inkscape-font-specification:LeagueSpartan-Bold;writing-mode:lr-tb;fill:#000000;fill-opacity:1;fill-rule:nonzero;stroke:none;stroke-width:1.15268"
       id="text40"
       x="21.136473"
       y="-260.83917"><tspan
         x="21.136473 30.516016 38.85677 47.970737 61.595348 69.866943 75.33062 82.219002 86.396294 93.187851"
         y="-260.83917"
         sodipodi:role="line"
         id="tspan38"
         style="stroke-width:1.15268">geometric.</tspan></text><path
       d="M 71.284041,283.75884 H 8.6373302 v 62.64671 H 71.284041 Z"
       style="fill:#34c1d5;fill-opacity:1;fill-rule:nonzero;stroke:none;stroke-width:1.15268"
       id="path42" /><path
       d="M 133.93075,283.75884 H 71.284041 v 62.64671 h 62.646709 z"
       style="fill:#24476d;fill-opacity:1;fill-rule:nonzero;stroke:none;stroke-width:1.15268"
       id="path44" /><path
       d="M 133.93075,283.75884 H 71.284041 v 62.64671 h 62.646709 z"
       style="fill:#5f14d0;fill-opacity:1;fill-rule:nonzero;stroke:none;stroke-width:1.15268"
       id="path46" /><path
       d="m 175.57343,283.75884 h -41.64268 v 62.64671 h 41.64268 z"
       style="fill:#5f14d0;fill-opacity:1;fill-rule:nonzero;stroke:none;stroke-width:1.15268"
       id="path48" /><path
       d="m 112.92672,409.05227 h 62.64671 v -62.64672 h -62.64671 z"
       style="fill:#f20066;fill-opacity:1;fill-rule:nonzero;stroke:none;stroke-width:1.15268"
       id="path50" /><path
       d="M 50.281157,409.05227 H 112.92787 V 346.40555 H 50.281157 Z"
       style="fill:#ffdb00;fill-opacity:1;fill-rule:nonzero;stroke:none;stroke-width:1.15268"
       id="path52" /><path
       d="M 8.6384828,409.05227 H 50.281157 V 346.40555 H 8.6384828 Z"
       style="fill:#34c1d5;fill-opacity:1;fill-rule:nonzero;stroke:none;stroke-width:1.15268"
       id="path54" /><path
       d="m 112.92672,471.19871 h 62.64671 v -62.14644 h -62.64671 z"
       style="fill:#5f14d0;fill-opacity:1;fill-rule:nonzero;stroke:none;stroke-width:1.15268"
       id="path56" /><path
       d="M 50.281157,471.19871 H 112.92787 V 409.05227 H 50.281157 Z"
       style="fill:#5f14d0;fill-opacity:1;fill-rule:nonzero;stroke:none;stroke-width:1.15268"
       id="path58" /><path
       d="M 8.6384828,471.19871 H 50.281157 V 409.05227 H 8.6384828 Z"
       style="fill:#ffdb00;fill-opacity:1;fill-rule:nonzero;stroke:none;stroke-width:1.15268"
       id="path60" /><g
       id="g62"
       transform="matrix(1.1526746,0,0,1.1526746,50.280928,409.05181)"><path
         d="M 0,0 H -36.127 L -1.183,39.068 0,40.495 Z"
         style="fill:#ff9a00;fill-opacity:1;fill-rule:nonzero;stroke:none"
         id="path64" /></g><g
       id="g66"
       transform="matrix(1.1526746,0,0,1.1526746,-58.945133,66.017458)"><g
         id="g68"
         clip-path="url(#clipPath72)"><g
           id="g74"
           transform="translate(58.625,351.5137)"><path
             d="m 0,0 c 0,-9.98 8.09,-18.071 18.07,-18.071 9.981,0 18.071,8.091 18.071,18.071 z"
             style="fill:#5f14d0;fill-opacity:1;fill-rule:nonzero;stroke:none"
             id="path76" /></g><g
           id="g78"
           transform="translate(94.7657,243.25)"><path
             d="M 0,0 C 0,9.98 -8.09,18.071 -18.07,18.071 -28.051,18.071 -36.141,9.98 -36.141,0 Z"
             style="fill:#ff9a00;fill-opacity:1;fill-rule:nonzero;stroke:none"
             id="path80" /></g><g
           id="g82"
           transform="translate(83.252,317.8462)"><path
             d="m 0,0 c 0,-3.593 -2.912,-6.505 -6.505,-6.505 -3.593,0 -6.506,2.912 -6.506,6.505 0,3.593 2.913,6.505 6.506,6.505 C -2.912,6.505 0,3.593 0,0"
             style="fill:#f20066;fill-opacity:1;fill-rule:nonzero;stroke:none"
             id="path84" /></g><g
           id="g86"
           transform="translate(87.2969,281.6143)"><path
             d="m 0,0 c 0.857,-5.91 -3.238,-11.395 -9.148,-12.252 -5.91,-0.857 -11.396,3.238 -12.252,9.148 -0.858,5.91 3.238,11.396 9.148,12.253 C -6.343,10.006 -0.856,5.91 0,0"
             style="fill:#ffdb00;fill-opacity:1;fill-rule:nonzero;stroke:none"
             id="path88" /></g><g
           id="g90"
           transform="translate(94.7588,297.5986)"><path
             d="M 0,0 -36.127,-32.416 H 0 Z"
             style="fill:#5f14d0;fill-opacity:1;fill-rule:nonzero;stroke:none"
             id="path92" /></g><g
           id="g94"
           transform="translate(94.7657,283.25)"><path
             d="M 0,0 -19.689,-18.067 H -0.007 Z"
             style="fill:#34c1d5;fill-opacity:1;fill-rule:nonzero;stroke:none"
             id="path96" /></g><g
           id="g98"
           transform="translate(69.5967,243.25)"><path
             d="m 0,0 c 0,3.866 3.134,7 7,7 3.866,0 7,-3.134 7,-7 z"
             style="fill:#5f14d0;fill-opacity:1;fill-rule:nonzero;stroke:none"
             id="path100" /></g><g
           id="g102"
           transform="translate(58.6319,265.1826)"><path
             d="M 0,0 18.063,-12.897 36.127,0 Z"
             style="fill:#f20066;fill-opacity:1;fill-rule:nonzero;stroke:none"
             id="path104" /></g><g
           id="g106"
           transform="translate(94.7588,297.5986)"><path
             d="M 0,0 54.349,53.915 V 0 Z"
             style="fill:#f20066;fill-opacity:1;fill-rule:nonzero;stroke:none"
             id="path108" /></g><g
           id="g110"
           transform="translate(94.7657,323.0913)"><path
             d="M 0,0 H 25.769 V 28.422 Z"
             style="fill:#34c1d5;fill-opacity:1;fill-rule:nonzero;stroke:none"
             id="path112" /></g><g
           id="g114"
           transform="translate(149.1075,297.5986)"><path
             d="M 0,0 C -30.016,0 -54.349,-24.333 -54.349,-54.349 H 0 Z"
             style="fill:#34c1d5;fill-opacity:1;fill-rule:nonzero;stroke:none"
             id="path116" /></g><g
           id="g118"
           transform="translate(149.1075,297.5986)"><path
             d="M 0,0 C 30.016,0 54.349,-24.333 54.349,-54.349 H 0 Z"
             style="fill:#5f14d0;fill-opacity:1;fill-rule:nonzero;stroke:none"
             id="path120" /></g><g
           id="g122"
           transform="translate(149.1075,270.4243)"><path
             d="M 0,0 C -15.008,0 -27.175,-12.167 -27.175,-27.174 H 0 Z"
             style="fill:#f20066;fill-opacity:1;fill-rule:nonzero;stroke:none"
             id="path124" /></g><g
           id="g126"
           transform="translate(121.9326,243.25)"><path
             d="m 0,0 c 0,-14.917 12.093,-27.01 27.01,-27.01 14.918,0 27.011,12.093 27.011,27.01 z"
             style="fill:#ffdb00;fill-opacity:1;fill-rule:nonzero;stroke:none"
             id="path128" /></g><g
           id="g130"
           transform="translate(112.9805,225)"><path
             d="M 0,0 54.349,-36.099 H 0 Z"
             style="fill:#ff9a00;fill-opacity:1;fill-rule:nonzero;stroke:none"
             id="path132" /></g><path
           d="m 203.456,188.901 h -19.464 v 54.349 h 19.464 z"
           style="fill:#34c1d5;fill-opacity:1;fill-rule:nonzero;stroke:none"
           id="path134" /><g
           id="g136"
           transform="translate(203.4561,243.25)"><path
             d="M 0,0 -9.732,-9.083 -19.464,0 Z"
             style="fill:#f20066;fill-opacity:1;fill-rule:nonzero;stroke:none"
             id="path138" /></g><g
           id="g140"
           transform="translate(203.4561,234.2871)"><path
             d="M 0,0 -9.732,-9.084 -19.464,0 Z"
             style="fill:#ff9a00;fill-opacity:1;fill-rule:nonzero;stroke:none"
             id="path142" /></g><g
           id="g144"
           transform="translate(203.4395,225.2031)"><path
             d="M 0,0 -9.716,-9.068 -19.431,0 Z"
             style="fill:#fff009;fill-opacity:1;fill-rule:nonzero;stroke:none"
             id="path146" /></g><g
           id="g148"
           transform="translate(203.4395,216.2549)"><path
             d="M 0,0 -9.716,-9.068 -19.431,0 Z"
             style="fill:#5f14d0;fill-opacity:1;fill-rule:nonzero;stroke:none"
             id="path150" /></g><g
           id="g152"
           transform="translate(203.4395,207.1865)"><path
             d="M 0,0 -9.716,-9.068 -19.431,0 Z"
             style="fill:#f20066;fill-opacity:1;fill-rule:nonzero;stroke:none"
             id="path154" /></g><g
           id="g156"
           transform="translate(203.4395,198.2383)"><path
             d="M 0,0 -9.716,-9.068 -19.431,0 Z"
             style="fill:#ff9a00;fill-opacity:1;fill-rule:nonzero;stroke:none"
             id="path158" /></g><path
           d="m 176.281,324.556 h -27.174 v 26.958 h 27.174 z"
           style="fill:#34c1d5;fill-opacity:1;fill-rule:nonzero;stroke:none"
           id="path160" /><path
           d="m 203.456,297.599 h -27.175 v 26.958 h 27.175 z"
           style="fill:#ffdb00;fill-opacity:1;fill-rule:nonzero;stroke:none"
           id="path162" /><path
           d="M 176.365,297.599 H 149.19 v 26.958 h 27.175 z"
           style="fill:#ff9a00;fill-opacity:1;fill-rule:nonzero;stroke:none"
           id="path164" /><g
           id="g166"
           transform="translate(195.9092,338)"><path
             d="m 0,0 c 0,-3.383 -2.742,-6.125 -6.125,-6.125 -3.383,0 -6.125,2.742 -6.125,6.125 0,3.383 2.742,6.125 6.125,6.125 C -2.742,6.125 0,3.383 0,0"
             style="fill:#34c1d5;fill-opacity:1;fill-rule:nonzero;stroke:none"
             id="path168" /></g><g
           id="g170"
           transform="translate(168.9034,310.9937)"><path
             d="m 0,0 c 0,-3.383 -2.742,-6.125 -6.125,-6.125 -3.383,0 -6.125,2.742 -6.125,6.125 0,3.383 2.742,6.125 6.125,6.125 C -2.742,6.125 0,3.383 0,0"
             style="fill:#5f14d0;fill-opacity:1;fill-rule:nonzero;stroke:none"
             id="path172" /></g><g
           id="g174"
           transform="translate(170.3916,338.3096)"><path
             d="M 0,0 -8.048,-8.048 -16.096,0 -8.048,8.047 Z"
             style="fill:#ffdb00;fill-opacity:1;fill-rule:nonzero;stroke:none"
             id="path176" /></g><g
           id="g178"
           transform="translate(198.4746,310.2261)"><path
             d="M 0,0 -8.048,-8.048 -16.096,0 -8.048,8.048 Z"
             style="fill:#f20066;fill-opacity:1;fill-rule:nonzero;stroke:none"
             id="path180" /></g><g
           id="g182"
           transform="translate(58.625,243.25)"><path
             d="m 0,0 v -27.174 h 9.854 c 0,9.57 7.758,17.326 17.328,17.326 9.568,0 17.326,-7.756 17.326,-17.326 h 9.847 V 0 Z"
             style="fill:#f20066;fill-opacity:1;fill-rule:nonzero;stroke:none"
             id="path184" /></g><g
           id="g186"
           transform="translate(85.8067,198.749)"><path
             d="M 0,0 C 9.568,0 17.326,7.758 17.326,17.327 H -17.327 C -17.327,7.758 -9.569,0 0,0"
             style="fill:#5f14d0;fill-opacity:1;fill-rule:nonzero;stroke:none"
             id="path188" /></g><g
           id="g190"
           transform="translate(85.8067,233.4023)"><path
             d="M 0,0 C -9.569,0 -17.327,-7.757 -17.327,-17.326 H 17.326 C 17.326,-7.757 9.568,0 0,0"
             style="fill:#ffdb00;fill-opacity:1;fill-rule:nonzero;stroke:none"
             id="path192" /></g><g
           id="g194"><g
             id="g196" /><g
             id="g206"><g
               clip-path="url(#clipPath200)"
               opacity="0.300003"
               id="g204"><path
                 d="M 369.994,142.486 H 225.17 v 204.826 h 144.824 z"
                 style="fill:#a3a3a3;fill-opacity:1;fill-rule:nonzero;stroke:none"
                 id="path202" /></g></g></g><path
           d="M 366.105,146.375 H 221.281 V 351.2 h 144.824 z"
           style="fill:#ffffff;fill-opacity:1;fill-rule:nonzero;stroke:none"
           id="path208" /></g></g><text
       transform="scale(1,-1)"
       style="font-variant:normal;font-weight:bold;font-stretch:normal;font-size:13.8321px;font-family:'League Spartan';-inkscape-font-specification:LeagueSpartan-Bold;writing-mode:lr-tb;fill:#000000;fill-opacity:1;fill-rule:nonzero;stroke:none;stroke-width:1.15268"
       id="text212"
       x="212.15575"
       y="-438.43658"><tspan
         x="212.15575 221.53529 229.87605 238.99002 252.61462 260.88623 266.34991 273.23828 277.41559 284.20712"
         y="-438.43658"
         sodipodi:role="line"
         id="tspan210"
         style="stroke-width:1.15268">geometric.</tspan></text><g
       id="g214"
       transform="matrix(1.1526746,0,0,1.1526746,-58.945133,66.017458)"><g
         id="g216"
         clip-path="url(#clipPath220)"><path
           d="m 311.841,308.3 h 54.348 v -54.119 h -54.348 z"
           style="fill:#ff9a00;fill-opacity:1;fill-rule:nonzero;stroke:none"
           id="path222" /><path
           d="m 257.492,308.3 h 54.349 v -54.119 h -54.349 z"
           style="fill:#24476d;fill-opacity:1;fill-rule:nonzero;stroke:none"
           id="path224" /><path
           d="m 257.492,308.3 h 54.349 v -54.119 h -54.349 z"
           style="fill:#ffdb00;fill-opacity:1;fill-rule:nonzero;stroke:none"
           id="path226" /><path
           d="m 221.365,308.3 h 36.127 v -54.119 h -36.127 z"
           style="fill:#ffdb00;fill-opacity:1;fill-rule:nonzero;stroke:none"
           id="path228" /><path
           d="m 275.714,200.062 h -54.349 v 54.119 h 54.349 z"
           style="fill:#f20066;fill-opacity:1;fill-rule:nonzero;stroke:none"
           id="path230" /><path
           d="m 330.062,200.062 h -54.348 v 54.119 h 54.348 z"
           style="fill:#5f14d0;fill-opacity:1;fill-rule:nonzero;stroke:none"
           id="path232" /><path
           d="m 366.189,200.062 h -36.127 v 54.119 h 36.127 z"
           style="fill:#34c1d5;fill-opacity:1;fill-rule:nonzero;stroke:none"
           id="path234" /><path
           d="m 275.714,146.375 h -54.349 v 53.688 h 54.349 z"
           style="fill:#34c1d5;fill-opacity:1;fill-rule:nonzero;stroke:none"
           id="path236" /><path
           d="m 330.062,146.375 h -54.348 v 53.688 h 54.348 z"
           style="fill:#5f14d0;fill-opacity:1;fill-rule:nonzero;stroke:none"
           id="path238" /><g
           id="g240"
           transform="translate(275.7139,254.1816)"><path
             d="M 0,0 C -30.062,0 -54.433,-24.23 -54.433,-54.119 H 0 Z"
             style="fill:#ffdb00;fill-opacity:1;fill-rule:nonzero;stroke:none"
             id="path242" /></g><g
           id="g244"
           transform="translate(275.7139,254.1816)"><path
             d="M 0,0 C 30.016,0 54.348,-24.23 54.348,-54.119 H 0 Z"
             style="fill:#34c1d5;fill-opacity:1;fill-rule:nonzero;stroke:none"
             id="path246" /></g><g
           id="g248"
           transform="translate(302.8877,254.1816)"><path
             d="M 0,0 C 0,14.854 -12.093,26.896 -27.01,26.896 -41.927,26.896 -54.02,14.854 -54.02,0 Z"
             style="fill:#5f14d0;fill-opacity:1;fill-rule:nonzero;stroke:none"
             id="path250" /></g><g
           id="g252"
           transform="translate(248.5498,308.3003)"><path
             d="m 0,0 c 0,-15.002 12.093,-27.163 27.01,-27.163 14.917,0 27.01,12.161 27.01,27.163 z"
             style="fill:#f20066;fill-opacity:1;fill-rule:nonzero;stroke:none"
             id="path254" /></g><path
           d="m 221.365,308.3 h 19.463 v -54.119 h -19.463 z"
           style="fill:#34c1d5;fill-opacity:1;fill-rule:nonzero;stroke:none"
           id="path256" /><g
           id="g258"
           transform="translate(221.3653,254.1816)"><path
             d="M 0,0 9.731,9.045 19.463,0 Z"
             style="fill:#ffdb00;fill-opacity:1;fill-rule:nonzero;stroke:none"
             id="path260" /></g><g
           id="g262"
           transform="translate(221.3653,263.1069)"><path
             d="M 0,0 9.731,9.045 19.463,0 Z"
             style="fill:#5f14d0;fill-opacity:1;fill-rule:nonzero;stroke:none"
             id="path264" /></g><g
           id="g266"
           transform="translate(221.3653,272.0918)"><path
             d="M 0,0 9.731,9.045 19.463,0 Z"
             style="fill:#ffdb00;fill-opacity:1;fill-rule:nonzero;stroke:none"
             id="path268" /></g><g
           id="g270"
           transform="translate(221.3653,281.0176)"><path
             d="M 0,0 9.731,9.045 19.463,0 Z"
             style="fill:#5f14d0;fill-opacity:1;fill-rule:nonzero;stroke:none"
             id="path272" /></g><g
           id="g274"
           transform="translate(221.3653,290.0625)"><path
             d="M 0,0 9.731,9.045 19.463,0 Z"
             style="fill:#ffdb00;fill-opacity:1;fill-rule:nonzero;stroke:none"
             id="path276" /></g><g
           id="g278"
           transform="translate(221.3653,298.9878)"><path
             d="M 0,0 9.731,9.045 19.463,0 Z"
             style="fill:#5f14d0;fill-opacity:1;fill-rule:nonzero;stroke:none"
             id="path280" /></g><path
           d="m 248.539,173.219 h 27.175 v -26.844 h -27.175 z"
           style="fill:#f59e1b;fill-opacity:1;fill-rule:nonzero;stroke:none"
           id="path282" /><path
           d="m 221.365,200.062 h 27.174 v -26.844 h -27.174 z"
           style="fill:#5f14d0;fill-opacity:1;fill-rule:nonzero;stroke:none"
           id="path284" /><path
           d="M 248.456,200.062 H 275.63 V 173.218 H 248.456 Z"
           style="fill:#ffdb00;fill-opacity:1;fill-rule:nonzero;stroke:none"
           id="path286" /><g
           id="g288"
           transform="translate(330.0616,254.1816)"><path
             d="M 0,0 36.131,-27.06 H -0.007 Z"
             style="fill:#f20066;fill-opacity:1;fill-rule:nonzero;stroke:none"
             id="path290" /></g><g
           id="g292"
           transform="translate(366.1924,227.1221)"><path
             d="M 0,0 -36.131,-27.06 -36.138,0 Z"
             style="fill:#ffdb00;fill-opacity:1;fill-rule:nonzero;stroke:none"
             id="path294" /></g><g
           id="g296"
           transform="translate(339.0147,303.7109)"><path
             d="m 0,0 c -12.442,0 -22.565,-10.08 -22.565,-22.47 0,-12.39 10.123,-22.47 22.565,-22.47 12.442,0 22.565,10.08 22.565,22.47 C 22.565,-10.08 12.442,0 0,0 m 0,-49.529 c -14.984,0 -27.175,12.138 -27.175,27.059 0,14.921 12.191,27.059 27.175,27.059 14.984,0 27.175,-12.138 27.175,-27.059 0,-14.921 -12.191,-27.059 -27.175,-27.059"
             style="fill:#f20066;fill-opacity:1;fill-rule:nonzero;stroke:none"
             id="path298" /></g><g
           id="g300"
           transform="translate(353.6153,281.2407)"><path
             d="m 0,0 c 0,-8.03 -6.537,-14.539 -14.601,-14.539 -8.063,0 -14.6,6.509 -14.6,14.539 0,8.03 6.537,14.54 14.6,14.54 C -6.537,14.54 0,8.03 0,0"
             style="fill:#f20066;fill-opacity:1;fill-rule:nonzero;stroke:none"
             id="path302" /></g><g
           id="g304"
           transform="translate(311.8409,272.3545)"><path
             d="M 0,0 54.348,35.946 H 0 Z"
             style="fill:#5f14d0;fill-opacity:1;fill-rule:nonzero;stroke:none"
             id="path306" /></g><g
           id="g308"
           transform="translate(311.8399,288.2515)"><path
             d="M 0,0 0.001,-15.897 24.036,0 Z"
             style="fill:#34c1d5;fill-opacity:1;fill-rule:nonzero;stroke:none"
             id="path310" /></g><g
           id="g312"
           transform="translate(335.876,288.2515)"><path
             d="M 0,0 V 20.049 H 30.312 Z"
             style="fill:#ffdb00;fill-opacity:1;fill-rule:nonzero;stroke:none"
             id="path314" /></g><path
           d="m 330.062,200.062 h -108.78 v 7.083 h 108.78 z"
           style="fill:#ff9a00;fill-opacity:1;fill-rule:nonzero;stroke:none"
           id="path316" /><g
           id="g318"
           transform="translate(286.5264,224.543)"><path
             d="m 0,0 c 0,-5.946 -4.841,-10.768 -10.813,-10.768 -5.971,0 -10.812,4.822 -10.812,10.768 0,5.946 4.841,10.767 10.812,10.767 C -4.841,10.767 0,5.946 0,0"
             style="fill:#5f14d0;fill-opacity:1;fill-rule:nonzero;stroke:none"
             id="path320" /></g><path
           d="m 366.189,146.375 h -36.127 v 53.688 h 36.127 z"
           style="fill:#f59e1b;fill-opacity:1;fill-rule:nonzero;stroke:none"
           id="path322" /><path
           d="m 317.555,158.333 h -29.334 v 29.209 h 29.334 z"
           style="fill:#ffdb00;fill-opacity:1;fill-rule:nonzero;stroke:none"
           id="path324" /><g
           id="g326"
           transform="translate(275.7139,200.0625)"><path
             d="M 0,0 54.348,-53.688 H 0 Z"
             style="fill:#f20066;fill-opacity:1;fill-rule:nonzero;stroke:none"
             id="path328" /></g><path
           d="m 348.125,146.375 h -18.063 v 53.688 h 18.063 z"
           style="fill:#ffdb00;fill-opacity:1;fill-rule:nonzero;stroke:none"
           id="path330" /><g
           id="g332"
           transform="translate(221.2813,200.0625)"><path
             d="M 0,0 0.084,-26.844 H 27.175 Z"
             style="fill:#f20066;fill-opacity:1;fill-rule:nonzero;stroke:none"
             id="path334" /></g><g
           id="g336"
           transform="translate(248.5391,173.2187)"><path
             d="M 0,0 0.084,-26.844 H 27.175 Z"
             style="fill:#5f14d0;fill-opacity:1;fill-rule:nonzero;stroke:none"
             id="path338" /></g><g
           id="g340"><g
             id="g342" /><g
             id="g352"><g
               clip-path="url(#clipPath346)"
               opacity="0.300003"
               id="g350"><path
                 d="M 532.644,142.486 H 387.82 v 204.826 h 144.824 z"
                 style="fill:#a3a3a3;fill-opacity:1;fill-rule:nonzero;stroke:none"
                 id="path348" /></g></g></g><path
           d="M 528.755,146.375 H 383.932 V 351.2 h 144.823 z"
           style="fill:#ffffff;fill-opacity:1;fill-rule:nonzero;stroke:none"
           id="path354" /></g></g><text
       transform="scale(1,-1)"
       style="font-variant:normal;font-weight:bold;font-stretch:normal;font-size:13.8321px;font-family:'League Spartan';-inkscape-font-specification:LeagueSpartan-Bold;writing-mode:lr-tb;fill:#000000;fill-opacity:1;fill-rule:nonzero;stroke:none;stroke-width:1.15268"
       id="text358"
       x="399.31619"
       y="-260.83917"><tspan
         x="399.31619 408.69577 417.0365 426.15048 439.77509 448.04669 453.51035 460.39877 464.57602 471.36761"
         y="-260.83917"
         sodipodi:role="line"
         id="tspan356"
         style="stroke-width:1.15268">geometric.</tspan></text><g
       id="g360"
       transform="matrix(1.1526746,0,0,1.1526746,-58.945133,66.017458)"><g
         id="g362"
         clip-path="url(#clipPath366)"><path
           d="m 474.399,351.2 h 54.349 v -54.349 h -54.349 z"
           style="fill:#5f14d0;fill-opacity:1;fill-rule:nonzero;stroke:none"
           id="path368" /><path
           d="M 420.051,351.2 H 474.4 v -54.349 h -54.349 z"
           style="fill:#24476d;fill-opacity:1;fill-rule:nonzero;stroke:none"
           id="path370" /><path
           d="M 420.051,351.2 H 474.4 v -54.349 h -54.349 z"
           style="fill:#ffdb00;fill-opacity:1;fill-rule:nonzero;stroke:none"
           id="path372" /><path
           d="m 383.924,351.2 h 36.127 v -54.349 h -36.127 z"
           style="fill:#ffdb00;fill-opacity:1;fill-rule:nonzero;stroke:none"
           id="path374" /><path
           d="m 528.748,242.503 h -36.127 v 54.349 h 36.127 z"
           style="fill:#ffdb00;fill-opacity:1;fill-rule:nonzero;stroke:none"
           id="path376" /><path
           d="m 438.272,188.588 h -54.349 v 53.915 h 54.349 z"
           style="fill:#f59e1b;fill-opacity:1;fill-rule:nonzero;stroke:none"
           id="path378" /><path
           d="m 492.621,188.588 h -54.349 v 53.915 h 54.349 z"
           style="fill:#f20066;fill-opacity:1;fill-rule:nonzero;stroke:none"
           id="path380" /><path
           d="m 528.748,188.588 h -36.127 v 53.915 h 36.127 z"
           style="fill:#ffdb00;fill-opacity:1;fill-rule:nonzero;stroke:none"
           id="path382" /><g
           id="g384"
           transform="translate(492.6211,242.5029)"><path
             d="M 0,0 H 36.127 L 1.183,-39.067 0,-40.495 Z"
             style="fill:#22bdd3;fill-opacity:1;fill-rule:nonzero;stroke:none"
             id="path386" /></g><g
           id="g388"
           transform="translate(528.7549,188.5879)"><path
             d="M 0,0 C 0,9.98 -8.09,18.071 -18.07,18.071 -28.051,18.071 -36.142,9.98 -36.142,0 Z"
             style="fill:#f59e1b;fill-opacity:1;fill-rule:nonzero;stroke:none"
             id="path390" /></g><g
           id="g392"
           transform="translate(502.2012,218.2344)"><path
             d="M 0,0 C -2.653,5.055 -0.706,11.303 4.349,13.955 9.402,16.608 15.65,14.661 18.304,9.606 20.956,4.553 19.01,-1.695 13.955,-4.349 8.9,-7.001 2.652,-5.055 0,0"
             style="fill:#5f14d0;fill-opacity:1;fill-rule:nonzero;stroke:none"
             id="path394" /></g><path
           d="m 383.841,242.503 h 54.349 v 54.349 h -54.349 z"
           style="fill:#f20066;fill-opacity:1;fill-rule:nonzero;stroke:none"
           id="path396" /><g
           id="g398"
           transform="translate(438.2285,242.499)"><path
             d="M 0,0 C -30.016,0 -54.349,24.333 -54.349,54.349 H 0 Z"
             style="fill:#5f14d0;fill-opacity:1;fill-rule:nonzero;stroke:none"
             id="path400" /></g><g
           id="g402"
           transform="translate(438.1895,269.6777)"><path
             d="M 0,0 C -15.008,0 -27.175,12.166 -27.175,27.174 H 0 Z"
             style="fill:#ffdb00;fill-opacity:1;fill-rule:nonzero;stroke:none"
             id="path404" /></g><path
           d="m 492.591,242.512 h -54.349 v 54.349 h 54.349 z"
           style="fill:#5f14d0;fill-opacity:1;fill-rule:nonzero;stroke:none"
           id="path406" /><g
           id="g408"
           transform="translate(438.2266,242.5078)"><path
             d="M 0,0 C 30.016,0 54.349,24.333 54.349,54.349 H 0 Z"
             style="fill:#ff9a00;fill-opacity:1;fill-rule:nonzero;stroke:none"
             id="path410" /></g><g
           id="g412"
           transform="translate(438.1895,269.6802)"><path
             d="M 0,0 C 15.008,0 27.174,12.167 27.174,27.174 H 0 Z"
             style="fill:#22bdd3;fill-opacity:1;fill-rule:nonzero;stroke:none"
             id="path414" /></g><g
           id="g416"
           transform="translate(465.4463,296.8516)"><path
             d="M 0,0 C 0,14.917 -12.092,27.01 -27.01,27.01 -41.927,27.01 -54.02,14.917 -54.02,0 Z"
             style="fill:#f20066;fill-opacity:1;fill-rule:nonzero;stroke:none"
             id="path418" /></g><g
           id="g420"
           transform="translate(474.3994,315.1016)"><path
             d="M 0,0 -54.349,36.099 H 0 Z"
             style="fill:#34c1d5;fill-opacity:1;fill-rule:nonzero;stroke:none"
             id="path422" /></g><path
           d="m 383.924,351.2 h 19.464 v -54.349 h -19.464 z"
           style="fill:#f20066;fill-opacity:1;fill-rule:nonzero;stroke:none"
           id="path424" /><g
           id="g426"
           transform="translate(383.9239,296.8516)"><path
             d="M 0,0 9.731,9.083 19.464,0 Z"
             style="fill:#34c1d5;fill-opacity:1;fill-rule:nonzero;stroke:none"
             id="path428" /></g><g
           id="g430"
           transform="translate(383.9239,305.8149)"><path
             d="M 0,0 9.731,9.083 19.464,0 Z"
             style="fill:#5f14d0;fill-opacity:1;fill-rule:nonzero;stroke:none"
             id="path432" /></g><g
           id="g434"
           transform="translate(383.9239,314.8384)"><path
             d="M 0,0 9.731,9.083 19.464,0 Z"
             style="fill:#34c1d5;fill-opacity:1;fill-rule:nonzero;stroke:none"
             id="path436" /></g><g
           id="g438"
           transform="translate(383.9239,323.8018)"><path
             d="M 0,0 9.731,9.083 19.464,0 Z"
             style="fill:#5f14d0;fill-opacity:1;fill-rule:nonzero;stroke:none"
             id="path440" /></g><g
           id="g442"
           transform="translate(383.9239,332.8848)"><path
             d="M 0,0 9.731,9.083 19.464,0 Z"
             style="fill:#34c1d5;fill-opacity:1;fill-rule:nonzero;stroke:none"
             id="path444" /></g><g
           id="g446"
           transform="translate(383.9239,341.8481)"><path
             d="M 0,0 9.731,9.083 19.464,0 Z"
             style="fill:#5f14d0;fill-opacity:1;fill-rule:nonzero;stroke:none"
             id="path448" /></g><g
           id="g450"
           transform="translate(528.7549,296.8516)"><path
             d="m 0,0 v 27.174 h -9.854 c 0,-9.569 -7.758,-17.326 -17.328,-17.326 -9.568,0 -17.326,7.757 -17.326,17.326 h -9.847 V 0 Z"
             style="fill:#ff9a00;fill-opacity:1;fill-rule:nonzero;stroke:none"
             id="path452" /></g><g
           id="g454"
           transform="translate(501.5733,341.3525)"><path
             d="M 0,0 C -9.568,0 -17.326,-7.757 -17.326,-17.327 H 17.327 C 17.327,-7.757 9.569,0 0,0"
             style="fill:#f20066;fill-opacity:1;fill-rule:nonzero;stroke:none"
             id="path456" /></g><g
           id="g458"
           transform="translate(501.5733,306.6992)"><path
             d="M 0,0 C 9.569,0 17.327,7.757 17.327,17.327 H -17.326 C -17.326,7.757 -9.568,0 0,0"
             style="fill:#5f14d0;fill-opacity:1;fill-rule:nonzero;stroke:none"
             id="path460" /></g><g
           id="g462"
           transform="translate(438.1895,242.5029)"><path
             d="M 0,0 27.257,-26.957 54.401,0.009 Z"
             style="fill:#ffdb00;fill-opacity:1;fill-rule:nonzero;stroke:none"
             id="path464" /></g><g
           id="g466"
           transform="translate(438.2461,215.5762)"><path
             d="M 0,0 27.258,-26.958 54.401,0.009 Z"
             style="fill:#5f14d0;fill-opacity:1;fill-rule:nonzero;stroke:none"
             id="path468" /></g><g
           id="g470"
           transform="translate(383.8409,242.5029)"><path
             d="M 0,0 27.258,-26.957 H 0 Z"
             style="fill:#ffdb00;fill-opacity:1;fill-rule:nonzero;stroke:none"
             id="path472" /></g><g
           id="g474"
           transform="translate(383.9239,215.5459)"><path
             d="M 0,0 27.258,-26.958 H 0 Z"
             style="fill:#5f14d0;fill-opacity:1;fill-rule:nonzero;stroke:none"
             id="path476" /></g><g
           id="g478"
           transform="translate(410.9727,242.5029)"><path
             d="M 0,0 27.258,-26.957 H 0 Z"
             style="fill:#f20066;fill-opacity:1;fill-rule:nonzero;stroke:none"
             id="path480" /></g><g
           id="g482"
           transform="translate(410.9961,215.5498)"><path
             d="M 0,0 27.258,-26.958 H 0 Z"
             style="fill:#22bdd3;fill-opacity:1;fill-rule:nonzero;stroke:none"
             id="path484" /></g><g
           id="g486"
           transform="translate(492.6211,296.8516)"><path
             d="M 0,0 C 19.973,0 36.164,-16.191 36.164,-36.164 H 0 Z"
             style="fill:#f20066;fill-opacity:1;fill-rule:nonzero;stroke:none"
             id="path488" /></g><path
           d="m 528.723,242.5 h -36.134 v 18.176 h 36.134 z"
           style="fill:#f20066;fill-opacity:1;fill-rule:nonzero;stroke:none"
           id="path490" /><g
           id="g492"><g
             id="g494" /><g
             id="g504"><g
               clip-path="url(#clipPath498)"
               opacity="0.300003"
               id="g502"><path
                 d="M 695.352,142.486 H 550.529 v 204.826 h 144.823 z"
                 style="fill:#a3a3a3;fill-opacity:1;fill-rule:nonzero;stroke:none"
                 id="path500" /></g></g></g><path
           d="M 691.464,146.375 H 546.64 V 351.2 h 144.824 z"
           style="fill:#ffffff;fill-opacity:1;fill-rule:nonzero;stroke:none"
           id="path506" /></g></g><text
       transform="scale(1,-1)"
       style="font-variant:normal;font-weight:bold;font-stretch:normal;font-size:13.8321px;font-family:'League Spartan';-inkscape-font-specification:LeagueSpartan-Bold;writing-mode:lr-tb;fill:#000000;fill-opacity:1;fill-rule:nonzero;stroke:none;stroke-width:1.15268"
       id="text510"
       x="587.18811"
       y="-438.43658"><tspan
         x="587.18811 596.56763 604.90845 614.0224 627.64703 635.91858 641.38226 648.27063 652.44794 659.2395"
         y="-438.43658"
         sodipodi:role="line"
         id="tspan508"
         style="stroke-width:1.15268">geometric.</tspan></text><g
       id="g512"
       transform="matrix(1.1526746,0,0,1.1526746,-58.945133,66.017458)"><g
         id="g514"
         clip-path="url(#clipPath518)"><path
           d="m 600.995,146.208 h -54.348 v 54.119 h 54.348 z"
           style="fill:#f20066;fill-opacity:1;fill-rule:nonzero;stroke:none"
           id="path520" /><path
           d="m 655.344,146.208 h -54.349 v 54.119 h 54.349 z"
           style="fill:#24476d;fill-opacity:1;fill-rule:nonzero;stroke:none"
           id="path522" /><path
           d="m 655.344,146.208 h -54.349 v 54.119 h 54.349 z"
           style="fill:#f59e1b;fill-opacity:1;fill-rule:nonzero;stroke:none"
           id="path524" /><path
           d="m 691.471,146.208 h -36.127 v 54.119 h 36.127 z"
           style="fill:#f59e1b;fill-opacity:1;fill-rule:nonzero;stroke:none"
           id="path526" /><path
           d="m 637.122,254.446 h 54.349 v -54.119 h -54.349 z"
           style="fill:#5f14d0;fill-opacity:1;fill-rule:nonzero;stroke:none"
           id="path528" /><path
           d="m 582.774,254.446 h 54.348 v -54.119 h -54.348 z"
           style="fill:#22bdd3;fill-opacity:1;fill-rule:nonzero;stroke:none"
           id="path530" /><path
           d="m 546.648,254.446 h 36.127 v -54.119 h -36.127 z"
           style="fill:#5f14d0;fill-opacity:1;fill-rule:nonzero;stroke:none"
           id="path532" /><path
           d="m 637.122,308.134 h 54.349 v -53.688 h -54.349 z"
           style="fill:#ffdb00;fill-opacity:1;fill-rule:nonzero;stroke:none"
           id="path534" /><path
           d="m 582.774,308.134 h 54.348 v -53.688 h -54.348 z"
           style="fill:#5f14d0;fill-opacity:1;fill-rule:nonzero;stroke:none"
           id="path536" /><g
           id="g538"
           transform="translate(637.2061,254.4458)"><path
             d="M 0,0 C 30.016,0 54.349,-24.23 54.349,-54.119 H 0 Z"
             style="fill:#f20066;fill-opacity:1;fill-rule:nonzero;stroke:none"
             id="path540" /></g><g
           id="g542"
           transform="translate(609.9483,200.3271)"><path
             d="m 0,0 c 0,-14.854 12.093,-26.896 27.01,-26.896 14.917,0 27.01,12.042 27.01,26.896 z"
             style="fill:#5f14d0;fill-opacity:1;fill-rule:nonzero;stroke:none"
             id="path544" /></g><path
           d="m 691.471,146.208 h -19.463 v 54.119 h 19.463 z"
           style="fill:#5f14d0;fill-opacity:1;fill-rule:nonzero;stroke:none"
           id="path546" /><g
           id="g548"
           transform="translate(691.4708,200.3271)"><path
             d="M 0,0 -9.731,-9.045 -19.463,0 Z"
             style="fill:#22bdd3;fill-opacity:1;fill-rule:nonzero;stroke:none"
             id="path550" /></g><g
           id="g552"
           transform="translate(691.4708,191.4014)"><path
             d="M 0,0 -9.731,-9.045 -19.463,0 Z"
             style="fill:#f59e1b;fill-opacity:1;fill-rule:nonzero;stroke:none"
             id="path554" /></g><g
           id="g556"
           transform="translate(691.4708,182.416)"><path
             d="M 0,0 -9.731,-9.045 -19.463,0 Z"
             style="fill:#22bdd3;fill-opacity:1;fill-rule:nonzero;stroke:none"
             id="path558" /></g><g
           id="g560"
           transform="translate(691.4708,173.4912)"><path
             d="M 0,0 -9.731,-9.045 -19.463,0 Z"
             style="fill:#f59e1b;fill-opacity:1;fill-rule:nonzero;stroke:none"
             id="path562" /></g><g
           id="g564"
           transform="translate(691.4708,164.4463)"><path
             d="M 0,0 -9.731,-9.045 -19.463,0 Z"
             style="fill:#22bdd3;fill-opacity:1;fill-rule:nonzero;stroke:none"
             id="path566" /></g><g
           id="g568"
           transform="translate(691.4708,155.5205)"><path
             d="M 0,0 -9.731,-9.045 -19.463,0 Z"
             style="fill:#f59e1b;fill-opacity:1;fill-rule:nonzero;stroke:none"
             id="path570" /></g><path
           d="m 664.246,281.29 h -27.174 v 26.844 h 27.174 z"
           style="fill:#ff9a00;fill-opacity:1;fill-rule:nonzero;stroke:none"
           id="path572" /><path
           d="m 691.471,254.446 h -27.174 v 26.844 h 27.174 z"
           style="fill:#22bdd3;fill-opacity:1;fill-rule:nonzero;stroke:none"
           id="path574" /><path
           d="M 664.38,254.446 H 637.206 V 281.29 H 664.38 Z"
           style="fill:#f20066;fill-opacity:1;fill-rule:nonzero;stroke:none"
           id="path576" /><g
           id="g578"
           transform="translate(573.8214,150.7979)"><path
             d="M 0,0 C 12.442,0 22.565,10.079 22.565,22.47 22.565,34.859 12.442,44.939 0,44.939 -12.442,44.939 -22.565,34.859 -22.565,22.47 -22.565,10.079 -12.442,0 0,0 M 0,49.529 C 14.984,49.529 27.175,37.391 27.175,22.47 27.175,7.549 14.984,-4.59 0,-4.59 c -14.984,0 -27.175,12.139 -27.175,27.06 0,14.921 12.191,27.059 27.175,27.059"
             style="fill:#ffdb00;fill-opacity:1;fill-rule:nonzero;stroke:none"
             id="path580" /></g><g
           id="g582"
           transform="translate(559.2208,173.2676)"><path
             d="m 0,0 c 0,8.029 6.537,14.539 14.601,14.539 8.063,0 14.6,-6.51 14.6,-14.539 0,-8.03 -6.537,-14.539 -14.6,-14.539 C 6.537,-14.539 0,-8.03 0,0"
             style="fill:#5f14d0;fill-opacity:1;fill-rule:nonzero;stroke:none"
             id="path584" /></g><path
           d="m 546.648,308.134 h 36.127 v -53.689 h -36.127 z"
           style="fill:#34c1d5;fill-opacity:1;fill-rule:nonzero;stroke:none"
           id="path586" /><path
           d="m 595.281,296.176 h 29.334 v -29.209 h -29.334 z"
           style="fill:#ff9a00;fill-opacity:1;fill-rule:nonzero;stroke:none"
           id="path588" /><g
           id="g590"
           transform="translate(637.1221,254.4458)"><path
             d="M 0,0 -54.348,53.688 H 0 Z"
             style="fill:#ffdb00;fill-opacity:1;fill-rule:nonzero;stroke:none"
             id="path592" /></g><path
           d="m 564.711,308.134 h 18.063 v -53.689 h -18.063 z"
           style="fill:#f20066;fill-opacity:1;fill-rule:nonzero;stroke:none"
           id="path594" /><g
           id="g596"
           transform="translate(691.5547,254.4458)"><path
             d="M 0,0 -0.084,26.844 H -27.175 Z"
             style="fill:#5f14d0;fill-opacity:1;fill-rule:nonzero;stroke:none"
             id="path598" /></g><g
           id="g600"
           transform="translate(664.3585,281.29)"><path
             d="M 0,0 -0.083,26.844 H -27.174 Z"
             style="fill:#22bdd3;fill-opacity:1;fill-rule:nonzero;stroke:none"
             id="path602" /></g><g
           id="g604"
           transform="translate(582.7813,227.3867)"><path
             d="M 0,0 27.113,27.113 -0.007,27.058"
             style="fill:#ffdb00;fill-opacity:1;fill-rule:nonzero;stroke:none"
             id="path606" /></g><g
           id="g608"
           transform="translate(637.2061,227.0312)"><path
             d="M 0,0 C 14.78,0 26.762,-11.981 26.762,-26.762 H 0 Z"
             style="fill:#ffdb00;fill-opacity:1;fill-rule:nonzero;stroke:none"
             id="path610" /></g><path
           d="m 672.008,146.208 h -71.012 v 21.542 h 71.012 z"
           style="fill:#22bdd3;fill-opacity:1;fill-rule:nonzero;stroke:none"
           id="path612" /><g
           id="g614"
           transform="translate(643.9395,156.9785)"><path
             d="m 0,0 c 0,-4.107 -3.33,-7.437 -7.437,-7.437 -4.108,0 -7.438,3.33 -7.438,7.437 0,4.108 3.33,7.437 7.438,7.437 C -3.33,7.437 0,4.108 0,0"
             style="fill:#f20066;fill-opacity:1;fill-rule:nonzero;stroke:none"
             id="path616" /></g><g
           id="g618"
           transform="translate(665.4112,156.9785)"><path
             d="m 0,0 c 0,-4.107 -3.33,-7.437 -7.437,-7.437 -4.108,0 -7.438,3.33 -7.438,7.437 0,4.108 3.33,7.437 7.438,7.437 C -3.33,7.437 0,4.108 0,0"
             style="fill:#5f14d0;fill-opacity:1;fill-rule:nonzero;stroke:none"
             id="path620" /></g><g
           id="g622"
           transform="translate(622.4678,156.9785)"><path
             d="m 0,0 c 0,-4.107 -3.33,-7.437 -7.437,-7.437 -4.108,0 -7.438,3.33 -7.438,7.437 0,4.108 3.33,7.437 7.438,7.437 C -3.33,7.437 0,4.108 0,0"
             style="fill:#ffdb00;fill-opacity:1;fill-rule:nonzero;stroke:none"
             id="path624" /></g><g
           id="g626"
           transform="translate(546.6475,200.3271)"><path
             d="M 0,0 18.063,54.118 36.127,0 Z"
             style="fill:#ff9a00;fill-opacity:1;fill-rule:nonzero;stroke:none"
             id="path628" /></g></g></g></g></svg>
