<?xml version="1.0" encoding="UTF-8" standalone="no"?>
<svg
   xmlns:dc="http://purl.org/dc/elements/1.1/"
   xmlns:cc="http://creativecommons.org/ns#"
   xmlns:rdf="http://www.w3.org/1999/02/22-rdf-syntax-ns#"
   xmlns:svg="http://www.w3.org/2000/svg"
   xmlns="http://www.w3.org/2000/svg"
   xmlns:sodipodi="http://sodipodi.sourceforge.net/DTD/sodipodi-0.dtd"
   xmlns:inkscape="http://www.inkscape.org/namespaces/inkscape"
   version="1.1"
   id="svg2"
   xml:space="preserve"
   width="2266.6667"
   height="1693.3333"
   viewBox="0 0 2266.6667 1693.3333"
   sodipodi:docname="payment.svg"
   inkscape:version="1.0.1 (0767f8302a, 2020-10-17)"><metadata
     id="metadata8"><rdf:RDF><cc:Work
         rdf:about=""><dc:format>image/svg+xml</dc:format><dc:type
           rdf:resource="http://purl.org/dc/dcmitype/StillImage" /><dc:title></dc:title></cc:Work></rdf:RDF></metadata><defs
     id="defs6" /><sodipodi:namedview
     pagecolor="#ffffff"
     bordercolor="#666666"
     borderopacity="1"
     objecttolerance="10"
     gridtolerance="10"
     guidetolerance="10"
     inkscape:pageopacity="0"
     inkscape:pageshadow="2"
     inkscape:window-width="1920"
     inkscape:window-height="1013"
     id="namedview4"
     showgrid="false"
     inkscape:zoom="0.42283467"
     inkscape:cx="1133.3334"
     inkscape:cy="846.66663"
     inkscape:window-x="0"
     inkscape:window-y="27"
     inkscape:window-maximized="1"
     inkscape:current-layer="g12" /><g
     id="g10"
     inkscape:groupmode="layer"
     inkscape:label="ink_ext_XXXXXX"
     transform="matrix(1.3333333,0,0,-1.3333333,0,1693.3333)"><g
       id="g12"
       transform="scale(0.1)"><path
         d="m 14439.1,5993.99 29.8,-143.21 137.1,-221.9 -138.7,-2256.23 743.4,166.56 -0.7,2157.25 37.8,112.77 179.3,387.38 55.8,150.32 -105.9,303.69 c -242.7,-49.83 -724.5,-148.63 -884.2,-180.46 l -53.7,-476.17"
         style="fill:#ba8278;fill-opacity:1;fill-rule:nonzero;stroke:none"
         id="path18" /><path
         d="m 14240.3,6579.83 -0.3,0.17 c 0,0 0,-1.07 0.3,-0.17"
         style="fill:#ba8278;fill-opacity:1;fill-rule:nonzero;stroke:none"
         id="path20" /><path
         d="m 9470,3280 -290.3,2556.23 313.81,807.22 c -43.98,159.95 -78.62,322.51 -129.05,480.67 -17.76,55.71 -22.43,71.57 -74.33,88.12 -32.53,10.39 -64.99,21.01 -97.5,31.52 -170.58,55.12 -341.15,110.25 -511.74,165.37 -6.27,2.02 -105.73,37.85 -107.48,34.73 -43.93,-77.64 -97.55,-154.44 -133.97,-234.93 -37.7,-83.32 -70.71,-168.93 -105.44,-253.5 -18.81,-46.56 -30.83,-72.71 -24.31,-119.33 6.84,-48.78 106.27,-545.02 123.71,-647.26 L 8641.18,5904.03 8530,3350 l 940,-70"
         style="fill:#f6cba8;fill-opacity:1;fill-rule:nonzero;stroke:none"
         id="path22" /><path
         d="m 8599.58,5864.14 c 0,0 348.16,-162.3 617.14,-52.86 l 12.39,-102.43 c 0,0 -279.31,-188.1 -653.4,-11.91 l 23.87,167.2"
         style="fill:#48454b;fill-opacity:1;fill-rule:nonzero;stroke:none"
         id="path24" /><path
         d="M 9570,4570 8436.96,4656.99 8147.55,0 H 9920 l -350,4570"
         style="fill:#2a629d;fill-opacity:1;fill-rule:nonzero;stroke:none"
         id="path26" /><path
         d="m 8225.11,1199.8 1605.05,-21.5 -14.47,181.5 H 8234.46 l -9.35,-160"
         style="fill:#a6d2df;fill-opacity:1;fill-rule:nonzero;stroke:none"
         id="path28" /><path
         d="m 8254.68,1706.3 1535.28,-23.5 -12.05,151.4 -1515.26,8.6 -7.97,-136.5"
         style="fill:#a6d2df;fill-opacity:1;fill-rule:nonzero;stroke:none"
         id="path30" /><path
         d="m 8291.43,2164.4 1473.59,-42.9 -12.03,151.1 -1452.63,44.7 -8.93,-152.9"
         style="fill:#a6d2df;fill-opacity:1;fill-rule:nonzero;stroke:none"
         id="path32" /><path
         d="m 8319.01,2636.8 1408.54,-44.8 -15.04,188.75 -1384.37,12.41 -9.13,-156.36"
         style="fill:#a6d2df;fill-opacity:1;fill-rule:nonzero;stroke:none"
         id="path34" /><path
         d="m 8347.28,3120.91 h 1338.14 l -19.18,240.82 h -1304.9 l -14.06,-240.82"
         style="fill:#a6d2df;fill-opacity:1;fill-rule:nonzero;stroke:none"
         id="path36" /><path
         d="m 8381.48,3706.7 1259.58,-28.95 -18.04,226.59 h -1230 l -11.54,-197.64"
         style="fill:#a6d2df;fill-opacity:1;fill-rule:nonzero;stroke:none"
         id="path38" /><path
         d="m 8413.97,4263.33 1181.77,-16.52 -15.3,192.12 -1153.65,43.84 -12.82,-219.44"
         style="fill:#a6d2df;fill-opacity:1;fill-rule:nonzero;stroke:none"
         id="path40" /><path
         d="m 6184.77,5526.5 c -5.56,25.95 -18.44,48.33 -45.6,62.28 -23.44,12.04 -76.79,30.97 -103.08,32.61 -54.18,3.38 -78.49,-42.68 -129.59,-60.48 -46.8,-16.3 -45.01,12.53 -82.74,36.45 -67.57,42.85 -134.31,23.11 -179.87,-41.47 0,0 -135.77,104.92 -240.51,-43.55 0,0 -106.9,81.93 -186.37,-61.16 -35.67,-64.24 -0.83,-226.23 8.41,-296.35 23.03,-175.01 63.82,-355.83 122.19,-522.63 11.61,-33.19 72.33,-110.47 70.72,-142.97 -8.35,-167.47 -16.69,-334.95 -25.04,-502.42 -4.07,-81.85 -25.07,-181.31 -13.07,-262.55 6,-40.67 -5.51,-32.02 41.35,-57.47 85.3,-46.35 194.53,-64.93 290.36,-68.65 83.97,-3.27 168.52,7.02 249.02,31.28 42.86,12.91 90.05,35.47 101.03,78.86 5.46,21.59 0.59,44.22 -2.68,66.24 -30.23,203.47 -88.53,399.07 -132.46,603.22 l 237.85,349.76 0.03,0.9 c 3.82,135.17 7.64,270.33 11.46,405.5 2.52,88.96 5.03,177.94 7.54,266.91 1.1,38.9 9.47,86.4 1.05,125.69"
         style="fill:#e1ae84;fill-opacity:1;fill-rule:nonzero;stroke:none"
         id="path42" /><path
         d="m 6470,1610 -419.97,2433.05 103.25,6.68 v 167.65 H 5147.51 l 59.49,-228.87 83.2,5.38 L 4953.52,1477.7 5080,20 h 1750 l -360,1590"
         style="fill:#fbc958;fill-opacity:1;fill-rule:nonzero;stroke:none"
         id="path44" /><path
         d="m 15603.8,0 -1543.1,20 350.2,5092.77 875.7,-45.76 L 15603.8,0"
         style="fill:#c15f53;fill-opacity:1;fill-rule:nonzero;stroke:none"
         id="path46" /><path
         d="m 14060.2,20 -10.2,1651.6 v 1127.89 l 63.4,674.02 c 0,0 218.4,508.94 232.5,522.69 14.1,13.76 831.2,123.8 831.2,123.8 l 232.5,-82.53 288.8,-839.07 91.6,-825.3 30,-693.1 36.8,-662.5 -63.4,-997.5 h -1733.2"
         style="fill:#c15f53;fill-opacity:1;fill-rule:nonzero;stroke:none"
         id="path48" /><path
         d="m 14460,4090 h 50 l 40,910 h -70 l -20,-910"
         style="fill:#a85248;fill-opacity:1;fill-rule:nonzero;stroke:none"
         id="path50" /><path
         d="m 14610,4090 h 50 l 50,910 -70,-20 -30,-890"
         style="fill:#a85248;fill-opacity:1;fill-rule:nonzero;stroke:none"
         id="path52" /><path
         d="m 14830,5000 -40,-910 38.2,-22.52 71.8,932.52 h -70"
         style="fill:#a85248;fill-opacity:1;fill-rule:nonzero;stroke:none"
         id="path54" /><path
         d="m 14900,4075.97 30,14.03 110,880 h -40 l -100,-894.03"
         style="fill:#a85248;fill-opacity:1;fill-rule:nonzero;stroke:none"
         id="path56" /><path
         d="m 15090,4120 h 40 l 40,850 h -46 l -34,-850"
         style="fill:#a85248;fill-opacity:1;fill-rule:nonzero;stroke:none"
         id="path58" /><path
         d="m 15230,4970 v -820 h 40 v 820 h -40"
         style="fill:#a85248;fill-opacity:1;fill-rule:nonzero;stroke:none"
         id="path60" /><path
         d="m 12665.8,3876.72 -29.6,211.37 -460.6,115.52 -24.8,-152.81 194.8,-147.27 -195.6,-33.53 -540,100 V 3740 L 11763.5,3298.39 11500,230 h 910 l -59.7,3055.38 341,409.54 -25.5,181.8"
         style="fill:#faba81;fill-opacity:1;fill-rule:nonzero;stroke:none"
         id="path62" /><path
         d="M 12651,0 12544.6,2573.2 11452.4,2716.72 10995.4,0 H 12651"
         style="fill:#d9f3fb;fill-opacity:1;fill-rule:nonzero;stroke:none"
         id="path64" /><path
         d="m 11295.3,266.199 c 0,35 -28.4,63.403 -63.4,63.403 -35.1,0 -63.5,-28.403 -63.5,-63.403 0,-35.097 28.4,-63.5 63.5,-63.5 35,0 63.4,28.403 63.4,63.5"
         style="fill:#ffffff;fill-opacity:1;fill-rule:nonzero;stroke:none"
         id="path66" /><path
         d="m 11638.2,590.199 c 0,35 -28.5,63.403 -63.5,63.403 -35.1,0 -63.5,-28.403 -63.5,-63.403 0,-35.097 28.4,-63.5 63.5,-63.5 35,0 63.5,28.403 63.5,63.5"
         style="fill:#ffffff;fill-opacity:1;fill-rule:nonzero;stroke:none"
         id="path68" /><path
         d="m 12101.9,918.602 c 0,35.097 -28.4,63.5 -63.5,63.5 -35.1,0 -63.5,-28.403 -63.5,-63.5 0,-35 28.4,-63.403 63.5,-63.403 35.1,0 63.5,28.403 63.5,63.403"
         style="fill:#ffffff;fill-opacity:1;fill-rule:nonzero;stroke:none"
         id="path70" /><path
         d="m 11512.6,1082.9 c 0,35 -28.4,63.4 -63.5,63.4 -35,0 -63.4,-28.4 -63.4,-63.4 0,-35.1 28.4,-63.5 63.4,-63.5 35.1,0 63.5,28.4 63.5,63.5"
         style="fill:#ffffff;fill-opacity:1;fill-rule:nonzero;stroke:none"
         id="path72" /><path
         d="m 11976.3,1478.9 c 0,35.1 -28.4,63.5 -63.5,63.5 -35,0 -63.4,-28.4 -63.4,-63.5 0,-35 28.4,-63.4 63.4,-63.4 35.1,0 63.5,28.4 63.5,63.4"
         style="fill:#ffffff;fill-opacity:1;fill-rule:nonzero;stroke:none"
         id="path74" /><path
         d="m 12435.9,185.801 c 0,35.097 -28.4,63.5 -63.5,63.5 -35,0 -63.4,-28.403 -63.4,-63.5 0,-35 28.4,-63.399 63.4,-63.399 35.1,0 63.5,28.399 63.5,63.399"
         style="fill:#ffffff;fill-opacity:1;fill-rule:nonzero;stroke:none"
         id="path76" /><path
         d="m 12038.3,353.801 c 0,35.101 -28.4,63.5 -63.4,63.5 -35.1,0 -63.5,-28.399 -63.5,-63.5 0,-35.102 28.4,-63.5 63.5,-63.5 35,0 63.4,28.398 63.4,63.5"
         style="fill:#ffffff;fill-opacity:1;fill-rule:nonzero;stroke:none"
         id="path78" /><path
         d="m 12501.7,672.301 c 0,35 -28.4,63.398 -63.5,63.398 -35,0 -63.4,-28.398 -63.4,-63.398 0,-35.102 28.4,-63.5 63.4,-63.5 35.1,0 63.5,28.398 63.5,63.5"
         style="fill:#ffffff;fill-opacity:1;fill-rule:nonzero;stroke:none"
         id="path80" /><path
         d="m 12511.7,1300.5 c 0,35.1 -28.4,63.5 -63.5,63.5 -35,0 -63.4,-28.4 -63.4,-63.5 0,-35 28.4,-63.4 63.4,-63.4 35.1,0 63.5,28.4 63.5,63.4"
         style="fill:#ffffff;fill-opacity:1;fill-rule:nonzero;stroke:none"
         id="path82" /><path
         d="m 11545.6,1773.9 c 0,35 -28.4,63.5 -63.4,63.5 -35.1,0 -63.5,-28.5 -63.5,-63.5 0,-35.1 28.4,-63.5 63.5,-63.5 35,0 63.4,28.4 63.4,63.5"
         style="fill:#ffffff;fill-opacity:1;fill-rule:nonzero;stroke:none"
         id="path84" /><path
         d="m 12318.5,1899.5 c 0,35 -28.4,63.4 -63.5,63.4 -35,0 -63.4,-28.4 -63.4,-63.4 0,-35.1 28.4,-63.5 63.4,-63.5 35.1,0 63.5,28.4 63.5,63.5"
         style="fill:#ffffff;fill-opacity:1;fill-rule:nonzero;stroke:none"
         id="path86" /><path
         d="m 11893.4,2189.3 c 0,35 -28.4,63.5 -63.4,63.5 -35.1,0 -63.5,-28.5 -63.5,-63.5 0,-35.1 28.4,-63.5 63.5,-63.5 35,0 63.4,28.4 63.4,63.5"
         style="fill:#ffffff;fill-opacity:1;fill-rule:nonzero;stroke:none"
         id="path88" /><path
         d="m 12347.5,2305.2 c 0,35.1 -28.4,63.5 -63.5,63.5 -35,0 -63.5,-28.4 -63.5,-63.5 0,-35 28.5,-63.4 63.5,-63.4 35.1,0 63.5,28.4 63.5,63.4"
         style="fill:#ffffff;fill-opacity:1;fill-rule:nonzero;stroke:none"
         id="path90" /><path
         d="m 11442.4,2677.5 -129.4,163.36 h -212.6 l 87,212.54 183.5,96.6 c 0,0 106.3,0 125.6,-48.3 19.3,-48.3 150.9,-124.33 150.9,-124.33 l 177.6,-117.18 164.2,57.95 106.3,28.99 115.9,-96.6 126.1,-63.95 96.1,83.26 115.9,48.3 154.6,-38.64 115.9,-144.9 -19.3,-115.9 -144.9,-164.3 -109.4,94 -238.4,2.6 -280.2,29 -210.9,97.5 -194.8,-0.9 -179.7,0.9"
         style="fill:#ffffff;fill-opacity:1;fill-rule:nonzero;stroke:none"
         id="path92" /><path
         d="m 11670.2,2534 c 0,35.1 -28.4,63.5 -63.4,63.5 -35.1,0 -63.5,-28.4 -63.5,-63.5 0,-35 28.4,-63.4 63.5,-63.4 35,0 63.4,28.4 63.4,63.4"
         style="fill:#ffffff;fill-opacity:1;fill-rule:nonzero;stroke:none"
         id="path94" /><path
         d="m 12665.8,4396.72 -29.6,211.37 -460.6,115.52 -24.8,-152.81 194.8,-147.27 345.7,-208.61 -25.5,181.8"
         style="fill:#faba81;fill-opacity:1;fill-rule:nonzero;stroke:none"
         id="path96" /><path
         d="m 3320,6510 -90,510 -180,370 -320,70 -180,-210 c 0,0 -100,-150 -100,-170 0,-20 0,-570 0,-570 l 30,-310 h 450 c 0,0 300,140 310,140 10,0 80,170 80,170"
         style="fill:#eb9f7c;fill-opacity:1;fill-rule:nonzero;stroke:none"
         id="path98" /><path
         d="m 2970.41,2866.71 c 2.44,225.41 -6.62,3079.11 44.68,3158.54 70.36,108.94 314.29,312.73 324.01,327.65 l -20.22,199.52 -677.14,-258.25 c 0,0 -244.45,338.72 -242.39,330.38 l -3.35,1.73 375.44,129.15 -115.04,156.2 -510.84,-72.86 -63.5,-206.05 33.74,-286.79 c 51.36,-98.33 102.73,-196.67 154.09,-295 28.73,-54.98 71.19,-106.11 86.78,-166.12 23.78,-91.52 -457.82,-2658.55 -519.27,-3128.33 l 1133.01,110.23"
         style="fill:#eb9f7c;fill-opacity:1;fill-rule:nonzero;stroke:none"
         id="path100" /><path
         d="M 3270,0 H 1520 l -61.12,1663.3 620.8,3421.42 L 3149.99,4709.86 3050.51,1661.1 3270,0"
         style="fill:#1f3450;fill-opacity:1;fill-rule:nonzero;stroke:none"
         id="path102" /><path
         d="M 11053.1,6067.01 9194.74,5322.99 c -40.04,-16.03 -88.27,10.36 -107.72,58.95 L 7607.83,9076.53 c -19.46,48.6 -2.77,100.98 37.27,117.01 l 1858.36,744.02 c 40.03,16.03 88.26,-10.36 107.71,-58.95 l 1479.23,-3694.6 c 19.4,-48.58 2.7,-100.96 -37.3,-117"
         style="fill:#25465f;fill-opacity:1;fill-rule:nonzero;stroke:none"
         id="path104" /><path
         d="M 9081.65,5695.09 7758.25,9000.57 9550.61,9718.18 10874,6412.69 9081.65,5695.09 m 422.49,1038.07 -526.75,-210.9 105.47,-263.45 526.76,210.9 -105.48,263.45 m 749.26,297.17 -526.78,-210.89 105.48,-263.44 526.8,210.89 -105.5,263.44 m -7.9,400.36 -1405.28,-562.63 105.48,-263.45 1405.3,562.63 -105.5,263.45 m -135.3,340.99 -1405.23,-562.63 105.48,-263.45 1405.25,562.63 -105.5,263.45 m -1807.95,604.45 -27.47,-11.08 296.7,-735.19 27.45,11.08 -296.68,735.19 m 122.79,49.56 -37.57,-15.16 296.69,-735.2 37.57,15.16 -296.69,735.2 m 109.7,44.26 -72.14,-29.11 296.7,-735.19 72.13,29.11 -296.69,735.19 m 115.68,46.69 -37.57,-15.16 296.7,-735.19 37.56,15.16 -296.69,735.19 m 77.13,31.12 -55.66,-22.46 296.68,-735.19 55.67,22.47 -296.69,735.18 m 140.5,56.7 -59.03,-23.81 296.69,-735.2 59.02,23.83 -296.68,735.18 m 53.66,21.66 -26.83,-10.83 296.69,-735.19 26.83,10.83 -296.69,735.19 m 68.17,27.51 -26.82,-10.83 296.68,-735.19 26.83,10.83 -296.69,735.19 m 53.67,21.65 -26.83,-10.82 296.69,-735.19 26.82,10.83 -296.68,735.18 m 153.63,62 -75.25,-30.36 296.69,-735.19 75.25,30.37 -296.69,735.18 m 100.37,40.51 -34.41,-13.88 296.7,-735.19 34.4,13.88 -296.69,735.19 m 96.59,38.99 -69.76,-28.16 296.69,-735.19 69.76,28.15 -296.69,735.2 m 94.6,38.17 -26.83,-10.83 296.69,-735.18 26.84,10.81 -296.7,735.2 m 132.57,53.5 -58.54,-23.63 296.69,-735.19 58.54,23.62 -296.69,735.2 m -170.17,525 -1405.27,-562.63 70.06,-175 1405.28,562.62 -70.07,175.01"
         style="fill:#e7ecec;fill-opacity:1;fill-rule:nonzero;stroke:none"
         id="path106" /><path
         d="m 10222.2,5901.83 -376.9,-150.89 -24.06,60.1 376.86,150.88 24.1,-60.09"
         style="fill:#ffffff;fill-opacity:1;fill-rule:nonzero;stroke:none"
         id="path108" /><path
         d="m 8945.7,6604.61 -105.48,263.45 1405.28,562.63 105.5,-263.45 -1405.3,-562.63"
         style="fill:#fefeff;fill-opacity:1;fill-rule:nonzero;stroke:none"
         id="path110" /><path
         d="m 8810.45,6945.6 -105.48,263.45 1405.23,562.63 105.5,-263.45 -1405.25,-562.63"
         style="fill:#fefeff;fill-opacity:1;fill-rule:nonzero;stroke:none"
         id="path112" /><path
         d="m 8115.93,8695.82 -70.06,175 1405.27,562.63 70.07,-175.01 -1405.28,-562.62"
         style="fill:#cdcccb;fill-opacity:1;fill-rule:nonzero;stroke:none"
         id="path114" /><path
         d="m 9082.86,6258.81 -105.47,263.45 526.75,210.9 105.48,-263.45 -526.76,-210.9"
         style="fill:#fefeff;fill-opacity:1;fill-rule:nonzero;stroke:none"
         id="path116" /><path
         d="m 9832.1,6556 -105.48,263.44 526.78,210.89 105.5,-263.44 L 9832.1,6556"
         style="fill:#fefeff;fill-opacity:1;fill-rule:nonzero;stroke:none"
         id="path118" /><path
         d="m 8430,6190 -280,270 -30,630 510,360 110,-240 -300,-400 200,-340 -210,-280"
         style="fill:#f6cba8;fill-opacity:1;fill-rule:nonzero;stroke:none"
         id="path120" /><path
         d="M 4178.6,6762.56 1667.42,6497.02 c -52.05,-5.49 -99.16,32.87 -104.7,85.26 l -166.21,1571.84 c -5.54,52.39 32.51,99.77 84.55,105.27 l 2511.19,265.53 c 52.04,5.5 99.16,-32.86 104.7,-85.25 l 166.21,-1571.84 c 5.54,-52.4 -32.51,-99.76 -84.56,-105.27"
         style="fill:#768ea9;fill-opacity:1;fill-rule:nonzero;stroke:none"
         id="path122" /><path
         d="m 1676.83,6529.41 c 586.67,122.12 1870.01,466.58 2457.72,1259.93 l 94.5,-893.73 c 5.54,-52.41 -32.51,-99.77 -84.55,-105.28 L 1676.83,6529.41"
         style="fill:#627a97;fill-opacity:1;fill-rule:nonzero;stroke:none"
         id="path124" /><path
         d="m 2063.22,7349.33 -405.01,-42.84 c -18.52,-1.95 -35.28,11.61 -37.24,30.13 l -30.29,286.46 c -1.96,18.52 11.6,35.28 30.12,37.24 l 405.01,42.82 c 18.53,1.97 35.29,-11.59 37.25,-30.11 l 30.28,-286.46 c 1.97,-18.52 -11.59,-35.29 -30.12,-37.24"
         style="fill:#e8be54;fill-opacity:1;fill-rule:nonzero;stroke:none"
         id="path126" /><path
         d="m 2090.2,7416.4 -15.29,144.58 c -103.43,-122.61 -308.47,-198.86 -435.02,-236.35 12.8,-10.97 29.81,-16.92 47.73,-15.02 l 346.2,36.6 c 34.7,3.67 60.07,35.25 56.38,70.19"
         style="fill:#cea144;fill-opacity:1;fill-rule:nonzero;stroke:none"
         id="path128" /><path
         d="m 2201.75,7066.4 -546.1,-57.75 -18.47,174.65 546.1,57.74 18.47,-174.64"
         style="fill:#c6c2c0;fill-opacity:1;fill-rule:nonzero;stroke:none"
         id="path130" /><path
         d="m 2810.88,7130.81 -546.09,-57.75 -18.47,174.65 546.1,57.74 18.46,-174.64"
         style="fill:#c6c2c0;fill-opacity:1;fill-rule:nonzero;stroke:none"
         id="path132" /><path
         d="m 3420.02,7195.21 -546.1,-57.74 -18.47,174.65 546.1,57.74 18.47,-174.65"
         style="fill:#c6c2c0;fill-opacity:1;fill-rule:nonzero;stroke:none"
         id="path134" /><path
         d="m 4029.16,7259.63 -546.1,-57.75 -18.47,174.65 546.1,57.75 18.47,-174.65"
         style="fill:#c6c2c0;fill-opacity:1;fill-rule:nonzero;stroke:none"
         id="path136" /><path
         d="m 1747.31,7857.59 c -15.9,-20.95 -40.79,-34.11 -66.53,-36.84 -53.5,-5.65 -101.81,33.68 -107.5,87.53 -5.69,53.87 33.32,102.43 86.81,108.09 25.49,2.69 52.84,-4.94 72.49,-21.88 l -11.35,-13.27 c -20,15.35 -40.33,19.37 -59.26,17.36 -43.65,-4.62 -75.7,-44.22 -71.02,-88.42 4.64,-43.96 44.29,-76.24 87.95,-71.62 19.18,2.03 37.46,10.12 54.31,29.37 l 14.1,-10.32"
         style="fill:#f8f8f9;fill-opacity:1;fill-rule:nonzero;stroke:none"
         id="path138" /><path
         d="m 1747.31,7857.59 c -15.9,-20.95 -40.79,-34.11 -66.53,-36.84 -53.5,-5.65 -101.81,33.68 -107.5,87.53 -5.69,53.87 33.32,102.43 86.81,108.09 25.49,2.69 52.84,-4.94 72.49,-21.88 l -11.35,-13.27 c -20,15.35 -40.33,19.37 -59.26,17.36 -43.65,-4.62 -75.7,-44.22 -71.02,-88.42 4.64,-43.96 44.29,-76.24 87.95,-71.62 19.18,2.03 37.46,10.12 54.31,29.37 z"
         style="fill:none;stroke:#f8f8f9;stroke-width:10;stroke-linecap:butt;stroke-linejoin:miter;stroke-miterlimit:10;stroke-dasharray:none;stroke-opacity:1"
         id="path140" /><path
         d="m 1787.27,7938.11 39.11,4.14 c 19.18,2.02 33.41,19.45 31.37,38.76 -2.04,19.3 -19.63,33.63 -38.8,31.61 l -39.12,-4.14 z m -6.84,-104.25 -20.15,190.53 56.79,6.01 c 29.01,3.07 55.26,-18.31 58.35,-47.52 2.39,-22.62 -10.55,-45.05 -31.27,-54.17 l 52.61,-82.55 -19.93,-2.11 -50.84,80.17 -36.84,-3.9 8.95,-84.6 -17.67,-1.86"
         style="fill:#f8f8f9;fill-opacity:1;fill-rule:nonzero;stroke:none"
         id="path142" /><path
         d="m 1787.27,7938.11 39.11,4.14 c 19.18,2.02 33.41,19.45 31.37,38.76 -2.04,19.3 -19.63,33.63 -38.8,31.61 l -39.12,-4.14 z m -6.84,-104.25 -20.15,190.53 56.79,6.01 c 29.01,3.07 55.26,-18.31 58.35,-47.52 2.39,-22.62 -10.55,-45.05 -31.27,-54.17 l 52.61,-82.55 -19.93,-2.11 -50.84,80.17 -36.84,-3.9 8.95,-84.6 z"
         style="fill:none;stroke:#f8f8f9;stroke-width:10;stroke-linecap:butt;stroke-linejoin:miter;stroke-miterlimit:10;stroke-dasharray:none;stroke-opacity:1"
         id="path144" /><path
         d="m 1919.62,8023.26 5.64,-53.35 68.14,7.21 1.88,-17.78 -68.14,-7.21 8.87,-83.84 77.98,8.24 1.88,-17.78 -96.4,-10.19 -20.15,190.53 96.4,10.2 1.88,-17.79 -77.98,-8.24"
         style="fill:#f8f8f9;fill-opacity:1;fill-rule:nonzero;stroke:none"
         id="path146" /><path
         d="m 1919.62,8023.26 5.64,-53.35 68.14,7.21 1.88,-17.78 -68.14,-7.21 8.87,-83.84 77.98,8.24 1.88,-17.78 -96.4,-10.19 -20.15,190.53 96.4,10.2 1.88,-17.79 z"
         style="fill:none;stroke:#f8f8f9;stroke-width:10;stroke-linecap:butt;stroke-linejoin:miter;stroke-miterlimit:10;stroke-dasharray:none;stroke-opacity:1"
         id="path148" /><path
         d="m 2064.45,7881.87 24.73,2.61 c 48.71,5.16 77.04,36.41 71.75,86.46 -5.3,50.05 -39.43,73.67 -88.14,68.51 l -24.73,-2.61 z m -15.78,-19.65 -20.15,190.53 42.39,4.49 c 58.55,6.19 101.37,-24.73 107.68,-84.44 6.32,-59.69 -28.98,-99.91 -87.53,-106.1 l -42.39,-4.48"
         style="fill:#f8f8f9;fill-opacity:1;fill-rule:nonzero;stroke:none"
         id="path150" /><path
         d="m 2064.45,7881.87 24.73,2.61 c 48.71,5.16 77.04,36.41 71.75,86.46 -5.3,50.05 -39.43,73.67 -88.14,68.51 l -24.73,-2.61 z m -15.78,-19.65 -20.15,190.53 42.39,4.49 c 58.55,6.19 101.37,-24.73 107.68,-84.44 6.32,-59.69 -28.98,-99.91 -87.53,-106.1 z"
         style="fill:none;stroke:#f8f8f9;stroke-width:10;stroke-linecap:butt;stroke-linejoin:miter;stroke-miterlimit:10;stroke-dasharray:none;stroke-opacity:1"
         id="path152" /><path
         d="m 2236.66,7882.1 -17.67,-1.87 -20.14,190.54 17.66,1.87 20.15,-190.54"
         style="fill:#f8f8f9;fill-opacity:1;fill-rule:nonzero;stroke:none"
         id="path154" /><path
         d="m 2236.66,7882.1 -17.67,-1.87 -20.14,190.54 17.66,1.87 z"
         style="fill:none;stroke:#f8f8f9;stroke-width:10;stroke-linecap:butt;stroke-linejoin:miter;stroke-miterlimit:10;stroke-dasharray:none;stroke-opacity:1"
         id="path156" /><path
         d="m 2355.42,8069.34 -49.47,-5.23 18.27,-172.75 -17.66,-1.87 -18.27,172.76 -49.72,-5.27 -1.88,17.79 116.85,12.36 1.88,-17.79"
         style="fill:#f8f8f9;fill-opacity:1;fill-rule:nonzero;stroke:none"
         id="path158" /><path
         d="m 2355.42,8069.34 -49.47,-5.23 18.27,-172.75 -17.66,-1.87 -18.27,172.76 -49.72,-5.27 -1.88,17.79 116.85,12.36 z"
         style="fill:none;stroke:#f8f8f9;stroke-width:10;stroke-linecap:butt;stroke-linejoin:miter;stroke-miterlimit:10;stroke-dasharray:none;stroke-opacity:1"
         id="path160" /><path
         d="m 2623.43,7950.22 c -15.91,-20.94 -40.8,-34.11 -66.54,-36.83 -53.5,-5.66 -101.8,33.68 -107.5,87.54 -5.69,53.86 33.32,102.42 86.82,108.07 25.48,2.7 52.83,-4.94 72.49,-21.87 l -11.36,-13.27 c -20,15.35 -40.32,19.36 -59.25,17.36 -43.66,-4.61 -75.7,-44.22 -71.03,-88.43 4.65,-43.94 44.3,-76.23 87.95,-71.62 19.18,2.03 37.46,10.13 54.31,29.39 l 14.11,-10.34"
         style="fill:#f8f8f9;fill-opacity:1;fill-rule:nonzero;stroke:none"
         id="path162" /><path
         d="m 2623.43,7950.22 c -15.91,-20.94 -40.8,-34.11 -66.54,-36.83 -53.5,-5.66 -101.8,33.68 -107.5,87.54 -5.69,53.86 33.32,102.42 86.82,108.07 25.48,2.7 52.83,-4.94 72.49,-21.87 l -11.36,-13.27 c -20,15.35 -40.32,19.36 -59.25,17.36 -43.66,-4.61 -75.7,-44.22 -71.03,-88.43 4.65,-43.94 44.3,-76.23 87.95,-71.62 19.18,2.03 37.46,10.13 54.31,29.39 z"
         style="fill:none;stroke:#f8f8f9;stroke-width:10;stroke-linecap:butt;stroke-linejoin:miter;stroke-miterlimit:10;stroke-dasharray:none;stroke-opacity:1"
         id="path164" /><path
         d="m 2687.21,8008.1 73.44,7.76 -44.76,73.36 z m 27.42,117.2 110.74,-180.95 -19.43,-2.06 -34.83,56.69 -90.6,-9.58 -21.95,-62.69 -19.68,-2.08 70.7,200.15 5.05,0.52"
         style="fill:#f8f8f9;fill-opacity:1;fill-rule:nonzero;stroke:none"
         id="path166" /><path
         d="m 2687.21,8008.1 73.44,7.76 -44.76,73.36 z m 27.42,117.2 110.74,-180.95 -19.43,-2.06 -34.83,56.69 -90.6,-9.58 -21.95,-62.69 -19.68,-2.08 70.7,200.15 z"
         style="fill:none;stroke:#f8f8f9;stroke-width:10;stroke-linecap:butt;stroke-linejoin:miter;stroke-miterlimit:10;stroke-dasharray:none;stroke-opacity:1"
         id="path168" /><path
         d="m 2854.91,8051 39.11,4.14 c 19.18,2.02 33.41,19.46 31.37,38.77 -2.04,19.3 -19.63,33.62 -38.81,31.6 l -39.11,-4.14 z m -6.84,-104.25 -20.15,190.54 56.78,6 c 29.02,3.07 55.27,-18.3 58.36,-47.52 2.39,-22.62 -10.55,-45.05 -31.28,-54.17 l 52.62,-82.55 -19.93,-2.11 -50.84,80.17 -36.84,-3.9 8.94,-84.6 -17.66,-1.86"
         style="fill:#f8f8f9;fill-opacity:1;fill-rule:nonzero;stroke:none"
         id="path170" /><path
         d="m 2854.91,8051 39.11,4.14 c 19.18,2.02 33.41,19.46 31.37,38.77 -2.04,19.3 -19.63,33.62 -38.81,31.6 l -39.11,-4.14 z m -6.84,-104.25 -20.15,190.54 56.78,6 c 29.02,3.07 55.27,-18.3 58.36,-47.52 2.39,-22.62 -10.55,-45.05 -31.28,-54.17 l 52.62,-82.55 -19.93,-2.11 -50.84,80.17 -36.84,-3.9 8.94,-84.6 z"
         style="fill:none;stroke:#f8f8f9;stroke-width:10;stroke-linecap:butt;stroke-linejoin:miter;stroke-miterlimit:10;stroke-dasharray:none;stroke-opacity:1"
         id="path172" /><path
         d="m 3002.89,7981.1 24.73,2.62 c 48.7,5.15 77.04,36.4 71.75,86.45 -5.29,50.04 -39.43,73.67 -88.13,68.51 l -24.74,-2.61 z m -15.79,-19.64 -20.14,190.53 42.4,4.48 c 58.54,6.19 101.36,-24.73 107.68,-84.43 6.31,-59.71 -28.99,-99.91 -87.54,-106.1 l -42.4,-4.48"
         style="fill:#f8f8f9;fill-opacity:1;fill-rule:nonzero;stroke:none"
         id="path174" /><path
         d="m 3002.89,7981.1 24.73,2.62 c 48.7,5.15 77.04,36.4 71.75,86.45 -5.29,50.04 -39.43,73.67 -88.13,68.51 l -24.74,-2.61 z m -15.79,-19.64 -20.14,190.53 42.4,4.48 c 58.54,6.19 101.36,-24.73 107.68,-84.43 6.31,-59.71 -28.99,-99.91 -87.54,-106.1 z"
         style="fill:none;stroke:#f8f8f9;stroke-width:10;stroke-linecap:butt;stroke-linejoin:miter;stroke-miterlimit:10;stroke-dasharray:none;stroke-opacity:1"
         id="path176" /><path
         d="m 3427.49,8086.23 c -5.89,55.69 16.68,107.75 55.85,141.69 -28.1,15.46 -60.94,22.85 -95.18,19.23 -89.56,-9.47 -154.44,-90.25 -144.9,-180.4 9.53,-90.17 89.87,-155.59 179.43,-146.12 34.23,3.63 64.81,17.72 89.05,38.72 -45.41,24.99 -78.36,71.18 -84.25,126.88"
         style="fill:#e82029;fill-opacity:1;fill-rule:nonzero;stroke:none"
         id="path178" /><path
         d="m 3611.73,8105.7 c -5.89,55.71 16.67,107.77 55.85,141.7 -28.1,15.46 -60.94,22.85 -95.18,19.23 -34.24,-3.62 -64.81,-17.71 -89.06,-38.71 45.41,-24.99 78.36,-71.18 84.26,-126.88 5.89,-55.7 -16.68,-107.76 -55.86,-141.69 28.1,-15.47 60.95,-22.86 95.18,-19.23 34.24,3.61 64.82,17.71 89.06,38.71 -45.41,24.99 -78.36,71.18 -84.25,126.87"
         style="fill:#fccb08;fill-opacity:1;fill-rule:nonzero;stroke:none"
         id="path180" /><path
         d="m 3567.6,8101.04 c -5.9,55.7 -38.85,101.89 -84.26,126.88 -39.17,-33.94 -61.74,-86 -55.85,-141.69 5.89,-55.7 38.84,-101.89 84.25,-126.88 39.18,33.93 61.75,85.99 55.86,141.69"
         style="fill:#f25a1e;fill-opacity:1;fill-rule:nonzero;stroke:none"
         id="path182" /><path
         d="m 3756.64,8286.11 c -34.24,-3.62 -64.81,-17.71 -89.06,-38.71 45.41,-24.99 78.36,-71.18 84.25,-126.88 5.89,-55.7 -16.67,-107.76 -55.85,-141.69 28.1,-15.47 60.94,-22.85 95.18,-19.23 89.56,9.46 154.44,90.23 144.91,180.4 -9.54,90.17 -89.87,155.59 -179.43,146.11"
         style="fill:#40b2c1;fill-opacity:1;fill-rule:nonzero;stroke:none"
         id="path184" /><path
         d="m 3751.83,8120.52 c -5.89,55.7 -38.84,101.89 -84.25,126.88 -39.18,-33.93 -61.74,-85.99 -55.85,-141.7 5.89,-55.69 38.84,-101.88 84.25,-126.87 39.18,33.93 61.74,85.99 55.85,141.69"
         style="fill:#4f5155;fill-opacity:1;fill-rule:nonzero;stroke:none"
         id="path186" /><path
         d="m 4047.91,7082.33 -1155.24,-122.15 -5.59,52.92 1155.23,122.15 5.6,-52.92"
         style="fill:#eeefef;fill-opacity:1;fill-rule:nonzero;stroke:none"
         id="path188" /><path
         d="m 4059.94,6968.54 -882.19,-93.28 -5.6,52.92 882.19,93.28 5.6,-52.92"
         style="fill:#c6c7c6;fill-opacity:1;fill-rule:nonzero;stroke:none"
         id="path190" /><path
         d="m 2066.88,7636.86 -1.34,12.69 -229.88,-24.31 -6.05,57.16 -12.61,-1.34 6.04,-57.15 -229.88,-24.31 1.35,-12.7 229.87,24.31 5.77,-54.47 -229.89,-24.31 1.34,-12.69 229.89,24.3 0.05,-0.47 6.71,1.21 c 2.31,0.37 56.02,9.58 65.31,-31.89 0.03,-0.12 2.63,-12.08 -5.37,-23.68 -8.56,-12.38 -25.72,-20.19 -51.03,-23.16 l -237.23,-25.08 1.34,-12.7 231.01,24.43 5.86,-55.48 -231,-24.43 1.35,-12.69 230.99,24.42 6.05,-57.16 12.61,1.33 -6.05,57.17 228.77,24.19 -1.34,12.69 -228.77,-24.19 -5.88,55.67 c 25.75,3.99 43.81,13.31 53.74,27.7 7.23,10.46 8.27,21.05 8.03,27.54 l 161.9,17.12 -1.34,12.7 -163.08,-17.25 c -11.37,33.16 -48.03,38.52 -71.38,36.24 l -5.74,54.28 229.88,24.31"
         style="fill:#eeefef;fill-opacity:1;fill-rule:nonzero;stroke:none"
         id="path192" /><path
         d="m 4047.91,7082.33 -5.6,52.92 -842.4,-89.07 c -45.71,-23.57 -91.77,-46.29 -138.03,-68.11 l 986.03,104.26"
         style="fill:#c6c7c6;fill-opacity:1;fill-rule:nonzero;stroke:none"
         id="path194" /><path
         d="m 4010.69,7434.28 -246.92,-26.12 C 3675,7336.18 3580.61,7269.31 3482.49,7207.29 l 0.57,-5.41 546.1,57.75 -18.47,174.65"
         style="fill:#979a9a;fill-opacity:1;fill-rule:nonzero;stroke:none"
         id="path196" /><path
         d="m 1429.73,8141.58 28.89,-273.22 c -5.08,116.78 23.68,375.11 370.58,411.79 l -314.91,-33.3 c -52.05,-5.5 -90.1,-52.88 -84.56,-105.27"
         style="fill:#acb4bb;fill-opacity:1;fill-rule:nonzero;stroke:none"
         id="path198" /><path
         d="m 2399.35,6624.56 -3.34,1.72 375.43,129.15 -115.04,156.2 -510.83,-72.86 -63.51,-206.05 33.74,-286.79 c 51.36,-98.33 102.73,-196.67 154.09,-295 28.72,-54.98 71.19,-106.12 86.78,-166.13 L 2510,6470 c 0,0 -112.71,162.9 -110.65,154.56"
         style="fill:#eb9f7c;fill-opacity:1;fill-rule:nonzero;stroke:none"
         id="path200" /><path
         d="m 7082.11,4956.99 -2616.7,472.52 c -54.23,9.8 -90.54,62.48 -80.68,117.08 l 295.77,1637.87 c 9.86,54.6 62.3,91.26 116.53,81.47 l 2616.7,-472.52 c 54.23,-9.8 90.54,-62.48 80.68,-117.07 L 7198.64,5038.46 c -9.86,-54.6 -62.3,-91.26 -116.53,-81.47"
         style="fill:#2e2d2d;fill-opacity:1;fill-rule:nonzero;stroke:none"
         id="path202" /><path
         d="m 7073.46,4993.55 c -5.82,0 -11.72,0.52 -17.63,1.59 l -2571.34,464.32 c 157.41,-12.42 362.89,-23.64 595.71,-23.64 697.56,0 1639.42,100.82 2260.33,572.07 l -168.17,-931.3 c -8.79,-48.64 -51.37,-83.04 -98.9,-83.04"
         style="fill:#222120;fill-opacity:1;fill-rule:nonzero;stroke:none"
         id="path204" /><path
         d="m 5118.74,6173.93 -425.56,76.85 c -18.34,3.31 -30.63,21.02 -27.32,39.35 l 54.54,302.03 c 3.31,18.33 21.02,30.62 39.36,27.31 l 425.56,-76.84 c 18.33,-3.31 30.62,-21.03 27.31,-39.36 l -54.54,-302.03 c -3.31,-18.33 -21.02,-30.62 -39.35,-27.31"
         style="fill:#e8be54;fill-opacity:1;fill-rule:nonzero;stroke:none"
         id="path206" /><path
         d="m 5164.02,6234.09 27.21,150.66 c -140.72,-93.42 -370.48,-110 -509.47,-110.56 9.71,-14.86 25.14,-25.89 43.82,-29.27 l 360.75,-65.13 c 36.16,-6.54 71.12,17.91 77.69,54.3"
         style="fill:#cea144;fill-opacity:1;fill-rule:nonzero;stroke:none"
         id="path208" /><path
         d="m 5173.52,5847.39 -569.05,102.76 32.86,181.99 569.05,-102.77 -32.86,-181.98"
         style="fill:#c6c2c0;fill-opacity:1;fill-rule:nonzero;stroke:none"
         id="path210" /><path
         d="m 5808.25,5732.77 -569.05,102.76 32.87,181.99 569.04,-102.76 -32.86,-181.99"
         style="fill:#c6c2c0;fill-opacity:1;fill-rule:nonzero;stroke:none"
         id="path212" /><path
         d="m 6442.98,5618.15 -569.05,102.76 32.86,181.99 569.05,-102.76 -32.86,-181.99"
         style="fill:#c6c2c0;fill-opacity:1;fill-rule:nonzero;stroke:none"
         id="path214" /><path
         d="m 7077.71,5503.54 -569.05,102.75 32.86,181.99 569.05,-102.76 -32.86,-181.98"
         style="fill:#c6c2c0;fill-opacity:1;fill-rule:nonzero;stroke:none"
         id="path216" /><path
         d="m 4947.6,6781.22 c -22.25,-16.48 -51.3,-22.44 -78.12,-17.6 -55.74,10.06 -92.97,64.08 -82.83,120.2 10.13,56.12 63.89,93.7 119.64,83.63 26.56,-4.79 51.95,-20.58 66.82,-43.49 l -15.4,-10.07 c -15.68,21.41 -35.04,31.47 -54.77,35.04 -45.49,8.21 -89.57,-22.38 -97.89,-68.43 -8.26,-45.8 22.29,-90.14 67.78,-98.35 19.98,-3.61 40.85,-0.82 63.56,13.67 l 11.21,-14.6"
         style="fill:#f8f8f9;fill-opacity:1;fill-rule:nonzero;stroke:none"
         id="path218" /><path
         d="m 4947.6,6781.22 c -22.25,-16.48 -51.3,-22.44 -78.12,-17.6 -55.74,10.06 -92.97,64.08 -82.83,120.2 10.13,56.12 63.89,93.7 119.64,83.63 26.56,-4.79 51.95,-20.58 66.82,-43.49 l -15.4,-10.07 c -15.68,21.41 -35.04,31.47 -54.77,35.04 -45.49,8.21 -89.57,-22.38 -97.89,-68.43 -8.26,-45.8 22.29,-90.14 67.78,-98.35 19.98,-3.61 40.85,-0.82 63.56,13.67 z"
         style="fill:none;stroke:#f8f8f9;stroke-width:10;stroke-linecap:butt;stroke-linejoin:miter;stroke-miterlimit:10;stroke-dasharray:none;stroke-opacity:1"
         id="path220" /><path
         d="m 5011.75,6850.82 40.76,-7.35 c 19.99,-3.62 39.52,9.81 43.15,29.93 3.63,20.12 -9.92,39.78 -29.91,43.39 l -40.76,7.36 z m -37.67,-103.35 35.85,198.54 59.17,-10.69 c 30.24,-5.46 50.46,-34.8 44.96,-65.25 -4.25,-23.56 -23.95,-42.41 -47.59,-45.53 l 28.83,-98.96 -20.77,3.75 -27.73,96.03 -38.4,6.93 -15.91,-88.15 -18.41,3.33"
         style="fill:#f8f8f9;fill-opacity:1;fill-rule:nonzero;stroke:none"
         id="path222" /><path
         d="m 5011.75,6850.82 40.76,-7.35 c 19.99,-3.62 39.52,9.81 43.15,29.93 3.63,20.12 -9.92,39.78 -29.91,43.39 l -40.76,7.36 z m -37.67,-103.35 35.85,198.54 59.17,-10.69 c 30.24,-5.46 50.46,-34.8 44.96,-65.25 -4.25,-23.56 -23.95,-42.41 -47.59,-45.53 l 28.83,-98.96 -20.77,3.75 -27.73,96.03 -38.4,6.93 -15.91,-88.15 z"
         style="fill:none;stroke:#f8f8f9;stroke-width:10;stroke-linecap:butt;stroke-linejoin:miter;stroke-miterlimit:10;stroke-dasharray:none;stroke-opacity:1"
         id="path224" /><path
         d="m 5170.66,6897.85 -10.04,-55.59 71,-12.83 -3.34,-18.52 -71,12.82 -15.78,-87.36 81.25,-14.68 -3.34,-18.53 -100.45,18.14 35.85,198.54 100.45,-18.13 -3.35,-18.54 -81.25,14.68"
         style="fill:#f8f8f9;fill-opacity:1;fill-rule:nonzero;stroke:none"
         id="path226" /><path
         d="m 5170.66,6897.85 -10.04,-55.59 71,-12.83 -3.34,-18.52 -71,12.82 -15.78,-87.36 81.25,-14.68 -3.34,-18.53 -100.45,18.14 35.85,198.54 100.45,-18.13 -3.35,-18.54 z"
         style="fill:none;stroke:#f8f8f9;stroke-width:10;stroke-linecap:butt;stroke-linejoin:miter;stroke-miterlimit:10;stroke-dasharray:none;stroke-opacity:1"
         id="path228" /><path
         d="m 5275.34,6712.2 25.77,-4.65 c 50.75,-9.17 88.61,14.06 98.03,66.21 9.41,52.15 -18.12,86.1 -68.87,95.26 l -25.77,4.66 z m -21.76,-15.21 35.86,198.55 44.17,-7.98 c 61.01,-11.02 95.17,-54.91 83.94,-117.12 -11.24,-62.21 -58.79,-92.44 -119.79,-81.43 l -44.18,7.98"
         style="fill:#f8f8f9;fill-opacity:1;fill-rule:nonzero;stroke:none"
         id="path230" /><path
         d="m 5275.34,6712.2 25.77,-4.65 c 50.75,-9.17 88.61,14.06 98.03,66.21 9.41,52.15 -18.12,86.1 -68.87,95.26 l -25.77,4.66 z m -21.76,-15.21 35.86,198.55 44.17,-7.98 c 61.01,-11.02 95.17,-54.91 83.94,-117.12 -11.24,-62.21 -58.79,-92.44 -119.79,-81.43 z"
         style="fill:none;stroke:#f8f8f9;stroke-width:10;stroke-linecap:butt;stroke-linejoin:miter;stroke-miterlimit:10;stroke-dasharray:none;stroke-opacity:1"
         id="path232" /><path
         d="m 5449.48,6661.62 -18.41,3.32 35.85,198.55 18.41,-3.33 -35.85,-198.54"
         style="fill:#f8f8f9;fill-opacity:1;fill-rule:nonzero;stroke:none"
         id="path234" /><path
         d="m 5449.48,6661.62 -18.41,3.32 35.85,198.55 18.41,-3.33 z"
         style="fill:none;stroke:#f8f8f9;stroke-width:10;stroke-linecap:butt;stroke-linejoin:miter;stroke-miterlimit:10;stroke-dasharray:none;stroke-opacity:1"
         id="path236" /><path
         d="m 5624.76,6815.85 -51.54,9.31 -32.5,-180.01 -18.41,3.32 32.51,180.01 -51.81,9.35 3.35,18.54 121.75,-22 -3.35,-18.52"
         style="fill:#f8f8f9;fill-opacity:1;fill-rule:nonzero;stroke:none"
         id="path238" /><path
         d="m 5624.76,6815.85 -51.54,9.31 -32.5,-180.01 -18.41,3.32 32.51,180.01 -51.81,9.35 3.35,18.54 121.75,-22 z"
         style="fill:none;stroke:#f8f8f9;stroke-width:10;stroke-linecap:butt;stroke-linejoin:miter;stroke-miterlimit:10;stroke-dasharray:none;stroke-opacity:1"
         id="path240" /><path
         d="m 5860.53,6616.37 c -22.25,-16.49 -51.3,-22.45 -78.12,-17.61 -55.75,10.07 -92.97,64.08 -82.83,120.2 10.13,56.13 63.89,93.71 119.64,83.64 26.56,-4.8 51.94,-20.59 66.81,-43.5 l -15.39,-10.07 c -15.68,21.42 -35.05,31.48 -54.77,35.04 -45.49,8.22 -89.57,-22.37 -97.89,-68.44 -8.27,-45.79 22.28,-90.12 67.78,-98.34 19.98,-3.6 40.85,-0.82 63.56,13.68 l 11.21,-14.6"
         style="fill:#f8f8f9;fill-opacity:1;fill-rule:nonzero;stroke:none"
         id="path242" /><path
         d="m 5860.53,6616.37 c -22.25,-16.49 -51.3,-22.45 -78.12,-17.61 -55.75,10.07 -92.97,64.08 -82.83,120.2 10.13,56.13 63.89,93.71 119.64,83.64 26.56,-4.8 51.94,-20.59 66.81,-43.5 l -15.39,-10.07 c -15.68,21.42 -35.05,31.48 -54.77,35.04 -45.49,8.22 -89.57,-22.37 -97.89,-68.44 -8.27,-45.79 22.28,-90.12 67.78,-98.34 19.98,-3.6 40.85,-0.82 63.56,13.68 z"
         style="fill:none;stroke:#f8f8f9;stroke-width:10;stroke-linecap:butt;stroke-linejoin:miter;stroke-miterlimit:10;stroke-dasharray:none;stroke-opacity:1"
         id="path244" /><path
         d="m 5942.08,6656.04 76.52,-13.82 -23.6,87.36 z m 62.3,110.4 58.54,-215.6 -20.24,3.66 -18.49,67.57 -94.4,17.05 -40.68,-56.89 -20.51,3.71 130.52,181.44 5.26,-0.94"
         style="fill:#f8f8f9;fill-opacity:1;fill-rule:nonzero;stroke:none"
         id="path246" /><path
         d="m 5942.08,6656.04 76.52,-13.82 -23.6,87.36 z m 62.3,110.4 58.54,-215.6 -20.24,3.66 -18.49,67.57 -94.4,17.05 -40.68,-56.89 -20.51,3.71 130.52,181.44 z"
         style="fill:none;stroke:#f8f8f9;stroke-width:10;stroke-linecap:butt;stroke-linejoin:miter;stroke-miterlimit:10;stroke-dasharray:none;stroke-opacity:1"
         id="path248" /><path
         d="m 6124.25,6649.93 40.75,-7.36 c 19.99,-3.61 39.52,9.81 43.15,29.93 3.64,20.12 -9.92,39.79 -29.9,43.4 l -40.76,7.36 z m -37.67,-103.36 35.85,198.55 59.16,-10.69 c 30.24,-5.47 50.47,-34.81 44.97,-65.25 -4.26,-23.56 -23.95,-42.42 -47.6,-45.53 l 28.84,-98.97 -20.77,3.76 -27.74,96.02 -38.39,6.94 -15.91,-88.15 -18.41,3.32"
         style="fill:#f8f8f9;fill-opacity:1;fill-rule:nonzero;stroke:none"
         id="path250" /><path
         d="m 6124.25,6649.93 40.75,-7.36 c 19.99,-3.61 39.52,9.81 43.15,29.93 3.64,20.12 -9.92,39.79 -29.9,43.4 l -40.76,7.36 z m -37.67,-103.36 35.85,198.55 59.16,-10.69 c 30.24,-5.47 50.47,-34.81 44.97,-65.25 -4.26,-23.56 -23.95,-42.42 -47.6,-45.53 l 28.84,-98.97 -20.77,3.76 -27.74,96.02 -38.39,6.94 -15.91,-88.15 z"
         style="fill:none;stroke:#f8f8f9;stroke-width:10;stroke-linecap:butt;stroke-linejoin:miter;stroke-miterlimit:10;stroke-dasharray:none;stroke-opacity:1"
         id="path252" /><path
         d="m 6253.21,6535.62 25.77,-4.65 c 50.75,-9.17 88.61,14.06 98.03,66.21 9.42,52.15 -18.12,86.1 -68.87,95.26 l -25.77,4.66 z m -21.75,-15.21 35.85,198.55 44.17,-7.98 c 61.01,-11.02 95.17,-54.92 83.94,-117.12 -11.24,-62.21 -58.78,-92.44 -119.79,-81.43 l -44.17,7.98"
         style="fill:#f8f8f9;fill-opacity:1;fill-rule:nonzero;stroke:none"
         id="path254" /><path
         d="m 6253.21,6535.62 25.77,-4.65 c 50.75,-9.17 88.61,14.06 98.03,66.21 9.42,52.15 -18.12,86.1 -68.87,95.26 l -25.77,4.66 z m -21.75,-15.21 35.85,198.55 44.17,-7.98 c 61.01,-11.02 95.17,-54.92 83.94,-117.12 -11.24,-62.21 -58.78,-92.44 -119.79,-81.43 z"
         style="fill:none;stroke:#f8f8f9;stroke-width:10;stroke-linecap:butt;stroke-linejoin:miter;stroke-miterlimit:10;stroke-dasharray:none;stroke-opacity:1"
         id="path256" /><path
         d="m 6713.42,6516.6 c 10.48,58.04 48.65,104.01 98.26,126.75 -23.84,23.92 -54.86,41.07 -90.53,47.52 -93.33,16.85 -182.74,-45.66 -199.7,-139.61 -16.97,-93.95 44.93,-183.78 138.26,-200.63 35.67,-6.44 70.73,-1.22 101.44,12.86 -38.53,38.66 -58.21,95.06 -47.73,153.11"
         style="fill:#e82029;fill-opacity:1;fill-rule:nonzero;stroke:none"
         id="path258" /><path
         d="m 6905.4,6481.93 c 10.48,58.04 48.64,104.01 98.26,126.75 -23.84,23.92 -54.86,41.08 -90.53,47.52 -35.68,6.45 -70.74,1.22 -101.45,-12.85 38.53,-38.66 58.21,-95.08 47.73,-153.12 -10.48,-58.03 -48.64,-104 -98.26,-126.74 23.84,-23.93 54.86,-41.09 90.53,-47.52 35.68,-6.45 70.74,-1.22 101.45,12.85 -38.54,38.66 -58.21,95.07 -47.73,153.11"
         style="fill:#fccb08;fill-opacity:1;fill-rule:nonzero;stroke:none"
         id="path260" /><path
         d="m 6859.41,6490.23 c 10.48,58.04 -9.2,114.46 -47.73,153.12 -49.61,-22.74 -87.78,-68.71 -98.26,-126.75 -10.48,-58.05 9.2,-114.45 47.73,-153.11 49.62,22.74 87.78,68.71 98.26,126.74"
         style="fill:#f25a1e;fill-opacity:1;fill-rule:nonzero;stroke:none"
         id="path262" /><path
         d="m 7105.1,6621.53 c -35.67,6.45 -70.73,1.21 -101.44,-12.85 38.53,-38.66 58.21,-95.08 47.73,-153.11 -10.48,-58.04 -48.65,-104.01 -98.26,-126.75 23.83,-23.93 54.86,-41.09 90.53,-47.52 93.33,-16.86 182.74,45.64 199.7,139.6 16.97,93.95 -44.93,183.78 -138.26,200.63"
         style="fill:#40b2c1;fill-opacity:1;fill-rule:nonzero;stroke:none"
         id="path264" /><path
         d="m 7051.39,6455.57 c 10.48,58.03 -9.2,114.45 -47.73,153.11 -49.62,-22.74 -87.78,-68.71 -98.26,-126.75 -10.48,-58.04 9.19,-114.45 47.73,-153.11 49.61,22.74 87.78,68.71 98.26,126.75"
         style="fill:#4f5155;fill-opacity:1;fill-rule:nonzero;stroke:none"
         id="path266" /><path
         d="m 7044.35,5318.79 -1203.78,217.37 9.96,55.15 1203.78,-217.37 -9.96,-55.15"
         style="fill:#eeefef;fill-opacity:1;fill-rule:nonzero;stroke:none"
         id="path268" /><path
         d="m 7022.93,5200.22 -919.25,166 9.96,55.15 919.26,-166 -9.97,-55.15"
         style="fill:#c6c7c6;fill-opacity:1;fill-rule:nonzero;stroke:none"
         id="path270" /><path
         d="m 5205.5,6463.81 2.39,13.23 -239.54,43.26 10.76,59.56 -13.15,2.38 -10.75,-59.56 -239.54,43.25 -2.39,-13.23 239.54,-43.26 -10.25,-56.75 -239.54,43.25 -2.4,-13.23 239.55,-43.26 -0.09,-0.49 7.14,-0.77 c 2.44,-0.3 59.45,-6.83 56.61,-51.49 -0.01,-0.13 -0.91,-13 -12.41,-22.35 -12.31,-10 -31.96,-12.82 -58.42,-8.35 l -247.19,44.63 -2.4,-13.23 240.71,-43.46 -10.44,-57.82 -240.7,43.47 -2.39,-13.23 240.7,-43.47 -10.75,-59.56 13.14,-2.37 10.75,59.56 238.38,-43.05 2.39,13.23 -238.37,43.05 10.46,58.01 c 27.22,-3.56 48.22,0.53 62.51,12.14 10.39,8.44 14.56,18.83 16.24,25.47 l 168.7,-30.46 2.39,13.23 -169.93,30.68 c -1.71,36.87 -37.19,53.11 -61.46,57.69 l 10.21,56.56 239.54,-43.26"
         style="fill:#eeefef;fill-opacity:1;fill-rule:nonzero;stroke:none"
         id="path272" /><path
         d="m 7044.35,5318.79 9.96,55.15 -877.8,158.51 c -53.16,-10.35 -106.42,-19.71 -159.62,-28.12 l 1027.46,-185.54"
         style="fill:#c6c7c6;fill-opacity:1;fill-rule:nonzero;stroke:none"
         id="path274" /><path
         d="m 7110.57,5685.52 -257.29,46.46 c -110.98,-46.57 -226.12,-86.32 -343.6,-120.05 l -1.02,-5.64 569.05,-102.75 32.86,181.98"
         style="fill:#979a9a;fill-opacity:1;fill-rule:nonzero;stroke:none"
         id="path276" /><path
         d="m 4710.38,7161.99 -51.41,-284.7 c 29.31,119.54 134.61,372.17 496.08,306.9 l -328.14,59.26 c -54.23,9.79 -106.67,-26.87 -116.53,-81.46"
         style="fill:#464648;fill-opacity:1;fill-rule:nonzero;stroke:none"
         id="path278" /><path
         d="m 6160,4730 200,260 -170,410 -190,90 -110,-180 130,-130 -100,-310 240,-140"
         style="fill:#e1ae84;fill-opacity:1;fill-rule:nonzero;stroke:none"
         id="path280" /><path
         d="m 13403.7,4001.09 -2517.6,-258.56 c -52.2,-5.36 -99.3,33.23 -104.7,85.76 l -161.8,1575.84 c -5.4,52.53 32.9,99.89 85,105.26 l 2517.6,258.55 c 52.2,5.35 99.3,-33.24 104.7,-85.76 l 161.8,-1575.85 c 5.4,-52.52 -32.8,-99.89 -85,-105.24"
         style="fill:#c02d32;fill-opacity:1;fill-rule:nonzero;stroke:none"
         id="path282" /><path
         d="m 10895.6,3774.95 c 588.4,120.62 1875.6,461.98 2467,1255.34 l 92,-896.02 c 5.4,-52.52 -32.8,-99.89 -85,-105.24 l -2474,-254.08"
         style="fill:#ab2326;fill-opacity:1;fill-rule:nonzero;stroke:none"
         id="path284" /><path
         d="m 11285.4,4595.54 -406.2,-41.71 c -18.5,-1.91 -35.2,11.7 -37.1,30.23 l -29.5,287.34 c -1.9,18.53 11.7,35.25 30.2,37.15 l 406.2,41.71 c 18.5,1.91 35.3,-11.7 37.2,-30.23 l 29.5,-287.33 c 1.9,-18.54 -11.7,-35.26 -30.3,-37.16"
         style="fill:#e8be54;fill-opacity:1;fill-rule:nonzero;stroke:none"
         id="path286" /><path
         d="m 11312.6,4662.67 -14.9,144.95 c -104,-122.57 -309.8,-198.37 -436.7,-235.56 12.8,-11.03 29.8,-17.05 47.8,-15.2 l 347.1,35.64 c 34.8,3.57 60.3,35.16 56.7,70.17"
         style="fill:#cea144;fill-opacity:1;fill-rule:nonzero;stroke:none"
         id="path288" /><path
         d="m 11423.3,4311.55 -547.5,-56.22 -17.9,175.09 547.5,56.23 17.9,-175.1"
         style="fill:#c6c2c0;fill-opacity:1;fill-rule:nonzero;stroke:none"
         id="path290" /><path
         d="m 12034,4374.28 -547.5,-56.23 -17.9,175.09 547.5,56.23 17.9,-175.09"
         style="fill:#c6c2c0;fill-opacity:1;fill-rule:nonzero;stroke:none"
         id="path292" /><path
         d="m 12644.7,4436.99 -547.5,-56.23 -18,175.1 547.5,56.23 18,-175.1"
         style="fill:#c6c2c0;fill-opacity:1;fill-rule:nonzero;stroke:none"
         id="path294" /><path
         d="m 13255.4,4499.71 -547.5,-56.22 -18,175.08 547.5,56.23 18,-175.09"
         style="fill:#c6c2c0;fill-opacity:1;fill-rule:nonzero;stroke:none"
         id="path296" /><path
         d="m 10970.3,5105.88 c -16,-20.95 -41,-34.06 -66.8,-36.72 -53.6,-5.51 -101.9,34.06 -107.5,88.06 -5.5,53.99 33.7,102.56 87.3,108.06 25.6,2.62 53,-5.11 72.6,-22.15 l -11.4,-13.27 c -20,15.45 -40.3,19.54 -59.3,17.59 -43.8,-4.49 -76,-44.09 -71.5,-88.42 4.6,-44.05 44.2,-76.53 88,-72.04 19.2,1.98 37.5,10.04 54.5,29.28 l 14.1,-10.39"
         style="fill:#f8f8f9;fill-opacity:1;fill-rule:nonzero;stroke:none"
         id="path298" /><path
         d="m 10970.3,5105.88 c -16,-20.95 -41,-34.06 -66.8,-36.72 -53.6,-5.51 -101.9,34.06 -107.5,88.06 -5.5,53.99 33.7,102.56 87.3,108.06 25.6,2.62 53,-5.11 72.6,-22.15 l -11.4,-13.27 c -20,15.45 -40.4,19.54 -59.3,17.59 -43.8,-4.49 -76,-44.09 -71.5,-88.42 4.6,-44.05 44.2,-76.53 88,-72.04 19.2,1.98 37.5,10.04 54.5,29.28 z"
         style="fill:none;stroke:#f8f8f9;stroke-width:10;stroke-linecap:butt;stroke-linejoin:miter;stroke-miterlimit:10;stroke-dasharray:none;stroke-opacity:1"
         id="path300" /><path
         d="m 11010.6,5186.46 39.2,4.03 c 19.2,1.97 33.5,19.4 31.5,38.76 -1.9,19.35 -19.5,33.77 -38.8,31.79 l -39.2,-4.03 z m -7.2,-104.46 -19.6,191.02 56.9,5.85 c 29.1,2.99 55.3,-18.51 58.4,-47.81 2.3,-22.66 -10.8,-45.1 -31.6,-54.19 l 52.5,-82.9 -20,-2.05 -50.7,80.5 -36.9,-3.79 8.7,-84.81 -17.7,-1.82"
         style="fill:#f8f8f9;fill-opacity:1;fill-rule:nonzero;stroke:none"
         id="path302" /><path
         d="m 11010.6,5186.46 39.2,4.03 c 19.2,1.97 33.5,19.4 31.5,38.76 -1.9,19.35 -19.5,33.77 -38.8,31.79 l -39.2,-4.03 z m -7.2,-104.46 -19.6,191.02 56.9,5.85 c 29.1,2.99 55.3,-18.51 58.4,-47.81 2.3,-22.66 -10.8,-45.1 -31.6,-54.19 l 52.5,-82.9 -20,-2.05 -50.7,80.5 -36.9,-3.79 8.7,-84.81 z"
         style="fill:none;stroke:#f8f8f9;stroke-width:10;stroke-linecap:butt;stroke-linejoin:miter;stroke-miterlimit:10;stroke-dasharray:none;stroke-opacity:1"
         id="path304" /><path
         d="m 11143.5,5271.41 5.5,-53.49 68.3,7.01 1.8,-17.82 -68.3,-7.02 8.6,-84.05 78.2,8.03 1.8,-17.83 -96.6,-9.92 -19.6,191.01 96.6,9.94 1.9,-17.84 -78.2,-8.02"
         style="fill:#f8f8f9;fill-opacity:1;fill-rule:nonzero;stroke:none"
         id="path306" /><path
         d="m 11143.5,5271.41 5.5,-53.49 68.3,7.01 1.8,-17.82 -68.3,-7.02 8.6,-84.05 78.2,8.03 1.8,-17.83 -96.6,-9.92 -19.6,191.01 96.6,9.94 1.8,-17.84 z"
         style="fill:none;stroke:#f8f8f9;stroke-width:10;stroke-linecap:butt;stroke-linejoin:miter;stroke-miterlimit:10;stroke-dasharray:none;stroke-opacity:1"
         id="path308" /><path
         d="m 11288.2,5129.27 24.8,2.55 c 48.8,5.01 77.3,36.25 72.2,86.42 -5.2,50.18 -39.3,73.95 -88.2,68.94 l -24.8,-2.55 z m -15.9,-19.65 -19.6,191.02 42.5,4.37 c 58.7,6.03 101.5,-25.1 107.7,-84.95 6.1,-59.85 -29.4,-100.05 -88.1,-106.08 l -42.5,-4.36"
         style="fill:#f8f8f9;fill-opacity:1;fill-rule:nonzero;stroke:none"
         id="path310" /><path
         d="m 11288.2,5129.27 24.8,2.55 c 48.8,5.01 77.3,36.25 72.2,86.42 -5.2,50.18 -39.3,73.95 -88.2,68.94 l -24.8,-2.55 z m -15.9,-19.65 -19.6,191.02 42.5,4.37 c 58.7,6.03 101.5,-25.1 107.7,-84.95 6.1,-59.85 -29.4,-100.05 -88.1,-106.08 z"
         style="fill:none;stroke:#f8f8f9;stroke-width:10;stroke-linecap:butt;stroke-linejoin:miter;stroke-miterlimit:10;stroke-dasharray:none;stroke-opacity:1"
         id="path312" /><path
         d="m 11460.8,5128.97 -17.7,-1.81 -19.6,191.01 17.7,1.83 19.6,-191.03"
         style="fill:#f8f8f9;fill-opacity:1;fill-rule:nonzero;stroke:none"
         id="path314" /><path
         d="m 11460.8,5128.97 -17.7,-1.81 -19.6,191.01 17.7,1.83 z"
         style="fill:none;stroke:#f8f8f9;stroke-width:10;stroke-linecap:butt;stroke-linejoin:miter;stroke-miterlimit:10;stroke-dasharray:none;stroke-opacity:1"
         id="path316" /><path
         d="m 11580.4,5316.27 -49.6,-5.09 17.8,-173.19 -17.7,-1.82 -17.8,173.2 -49.9,-5.12 -1.8,17.82 117.1,12.03 1.9,-17.83"
         style="fill:#f8f8f9;fill-opacity:1;fill-rule:nonzero;stroke:none"
         id="path318" /><path
         d="m 11580.4,5316.27 -49.6,-5.09 17.8,-173.19 -17.7,-1.82 -17.8,173.2 -49.9,-5.12 -1.8,17.82 117.1,12.03 z"
         style="fill:none;stroke:#f8f8f9;stroke-width:10;stroke-linecap:butt;stroke-linejoin:miter;stroke-miterlimit:10;stroke-dasharray:none;stroke-opacity:1"
         id="path320" /><path
         d="m 11848.6,5196.08 c -16,-20.94 -41,-34.06 -66.8,-36.71 -53.6,-5.51 -101.9,34.06 -107.4,88.05 -5.6,54 33.7,102.56 87.3,108.07 25.5,2.62 52.9,-5.12 72.6,-22.15 l -11.4,-13.27 c -20,15.45 -40.4,19.54 -59.4,17.59 -43.7,-4.5 -76,-44.1 -71.4,-88.42 4.5,-44.05 44.1,-76.53 87.9,-72.04 19.2,1.98 37.6,10.04 54.5,29.27 l 14.1,-10.39"
         style="fill:#f8f8f9;fill-opacity:1;fill-rule:nonzero;stroke:none"
         id="path322" /><path
         d="m 11848.6,5196.08 c -16,-20.94 -41,-34.06 -66.8,-36.71 -53.6,-5.51 -101.9,34.06 -107.4,88.05 -5.6,54 33.7,102.56 87.3,108.07 25.5,2.62 52.9,-5.12 72.6,-22.15 l -11.4,-13.27 c -20,15.45 -40.4,19.54 -59.4,17.59 -43.7,-4.5 -76,-44.1 -71.4,-88.42 4.5,-44.05 44.1,-76.53 87.9,-72.04 19.2,1.98 37.6,10.04 54.5,29.27 z"
         style="fill:none;stroke:#f8f8f9;stroke-width:10;stroke-linecap:butt;stroke-linejoin:miter;stroke-miterlimit:10;stroke-dasharray:none;stroke-opacity:1"
         id="path324" /><path
         d="m 11912.7,5253.89 73.7,7.56 -44.7,73.66 z m 27.9,117.39 110.4,-181.69 -19.5,-2 -34.7,56.91 -90.8,-9.32 -22.2,-62.77 -19.8,-2.02 71.5,200.37 5.1,0.52"
         style="fill:#f8f8f9;fill-opacity:1;fill-rule:nonzero;stroke:none"
         id="path326" /><path
         d="m 11912.7,5253.89 73.7,7.56 -44.7,73.66 z m 27.9,117.39 110.4,-181.69 -19.5,-2 -34.7,56.91 -90.8,-9.32 -22.2,-62.77 -19.8,-2.02 71.5,200.37 z"
         style="fill:none;stroke:#f8f8f9;stroke-width:10;stroke-linecap:butt;stroke-linejoin:miter;stroke-miterlimit:10;stroke-dasharray:none;stroke-opacity:1"
         id="path328" /><path
         d="m 12080.9,5296.39 39.2,4.02 c 19.3,1.97 33.6,19.4 31.6,38.76 -2,19.36 -19.6,33.77 -38.8,31.8 l -39.2,-4.04 z m -7.1,-104.47 -19.7,191.03 57,5.84 c 29.1,2.99 55.3,-18.51 58.3,-47.79 2.3,-22.68 -10.7,-45.12 -31.5,-54.2 l 52.5,-82.89 -20,-2.05 -50.7,80.49 -36.9,-3.8 8.7,-84.81 -17.7,-1.82"
         style="fill:#f8f8f9;fill-opacity:1;fill-rule:nonzero;stroke:none"
         id="path330" /><path
         d="m 12080.9,5296.39 39.2,4.02 c 19.3,1.97 33.6,19.4 31.6,38.76 -2,19.36 -19.6,33.77 -38.8,31.8 l -39.2,-4.04 z m -7.1,-104.47 -19.7,191.03 57,5.84 c 29.1,2.99 55.3,-18.51 58.3,-47.79 2.3,-22.68 -10.7,-45.12 -31.5,-54.2 l 52.5,-82.89 -20,-2.05 -50.7,80.49 -36.9,-3.8 8.7,-84.81 z"
         style="fill:none;stroke:#f8f8f9;stroke-width:10;stroke-linecap:butt;stroke-linejoin:miter;stroke-miterlimit:10;stroke-dasharray:none;stroke-opacity:1"
         id="path332" /><path
         d="m 12229,5225.89 24.8,2.55 c 48.8,5.01 77.3,36.25 72.2,86.42 -5.2,50.18 -39.3,73.95 -88.1,68.94 l -24.8,-2.55 z m -15.8,-19.65 -19.7,191.03 42.5,4.36 c 58.7,6.03 101.6,-25.1 107.7,-84.95 6.2,-59.85 -29.4,-100.05 -88,-106.07 l -42.5,-4.37"
         style="fill:#f8f8f9;fill-opacity:1;fill-rule:nonzero;stroke:none"
         id="path334" /><path
         d="m 12229,5225.89 24.8,2.55 c 48.8,5.01 77.3,36.25 72.2,86.42 -5.2,50.18 -39.3,73.95 -88.1,68.94 l -24.8,-2.55 z m -15.8,-19.65 -19.7,191.03 42.5,4.36 c 58.7,6.03 101.6,-25.1 107.7,-84.95 6.2,-59.85 -29.4,-100.05 -88,-106.07 z"
         style="fill:none;stroke:#f8f8f9;stroke-width:10;stroke-linecap:butt;stroke-linejoin:miter;stroke-miterlimit:10;stroke-dasharray:none;stroke-opacity:1"
         id="path336" /><path
         d="m 12654.9,5329.96 c -5.7,55.85 17,107.95 56.4,141.85 -28.1,15.58 -61,23.08 -95.3,19.56 -89.8,-9.22 -155.1,-89.98 -145.8,-180.37 9.3,-90.39 89.6,-156.21 179.4,-146.99 34.3,3.53 65,17.56 89.4,38.54 -45.5,25.18 -78.4,71.57 -84.1,127.41"
         style="fill:#e82029;fill-opacity:1;fill-rule:nonzero;stroke:none"
         id="path338" /><path
         d="m 12839.6,5348.94 c -5.7,55.84 17,107.94 56.4,141.83 -28.1,15.59 -61,23.09 -95.3,19.56 -34.4,-3.52 -65,-17.56 -89.4,-38.52 45.4,-25.19 78.3,-71.58 84.1,-127.42 5.7,-55.85 -17.1,-107.94 -56.4,-141.84 28.1,-15.59 61,-23.09 95.3,-19.56 34.3,3.52 65,17.56 89.4,38.52 -45.5,25.19 -78.4,71.59 -84.1,127.43"
         style="fill:#fccb08;fill-opacity:1;fill-rule:nonzero;stroke:none"
         id="path340" /><path
         d="m 12795.4,5344.39 c -5.8,55.84 -38.7,102.23 -84.1,127.42 -39.4,-33.9 -62.1,-86 -56.4,-141.85 5.7,-55.84 38.6,-102.23 84.1,-127.41 39.3,33.9 62.1,85.99 56.4,141.84"
         style="fill:#f25a1e;fill-opacity:1;fill-rule:nonzero;stroke:none"
         id="path342" /><path
         d="m 12985.4,5529.31 c -34.3,-3.53 -65,-17.56 -89.4,-38.54 45.4,-25.17 78.3,-71.57 84.1,-127.41 5.7,-55.84 -17.1,-107.95 -56.4,-141.85 28.1,-15.57 61,-23.08 95.3,-19.56 89.8,9.23 155.1,89.98 145.8,180.37 -9.3,90.4 -89.6,156.21 -179.4,146.99"
         style="fill:#40b2c1;fill-opacity:1;fill-rule:nonzero;stroke:none"
         id="path344" /><path
         d="m 12980.1,5363.36 c -5.8,55.84 -38.7,102.24 -84.1,127.41 -39.4,-33.89 -62.1,-85.99 -56.4,-141.83 5.7,-55.84 38.6,-102.24 84.1,-127.43 39.3,33.9 62.1,86.01 56.4,141.85"
         style="fill:#4f5155;fill-opacity:1;fill-rule:nonzero;stroke:none"
         id="path346" /><path
         d="m 13273.7,4321.96 -1158.2,-118.94 -5.5,53.05 1158.2,118.95 5.5,-53.06"
         style="fill:#eeefef;fill-opacity:1;fill-rule:nonzero;stroke:none"
         id="path348" /><path
         d="m 13285.4,4207.89 -884.5,-90.83 -5.4,53.06 884.4,90.83 5.5,-53.06"
         style="fill:#c6c7c6;fill-opacity:1;fill-rule:nonzero;stroke:none"
         id="path350" /><path
         d="m 11289.9,4883.69 -1.3,12.74 -230.5,-23.68 -5.9,57.31 -12.6,-1.3 5.9,-57.3 -230.5,-23.68 1.3,-12.72 230.5,23.66 5.6,-54.61 -230.5,-23.66 1.3,-12.74 230.5,23.68 0.1,-0.48 6.7,1.19 c 2.3,0.37 56.2,9.43 65.3,-32.15 0.1,-0.12 2.6,-12.13 -5.4,-23.72 -8.6,-12.39 -25.9,-20.16 -51.2,-23.06 l -237.9,-24.42 1.3,-12.73 231.6,23.78 5.7,-55.62 -231.5,-23.78 1.3,-12.73 231.6,23.79 5.8,-57.31 12.7,1.3 -5.9,57.3 229.4,23.56 -1.4,12.72 -229.3,-23.55 -5.7,55.81 c 25.8,3.93 43.9,13.2 53.9,27.6 7.3,10.47 8.4,21.07 8.1,27.57 l 162.4,16.67 -1.4,12.74 -163.5,-16.79 c -11.2,33.26 -48,38.74 -71.4,36.53 l -5.6,54.41 230.5,23.67"
         style="fill:#eeefef;fill-opacity:1;fill-rule:nonzero;stroke:none"
         id="path352" /><path
         d="m 13273.7,4321.96 -5.5,53.06 -844.5,-86.73 c -45.9,-23.5 -92.1,-46.11 -138.6,-67.85 l 988.6,101.52"
         style="fill:#c6c7c6;fill-opacity:1;fill-rule:nonzero;stroke:none"
         id="path354" /><path
         d="m 13237.4,4674.8 -247.5,-25.42 c -89.2,-71.88 -184,-138.62 -282.5,-200.46 l 0.5,-5.43 547.5,56.22 -18,175.09"
         style="fill:#979a9a;fill-opacity:1;fill-rule:nonzero;stroke:none"
         id="path356" /><path
         d="m 10652.9,5391.46 28.1,-273.91 c -4.8,117.05 24.8,375.87 372.6,411.58 l -315.7,-32.42 c -52.2,-5.35 -90.4,-52.72 -85,-105.25"
         style="fill:#d54a56;fill-opacity:1;fill-rule:nonzero;stroke:none"
         id="path358" /><path
         d="m 12684.7,3742.03 -54.3,446.97 -440.4,211 -120,-130 50,-110 300,-160 -210,-260 474.7,2.03"
         style="fill:#faba81;fill-opacity:1;fill-rule:nonzero;stroke:none"
         id="path360" /><path
         d="M 16155.2,6675.01 13740,6240.91 c -50,-9 -98.4,24.87 -107.4,75.26 l -271.8,1511.75 c -9,50.39 24.5,98.98 74.6,107.98 l 2415.2,434.11 c 50,8.99 98.4,-24.87 107.4,-75.26 l 271.8,-1511.76 c 9,-50.39 -24.5,-98.98 -74.6,-107.98"
         style="fill:#1d93ab;fill-opacity:1;fill-rule:nonzero;stroke:none"
         id="path362" /><path
         d="m 13746.9,6272.95 2373.3,426.58 c 50.1,9 83.6,57.59 74.6,107.98 l -154.5,859.58 C 15526.5,6856.79 14306.9,6432.6 13746.9,6272.95"
         style="fill:#128396;fill-opacity:1;fill-rule:nonzero;stroke:none"
         id="path364" /><path
         d="m 14062.7,7094.66 -387.6,-69.68 c -18.4,-3.29 -36,9.01 -39.3,27.34 l -49.2,273.63 c -3.3,18.34 9,36.03 27.3,39.33 l 387.7,69.68 c 18.3,3.29 36,-9.01 39.3,-27.35 l 49.2,-273.63 c 3.3,-18.33 -9,-36.03 -27.4,-39.32"
         style="fill:#e8be54;fill-opacity:1;fill-rule:nonzero;stroke:none"
         id="path366" /><path
         d="m 14085.1,7161.73 -25,139.05 c -91.6,-126.1 -285,-214.44 -405,-259.69 13.2,-9.72 30.1,-14.29 47.3,-11.2 l 333,59.86 c 33.4,5.99 55.7,38.38 49.7,71.98"
         style="fill:#cea144;fill-opacity:1;fill-rule:nonzero;stroke:none"
         id="path368" /><path
         d="m 14217.8,6830.36 -525.2,-94.4 -30.2,167.97 525.2,94.4 30.2,-167.97"
         style="fill:#c6c2c0;fill-opacity:1;fill-rule:nonzero;stroke:none"
         id="path370" /><path
         d="m 14803.7,6935.66 -525.2,-94.4 -30.2,167.97 525.2,94.4 30.2,-167.97"
         style="fill:#c6c2c0;fill-opacity:1;fill-rule:nonzero;stroke:none"
         id="path372" /><path
         d="m 15389.5,7040.96 -525.2,-94.41 -30.2,167.98 525.3,94.41 30.1,-167.98"
         style="fill:#c6c2c0;fill-opacity:1;fill-rule:nonzero;stroke:none"
         id="path374" /><path
         d="m 15975.4,7146.26 -525.2,-94.4 -30.2,167.96 525.2,94.41 30.2,-167.97"
         style="fill:#c6c2c0;fill-opacity:1;fill-rule:nonzero;stroke:none"
         id="path376" /><path
         d="m 13721.7,7565.21 c -13.9,-21.42 -37.1,-35.93 -61.9,-40.39 -51.4,-9.24 -101,25.48 -110.3,77.28 -9.3,51.8 25.1,101.61 76.5,110.86 24.5,4.41 51.6,-1.08 71.8,-16.09 l -10.1,-13.68 c -20.4,13.48 -40.4,15.94 -58.6,12.67 -42,-7.55 -70.3,-48.19 -62.6,-90.7 7.6,-42.28 48.3,-70.78 90.2,-63.23 18.5,3.31 35.6,12.45 50.6,32.3 l 14.4,-9.02"
         style="fill:#f8f8f9;fill-opacity:1;fill-rule:nonzero;stroke:none"
         id="path378" /><path
         d="m 13721.7,7565.21 c -13.9,-21.42 -37.1,-35.93 -61.9,-40.39 -51.4,-9.24 -101,25.48 -110.3,77.28 -9.3,51.8 25,101.61 76.5,110.86 24.5,4.41 51.6,-1.08 71.8,-16.09 l -10.1,-13.68 c -20.4,13.48 -40.4,15.94 -58.6,12.67 -42,-7.55 -70.3,-48.19 -62.6,-90.7 7.6,-42.28 48.3,-70.78 90.2,-63.23 18.5,3.31 35.6,12.45 50.6,32.3 z"
         style="fill:none;stroke:#f8f8f9;stroke-width:10;stroke-linecap:butt;stroke-linejoin:miter;stroke-miterlimit:10;stroke-dasharray:none;stroke-opacity:1"
         id="path380" /><path
         d="m 13754.8,7646.06 37.6,6.76 c 18.4,3.32 31,21.21 27.7,39.79 -3.4,18.56 -21.4,31.21 -39.9,27.9 l -37.6,-6.77 z m 0.7,-101.52 -33,183.25 54.6,9.82 c 28,5.02 54.9,-13.85 60,-41.95 3.9,-21.74 -7.1,-44.4 -26.5,-54.7 l 56.8,-76.31 -19.2,-3.45 -54.9,74.13 -35.5,-6.37 14.7,-81.36 -17,-3.06"
         style="fill:#f8f8f9;fill-opacity:1;fill-rule:nonzero;stroke:none"
         id="path382" /><path
         d="m 13754.8,7646.06 37.6,6.76 c 18.4,3.32 31,21.21 27.7,39.79 -3.4,18.56 -21.4,31.21 -39.9,27.9 l -37.6,-6.77 z m 0.7,-101.52 -33,183.25 54.6,9.82 c 28,5.02 54.9,-13.85 59.9,-41.95 4,-21.74 -7,-44.4 -26.4,-54.7 l 56.8,-76.31 -19.2,-3.45 -54.9,74.13 -35.5,-6.37 14.7,-81.36 z"
         style="fill:none;stroke:#f8f8f9;stroke-width:10;stroke-linecap:butt;stroke-linejoin:miter;stroke-miterlimit:10;stroke-dasharray:none;stroke-opacity:1"
         id="path384" /><path
         d="m 13877.1,7737.91 9.2,-51.31 65.5,11.78 3.1,-17.1 -65.5,-11.79 14.4,-80.62 75,13.47 3.1,-17.1 -92.7,-16.67 -32.9,183.26 92.7,16.67 3.1,-17.11 -75,-13.48"
         style="fill:#f8f8f9;fill-opacity:1;fill-rule:nonzero;stroke:none"
         id="path386" /><path
         d="m 13877.1,7737.91 9.2,-51.31 65.5,11.78 3.1,-17.1 -65.5,-11.79 14.4,-80.62 75,13.47 3.1,-17.1 -92.7,-16.67 -32.9,183.26 92.7,16.67 3,-17.11 z"
         style="fill:none;stroke:#f8f8f9;stroke-width:10;stroke-linecap:butt;stroke-linejoin:miter;stroke-miterlimit:10;stroke-dasharray:none;stroke-opacity:1"
         id="path388" /><path
         d="m 14027.4,7611.06 23.8,4.28 c 46.8,8.42 72.1,40.7 63.4,88.84 -8.6,48.13 -43.4,68.62 -90.2,60.2 l -23.8,-4.27 z m -13.9,-20.15 -33,183.25 40.8,7.33 c 56.3,10.12 100,-16.83 110.3,-74.25 10.3,-57.43 -21.1,-98.88 -77.4,-109 l -40.7,-7.33"
         style="fill:#f8f8f9;fill-opacity:1;fill-rule:nonzero;stroke:none"
         id="path390" /><path
         d="m 14027.4,7611.06 23.8,4.28 c 46.8,8.42 72.1,40.7 63.4,88.84 -8.6,48.13 -43.4,68.62 -90.2,60.2 l -23.8,-4.27 z m -13.9,-20.15 -33,183.25 40.8,7.33 c 56.3,10.12 100,-16.83 110.3,-74.25 10.3,-57.43 -21.1,-98.88 -77.4,-109 z"
         style="fill:none;stroke:#f8f8f9;stroke-width:10;stroke-linecap:butt;stroke-linejoin:miter;stroke-miterlimit:10;stroke-dasharray:none;stroke-opacity:1"
         id="path392" /><path
         d="m 14194.3,7623.41 -17,-3.06 -33,183.25 17,3.06 33,-183.25"
         style="fill:#f8f8f9;fill-opacity:1;fill-rule:nonzero;stroke:none"
         id="path394" /><path
         d="m 14194.3,7623.41 -17,-3.06 -33,183.25 17,3.06 z"
         style="fill:none;stroke:#f8f8f9;stroke-width:10;stroke-linecap:butt;stroke-linejoin:miter;stroke-miterlimit:10;stroke-dasharray:none;stroke-opacity:1"
         id="path396" /><path
         d="m 14296.2,7813.24 -47.6,-8.54 29.9,-166.16 -17,-3.05 -29.9,166.15 -47.8,-8.59 -3.1,17.1 112.4,20.2 3.1,-17.11"
         style="fill:#f8f8f9;fill-opacity:1;fill-rule:nonzero;stroke:none"
         id="path398" /><path
         d="m 14296.2,7813.24 -47.6,-8.54 29.9,-166.16 -17,-3.05 -29.9,166.15 -47.8,-8.59 -3.1,17.1 112.4,20.2 z"
         style="fill:none;stroke:#f8f8f9;stroke-width:10;stroke-linecap:butt;stroke-linejoin:miter;stroke-miterlimit:10;stroke-dasharray:none;stroke-opacity:1"
         id="path400" /><path
         d="m 14564.3,7716.66 c -13.9,-21.43 -37.1,-35.94 -61.9,-40.38 -51.4,-9.25 -101,25.47 -110.3,77.27 -9.3,51.8 25.1,101.62 76.5,110.86 24.5,4.41 51.6,-1.07 71.8,-16.1 l -10,-13.66 c -20.5,13.47 -40.5,15.94 -58.7,12.66 -42,-7.54 -70.3,-48.19 -62.6,-90.71 7.6,-42.26 48.3,-70.76 90.3,-63.22 18.4,3.32 35.6,12.45 50.5,32.29 l 14.4,-9.01"
         style="fill:#f8f8f9;fill-opacity:1;fill-rule:nonzero;stroke:none"
         id="path402" /><path
         d="m 14564.3,7716.66 c -13.9,-21.43 -37.1,-35.94 -61.9,-40.38 -51.4,-9.25 -101,25.47 -110.3,77.27 -9.3,51.8 25.1,101.62 76.5,110.86 24.5,4.41 51.6,-1.07 71.8,-16.1 l -10,-13.66 c -20.5,13.47 -40.5,15.94 -58.7,12.66 -42,-7.54 -70.3,-48.19 -62.6,-90.71 7.6,-42.26 48.3,-70.76 90.3,-63.22 18.4,3.32 35.6,12.45 50.5,32.29 z"
         style="fill:none;stroke:#f8f8f9;stroke-width:10;stroke-linecap:butt;stroke-linejoin:miter;stroke-miterlimit:10;stroke-dasharray:none;stroke-opacity:1"
         id="path404" /><path
         d="m 14622.1,7777.24 70.6,12.69 -48.5,67.95 z m 18.3,115.53 120.1,-167.59 -18.7,-3.36 -37.8,52.49 -87.1,-15.66 -16.9,-62.3 -18.9,-3.41 54.4,198.95 4.9,0.88"
         style="fill:#f8f8f9;fill-opacity:1;fill-rule:nonzero;stroke:none"
         id="path406" /><path
         d="m 14622.1,7777.24 70.6,12.69 -48.5,67.95 z m 18.3,115.53 120.1,-167.59 -18.7,-3.36 -37.8,52.49 -87.1,-15.66 -16.9,-62.3 -18.9,-3.41 54.4,198.95 z"
         style="fill:none;stroke:#f8f8f9;stroke-width:10;stroke-linecap:butt;stroke-linejoin:miter;stroke-miterlimit:10;stroke-dasharray:none;stroke-opacity:1"
         id="path408" /><path
         d="m 14781.6,7830.62 37.6,6.76 c 18.5,3.32 31,21.21 27.7,39.79 -3.3,18.56 -21.4,31.21 -39.8,27.9 l -37.7,-6.77 z m 0.7,-101.52 -32.9,183.25 54.6,9.82 c 27.9,5.02 54.8,-13.85 59.9,-41.95 3.9,-21.74 -7.1,-44.4 -26.5,-54.7 l 56.8,-76.31 -19.2,-3.45 -54.9,74.13 -35.4,-6.37 14.6,-81.36 -17,-3.06"
         style="fill:#f8f8f9;fill-opacity:1;fill-rule:nonzero;stroke:none"
         id="path410" /><path
         d="m 14781.6,7830.62 37.6,6.76 c 18.5,3.32 31,21.21 27.7,39.79 -3.3,18.56 -21.4,31.21 -39.9,27.9 l -37.6,-6.77 z m 0.7,-101.52 -32.9,183.25 54.6,9.82 c 27.9,5.02 54.8,-13.85 59.9,-41.95 3.9,-21.74 -7.1,-44.4 -26.5,-54.7 l 56.8,-76.31 -19.2,-3.45 -54.9,74.13 -35.4,-6.37 14.6,-81.36 z"
         style="fill:none;stroke:#f8f8f9;stroke-width:10;stroke-linecap:butt;stroke-linejoin:miter;stroke-miterlimit:10;stroke-dasharray:none;stroke-opacity:1"
         id="path412" /><path
         d="m 14929.9,7773.29 23.8,4.28 c 46.9,8.42 72.1,40.7 63.5,88.84 -8.7,48.13 -43.4,68.62 -90.3,60.2 l -23.7,-4.28 z m -13.9,-20.16 -32.9,183.26 40.8,7.33 c 56.3,10.12 99.9,-16.84 110.3,-74.26 10.3,-57.42 -21.1,-98.87 -77.4,-108.99 l -40.8,-7.34"
         style="fill:#f8f8f9;fill-opacity:1;fill-rule:nonzero;stroke:none"
         id="path414" /><path
         d="m 14929.9,7773.29 23.8,4.28 c 46.9,8.42 72.1,40.7 63.5,88.84 -8.7,48.13 -43.4,68.62 -90.3,60.2 l -23.7,-4.28 z m -13.9,-20.16 -32.9,183.26 40.8,7.33 c 56.3,10.12 99.9,-16.84 110.3,-74.26 10.3,-57.42 -21.1,-98.87 -77.4,-108.99 z"
         style="fill:none;stroke:#f8f8f9;stroke-width:10;stroke-linecap:butt;stroke-linejoin:miter;stroke-miterlimit:10;stroke-dasharray:none;stroke-opacity:1"
         id="path416" /><path
         d="m 15334.1,7905.07 c -9.7,53.56 8.5,105.61 44.1,141.26 -28.3,13.01 -60.6,17.86 -93.6,11.94 -86.1,-15.49 -143.3,-98.34 -127.7,-185.06 15.6,-86.72 98,-144.46 184.2,-128.98 32.9,5.92 61.5,21.74 83.6,43.79 -45.8,21.02 -81,63.47 -90.6,117.05"
         style="fill:#e82029;fill-opacity:1;fill-rule:nonzero;stroke:none"
         id="path418" /><path
         d="m 15511.3,7936.91 c -9.7,53.58 8.5,105.62 44.1,141.26 -28.3,13.01 -60.7,17.87 -93.6,11.95 -32.9,-5.92 -61.5,-21.73 -83.6,-43.79 45.8,-21.03 81,-63.48 90.6,-117.04 9.6,-53.58 -8.6,-105.62 -44.1,-141.27 28.3,-13.01 60.6,-17.85 93.6,-11.94 32.9,5.92 61.5,21.73 83.6,43.79 -45.8,21.03 -81,63.47 -90.6,117.04"
         style="fill:#fccb08;fill-opacity:1;fill-rule:nonzero;stroke:none"
         id="path420" /><path
         d="m 15468.8,7929.29 c -9.6,53.56 -44.8,96.01 -90.6,117.04 -35.6,-35.65 -53.8,-87.7 -44.1,-141.26 9.6,-53.58 44.8,-96.03 90.6,-117.05 35.5,35.65 53.7,87.69 44.1,141.27"
         style="fill:#f25a1e;fill-opacity:1;fill-rule:nonzero;stroke:none"
         id="path422" /><path
         d="m 15639,8121.96 c -32.9,-5.92 -61.6,-21.73 -83.6,-43.79 45.8,-21.02 81,-63.46 90.6,-117.04 9.6,-53.57 -8.6,-105.61 -44.1,-141.26 28.3,-13.01 60.6,-17.86 93.6,-11.94 86.1,15.48 143.3,98.33 127.7,185.05 -15.6,86.72 -98,144.47 -184.2,128.98"
         style="fill:#40b2c1;fill-opacity:1;fill-rule:nonzero;stroke:none"
         id="path424" /><path
         d="m 15646,7961.13 c -9.6,53.58 -44.8,96.02 -90.6,117.04 -35.6,-35.64 -53.8,-87.68 -44.1,-141.26 9.6,-53.57 44.8,-96.01 90.6,-117.04 35.5,35.65 53.7,87.69 44.1,141.26"
         style="fill:#4f5155;fill-opacity:1;fill-rule:nonzero;stroke:none"
         id="path426" /><path
         d="m 16006,6975.74 -1111,-199.7 -9.2,50.9 1111.1,199.7 9.1,-50.9"
         style="fill:#eeefef;fill-opacity:1;fill-rule:nonzero;stroke:none"
         id="path428" /><path
         d="m 16025.7,6866.31 -848.4,-152.5 -9.2,50.9 848.5,152.5 9.1,-50.9"
         style="fill:#c6c7c6;fill-opacity:1;fill-rule:nonzero;stroke:none"
         id="path430" /><path
         d="m 14047,7373.76 -2.2,12.22 -221.1,-39.74 -9.9,54.97 -12.1,-2.18 9.9,-54.98 -221.1,-39.73 2.2,-12.22 221.1,39.75 9.4,-52.4 -221.1,-39.73 2.2,-12.22 221.1,39.75 v -0.46 l 6.5,1.64 c 2.2,0.53 53.6,13.23 65.5,-26.31 0,-0.11 3.4,-11.52 -3.5,-23.32 -7.4,-12.62 -23.5,-21.38 -47.9,-26.05 l -228.1,-41 2.2,-12.22 222.1,39.93 9.6,-53.35 -222.1,-39.93 2.2,-12.22 222.1,39.94 9.9,-54.97 12.1,2.17 -9.8,54.97 220,39.55 -2.2,12.22 -220,-39.55 -9.7,53.54 c 24.7,5.69 41.6,15.98 50.2,30.63 6.3,10.66 6.5,20.98 5.8,27.26 l 155.7,27.99 -2.2,12.21 -156.8,-28.19 c -13.3,31.33 -49.3,33.94 -71.7,30.1 l -9.4,52.19 221.1,39.74"
         style="fill:#eeefef;fill-opacity:1;fill-rule:nonzero;stroke:none"
         id="path432" /><path
         d="m 16006,6975.74 -9.1,50.9 -810.2,-145.62 c -42.6,-26.07 -85.7,-51.31 -129,-75.73 l 948.3,170.45"
         style="fill:#c6c7c6;fill-opacity:1;fill-rule:nonzero;stroke:none"
         id="path434" /><path
         d="m 15945.2,7314.23 -237.5,-42.68 c -81,-76.02 -167.7,-147.48 -258.5,-214.48 l 1,-5.21 525.2,94.4 -30.2,167.97"
         style="fill:#979a9a;fill-opacity:1;fill-rule:nonzero;stroke:none"
         id="path436" /><path
         d="m 13393.9,7818.11 47.3,-262.78 c -13.2,112.82 -3.5,365.23 330.1,425.19 l -302.8,-54.44 c -50.1,-8.99 -83.6,-57.58 -74.6,-107.97"
         style="fill:#3eb2be;fill-opacity:1;fill-rule:nonzero;stroke:none"
         id="path438" /><path
         d="m 15480,6350 -169.2,483.16 -350.8,106.84 -60,-200 210,-90 -30,-370 -120,-170 520,240"
         style="fill:#ba8278;fill-opacity:1;fill-rule:nonzero;stroke:none"
         id="path440" /><path
         d="m 8204.01,908.602 h 1646.4 L 9865.39,713 H 8191.86 l 12.15,195.602"
         style="fill:#a6d2df;fill-opacity:1;fill-rule:nonzero;stroke:none"
         id="path442" /><path
         d="M 8174.86,439.5 9890,440 9905.24,192.699 H 8159.52 l 15.34,246.801"
         style="fill:#a6d2df;fill-opacity:1;fill-rule:nonzero;stroke:none"
         id="path444" /><path
         d="m 8571.48,7629.86 -296.7,735.19 27.47,11.08 296.68,-735.19 -27.45,-11.08"
         style="fill:#9b9d9c;fill-opacity:1;fill-rule:nonzero;stroke:none"
         id="path446" /><path
         d="m 8684.16,7675.33 -296.69,735.2 37.57,15.16 296.69,-735.2 -37.57,-15.16"
         style="fill:#9b9d9c;fill-opacity:1;fill-rule:nonzero;stroke:none"
         id="path448" /><path
         d="m 8759.3,7705.65 -296.7,735.19 72.14,29.11 296.69,-735.19 -72.13,-29.11"
         style="fill:#9b9d9c;fill-opacity:1;fill-rule:nonzero;stroke:none"
         id="path450" /><path
         d="m 8909.55,7766.29 -296.7,735.19 37.57,15.16 296.69,-735.19 -37.56,-15.16"
         style="fill:#9b9d9c;fill-opacity:1;fill-rule:nonzero;stroke:none"
         id="path452" /><path
         d="m 8968.57,7790.11 -296.68,735.19 55.66,22.46 296.69,-735.18 -55.67,-22.47"
         style="fill:#9b9d9c;fill-opacity:1;fill-rule:nonzero;stroke:none"
         id="path454" /><path
         d="m 9105.71,7845.45 -296.69,735.2 59.03,23.81 296.68,-735.18 -59.02,-23.83"
         style="fill:#9b9d9c;fill-opacity:1;fill-rule:nonzero;stroke:none"
         id="path456" /><path
         d="m 9191.57,7880.1 -296.69,735.19 26.83,10.83 296.69,-735.19 -26.83,-10.83"
         style="fill:#9b9d9c;fill-opacity:1;fill-rule:nonzero;stroke:none"
         id="path458" /><path
         d="m 9259.74,7907.61 -296.68,735.19 26.82,10.83 296.69,-735.19 -26.83,-10.83"
         style="fill:#9b9d9c;fill-opacity:1;fill-rule:nonzero;stroke:none"
         id="path460" /><path
         d="m 9313.41,7929.27 -296.69,735.19 26.83,10.82 296.68,-735.18 -26.82,-10.83"
         style="fill:#9b9d9c;fill-opacity:1;fill-rule:nonzero;stroke:none"
         id="path462" /><path
         d="m 9418.62,7971.73 -296.69,735.19 75.25,30.36 296.69,-735.18 -75.25,-30.37"
         style="fill:#9b9d9c;fill-opacity:1;fill-rule:nonzero;stroke:none"
         id="path464" /><path
         d="m 9559.84,8028.72 -296.7,735.19 34.41,13.88 296.69,-735.19 -34.4,-13.88"
         style="fill:#9b9d9c;fill-opacity:1;fill-rule:nonzero;stroke:none"
         id="path466" /><path
         d="m 9621.07,8053.43 -296.69,735.19 69.76,28.16 296.69,-735.2 -69.76,-28.15"
         style="fill:#9b9d9c;fill-opacity:1;fill-rule:nonzero;stroke:none"
         id="path468" /><path
         d="m 9758.6,8108.94 -296.69,735.18 26.83,10.83 296.7,-735.2 -26.84,-10.81"
         style="fill:#9b9d9c;fill-opacity:1;fill-rule:nonzero;stroke:none"
         id="path470" /><path
         d="m 9859.46,8149.63 -296.69,735.19 58.54,23.63 296.69,-735.2 -58.54,-23.62"
         style="fill:#9b9d9c;fill-opacity:1;fill-rule:nonzero;stroke:none"
         id="path472" /></g></g></svg>
