<?xml version="1.0" encoding="UTF-8" standalone="no"?>
<svg
   xmlns:dc="http://purl.org/dc/elements/1.1/"
   xmlns:cc="http://creativecommons.org/ns#"
   xmlns:rdf="http://www.w3.org/1999/02/22-rdf-syntax-ns#"
   xmlns:svg="http://www.w3.org/2000/svg"
   xmlns="http://www.w3.org/2000/svg"
   xmlns:sodipodi="http://sodipodi.sourceforge.net/DTD/sodipodi-0.dtd"
   xmlns:inkscape="http://www.inkscape.org/namespaces/inkscape"
   version="1.1"
   id="svg2"
   xml:space="preserve"
   width="766"
   height="766"
   viewBox="0 0 666 666"
   sodipodi:docname="thanks.svg"
   inkscape:version="1.0.1 (0767f8302a, 2020-10-17)"><metadata
   id="metadata8"><rdf:RDF><cc:Work
       rdf:about=""><dc:format>image/svg+xml</dc:format><dc:type
         rdf:resource="http://purl.org/dc/dcmitype/StillImage" /><dc:title /></cc:Work></rdf:RDF></metadata>
  <defs
   id="defs6"><clipPath
   clipPathUnits="userSpaceOnUse"
   id="clipPath20"><path
     d="M 0,500 H 500 V 0 H 0 Z"
     id="path18" /></clipPath>
    <clipPath
   clipPathUnits="userSpaceOnUse"
   id="clipPath116"><path
     d="M 0,500 H 500 V 0 H 0 Z"
     id="path114" /></clipPath></defs>
  <sodipodi:namedview
   pagecolor="#ffffff"
   bordercolor="#666666"
   borderopacity="1"
   objecttolerance="10"
   gridtolerance="10"
   guidetolerance="10"
   inkscape:pageopacity="0"
   inkscape:pageshadow="2"
   inkscape:window-width="1920"
   inkscape:window-height="1013"
   id="namedview4"
   showgrid="false"
   inkscape:zoom="1.7454308"
   inkscape:cx="383"
   inkscape:cy="245.56936"
   inkscape:window-x="0"
   inkscape:window-y="27"
   inkscape:window-maximized="1"
   inkscape:current-layer="g10"
   inkscape:document-rotation="0" />
  <g
   id="g10"
   inkscape:groupmode="layer"
   inkscape:label="313283-P8LBKB-116"
   transform="matrix(1.3333333,0,0,-1.3333333,0,666.66667)">
    <g
   id="g14"
   transform="matrix(1.5306779,0,0,1.5306779,-132.19696,-132.66307)"><g
     id="g16"
     clip-path="url(#clipPath20)"><g
       id="g22"
       transform="translate(193.5269,258.5898)"><path
         d="m 0,0 c 0.411,-0.102 0.824,-0.102 1.237,0 0.824,0.208 1.801,0.568 2.936,1.082 1.957,1.135 3.915,2.937 5.874,5.411 1.957,2.473 3.761,4.996 5.41,7.574 1.855,2.988 3.71,6.183 5.565,9.583 1.029,2.061 1.957,4.097 2.783,6.107 0.824,2.009 1.492,3.941 2.01,5.796 0.409,1.338 1.235,1.802 2.472,1.391 1.338,-0.413 1.802,-1.237 1.391,-2.473 C 28.441,30.143 26.637,25.607 24.269,20.869 22.824,18.188 21.228,15.509 19.476,12.83 18.032,10.562 16.358,8.193 14.453,5.72 12.545,3.246 10.562,1.135 8.501,-0.618 7.574,-1.442 6.105,-2.42 4.096,-3.556 2.087,-4.689 -0.258,-5.307 -2.937,-5.411 c -1.546,0 -2.913,0.285 -4.097,0.851 -1.185,0.567 -2.19,1.314 -3.013,2.241 -0.826,0.928 -1.495,1.959 -2.01,3.092 -0.517,1.135 -0.826,2.268 -0.927,3.401 -0.517,3.606 -0.568,8.139 -0.155,13.603 0.411,5.46 1.493,12.057 3.246,19.785 0.824,3.401 1.26,6.053 1.314,7.961 0.051,1.905 -0.103,3.27 -0.463,4.096 -0.363,0.824 -0.826,1.288 -1.392,1.392 -0.567,0.101 -1.108,0.05 -1.623,-0.155 -1.753,-0.722 -3.324,-2.113 -4.715,-4.174 -1.391,-2.063 -2.55,-4.227 -3.477,-6.492 -1.135,-2.681 -2.114,-5.514 -2.937,-8.501 -0.208,-0.928 -0.464,-1.959 -0.773,-3.092 -0.208,-1.031 -0.464,-2.217 -0.773,-3.555 -0.309,-1.341 -0.619,-2.783 -0.928,-4.328 -0.309,-0.722 -0.671,-1.237 -1.082,-1.546 -0.413,-0.309 -0.773,-0.567 -1.082,-0.773 -0.413,-0.207 -0.826,-0.309 -1.237,-0.309 -1.031,0 -1.777,0.256 -2.24,0.773 -0.464,0.515 -0.8,0.927 -1.005,1.237 -1.135,2.883 -2.114,6.929 -2.937,12.134 -0.824,5.202 -0.979,11.67 -0.464,19.399 0.411,6.388 1.415,13.009 3.014,19.863 1.597,6.852 3.478,13.294 5.642,19.321 2.164,6.029 4.534,11.335 7.111,15.922 2.574,4.584 5.1,7.857 7.574,9.816 0.72,0.514 1.493,0.978 2.319,1.391 0.618,0.309 1.314,0.541 2.087,0.696 0.772,0.154 1.518,0.077 2.24,-0.232 0.619,-0.31 1.184,-0.877 1.701,-1.701 0.514,-0.826 0.695,-2.191 0.541,-4.096 -0.155,-1.909 -0.722,-4.432 -1.701,-7.574 -0.98,-3.145 -2.604,-7.086 -4.868,-11.825 -1.855,-4.124 -3.788,-8.4 -5.797,-12.83 -2.01,-4.432 -3.841,-9.147 -5.487,-14.144 -1.65,-4.999 -3.041,-10.28 -4.174,-15.844 -1.135,-5.565 -1.701,-11.542 -1.701,-17.93 0.515,1.854 1.184,3.76 2.01,5.719 0.72,1.751 1.57,3.657 2.551,5.719 0.978,2.06 2.188,4.12 3.633,6.183 1.028,1.133 2.11,2.164 3.245,3.092 1.029,0.824 2.266,1.468 3.71,1.931 1.442,0.464 3.039,0.592 4.791,0.387 1.957,-0.413 3.711,-1.236 5.256,-2.473 1.339,-1.135 2.525,-2.732 3.556,-4.792 C 2.574,46.165 3.038,43.282 2.937,39.572 2.834,37.922 2.679,36.171 2.474,34.316 2.266,32.562 1.983,30.554 1.623,28.288 1.261,26.02 0.824,23.392 0.309,20.405 -0.207,17.932 -0.671,15.613 -1.082,13.448 -1.391,11.593 -1.7,9.789 -2.01,8.039 -2.319,6.285 -2.423,5.049 -2.319,4.328 -2.319,3.609 -2.217,2.937 -2.01,2.319 -1.804,1.804 -1.572,1.314 -1.314,0.85 -1.058,0.387 -0.618,0.104 0,0"
         style="fill:#262626;fill-opacity:1;fill-rule:nonzero;stroke:none"
         id="path24" /></g><g
       id="g26"
       transform="translate(248.8639,293.3694)"><path
         d="m 0,0 c 1.133,1.237 2.085,2.319 2.858,3.246 0.773,0.928 1.418,1.701 1.934,2.319 0.513,0.72 0.875,1.392 1.082,2.01 0.411,1.132 0.667,2.137 0.773,3.013 0.102,0.875 0.102,1.571 0,2.087 -0.106,0.619 -0.309,1.184 -0.618,1.701 -0.309,0.618 -0.879,1.133 -1.7,1.546 -0.826,0.41 -2.037,0.386 -3.633,-0.078 -1.599,-0.463 -3.609,-1.545 -6.028,-3.246 -2.423,-1.7 -5.437,-4.304 -9.044,-7.806 -3.091,-3.504 -5.772,-6.802 -8.037,-9.892 -1.959,-2.681 -3.582,-5.387 -4.869,-8.116 -1.29,-2.731 -1.418,-4.973 -0.387,-6.724 0.41,-0.309 1.029,-0.413 1.855,-0.309 0.72,0.101 1.647,0.386 2.782,0.85 1.133,0.464 2.628,1.365 4.483,2.705 0.309,0.206 0.67,0.464 1.082,0.773 0.411,0.31 0.824,0.619 1.237,0.928 0.41,0.41 0.874,0.773 1.39,1.082 1.03,0.927 2.061,1.854 3.092,2.782 1.029,0.927 2.112,1.905 3.247,2.937 1.442,1.338 2.884,2.679 4.328,4.019 C -2.732,-2.836 -1.341,-1.444 0,0 m 15.923,-26.586 c 1.131,0.41 2.367,1.182 3.71,2.317 1.131,0.928 2.522,2.189 4.174,3.788 1.643,1.597 3.498,3.734 5.561,6.415 0.927,1.236 1.828,2.446 2.707,3.632 0.875,1.184 1.723,2.396 2.549,3.633 1.135,1.546 2.164,2.988 3.092,4.329 0.927,1.337 1.753,2.574 2.473,3.709 0.309,0.514 0.72,0.823 1.237,0.927 0.517,0.102 1.029,0 1.546,-0.309 1.135,-0.618 1.338,-1.546 0.618,-2.783 -0.826,-1.135 -1.753,-2.472 -2.782,-4.018 -1.029,-1.546 -2.165,-3.195 -3.401,-4.947 -1.237,-1.753 -2.549,-3.504 -3.94,-5.255 -1.392,-1.753 -2.809,-3.504 -4.254,-5.256 -1.855,-2.372 -3.608,-4.227 -5.251,-5.564 -1.652,-1.34 -3.044,-2.372 -4.174,-3.092 -1.445,-0.826 -2.734,-1.391 -3.865,-1.7 -0.928,-0.206 -1.807,-0.257 -2.628,-0.155 -0.826,0.104 -1.546,0.259 -2.164,0.464 -0.725,0.309 -1.392,0.669 -2.01,1.082 -1.135,0.72 -2.01,1.648 -2.628,2.783 -0.619,1.133 -1.188,2.265 -1.701,3.4 -0.516,1.236 -0.927,2.575 -1.236,4.019 -0.309,1.647 -0.464,3.556 -0.464,5.719 0,4.224 0.667,8.553 2.009,12.984 -1.651,-1.753 -3.376,-3.503 -5.178,-5.255 -1.804,-1.753 -3.633,-3.505 -5.487,-5.256 -2.372,-2.164 -4.614,-4.095 -6.725,-5.796 -2.113,-1.7 -3.995,-3.169 -5.641,-4.406 -1.855,-1.444 -3.66,-2.681 -5.411,-3.709 -1.546,-0.828 -2.937,-1.34 -4.173,-1.546 -0.618,-0.103 -1.186,-0.154 -1.7,-0.154 -0.928,0 -1.727,0.154 -2.397,0.463 -0.669,0.31 -1.26,0.719 -1.777,1.237 -0.515,0.41 -1.029,0.977 -1.546,1.7 -0.411,0.618 -0.72,1.261 -0.928,1.932 -0.205,0.669 -0.409,1.365 -0.618,2.087 -0.41,1.647 -0.464,3.425 -0.155,5.333 0.31,1.905 0.722,3.683 1.237,5.333 0.517,1.855 1.237,3.761 2.164,5.72 1.135,2.368 2.525,4.66 4.174,6.878 1.647,2.215 3.605,4.352 5.874,6.414 1.546,1.338 3.169,2.602 4.869,3.788 1.701,1.183 3.528,2.241 5.487,3.169 1.957,1.029 3.865,1.855 5.72,2.473 1.647,0.514 3.451,0.9 5.41,1.158 1.956,0.257 3.913,0.129 5.874,-0.386 1.131,-0.309 2.213,-0.826 3.246,-1.545 0.822,-0.618 1.568,-1.521 2.24,-2.705 0.671,-1.186 1.007,-2.758 1.007,-4.715 1.131,1.957 2.522,4.019 4.174,6.184 0.72,1.027 1.568,2.11 2.548,3.245 0.981,1.133 1.984,2.111 3.017,2.937 1.029,0.824 2.032,1.338 3.012,1.546 0.977,0.205 1.776,-0.104 2.394,-0.928 1.029,-1.444 1.493,-3.041 1.392,-4.791 C 27.102,18.188 26.74,16.41 26.122,14.608 25.503,12.804 24.73,11.076 23.807,9.429 22.879,7.78 22.107,6.389 21.488,5.256 21.073,4.43 20.406,3.169 19.479,1.469 18.551,-0.232 17.57,-2.14 16.541,-4.25 c -1.033,-2.114 -2.009,-4.329 -2.937,-6.648 -0.927,-2.318 -1.652,-4.508 -2.164,-6.569 -0.517,-2.062 -0.698,-3.917 -0.543,-5.565 0.154,-1.65 0.852,-2.834 2.089,-3.554 0.203,-0.104 0.464,-0.208 0.773,-0.31 0.618,-0.207 1.338,-0.103 2.164,0.31"
         style="fill:#262626;fill-opacity:1;fill-rule:nonzero;stroke:none"
         id="path28" /></g><g
       id="g30"
       transform="translate(333.4142,274.2024)"><path
         d="m 0,0 c 0.928,1.029 1.957,2.242 3.092,3.633 1.133,1.391 2.215,2.755 3.246,4.095 1.133,1.546 2.264,3.092 3.399,4.638 1.133,1.546 2.164,3.015 3.092,4.406 0.927,1.39 1.751,2.601 2.473,3.632 0.515,1.133 1.442,1.338 2.783,0.618 1.029,-0.517 1.184,-1.444 0.464,-2.782 C 17.827,17.104 16.95,15.767 15.921,14.221 14.889,12.675 13.756,11.026 12.52,9.274 10.766,6.801 8.966,4.379 7.111,2.01 5.462,-0.053 3.58,-2.14 1.469,-4.251 c -2.114,-2.113 -4.305,-3.941 -6.57,-5.487 -1.237,-0.826 -2.346,-1.391 -3.324,-1.701 -0.981,-0.309 -1.882,-0.463 -2.706,-0.463 -0.927,0 -1.753,0.154 -2.471,0.463 -2.268,0.619 -3.942,1.855 -5.024,3.711 -1.082,1.855 -1.882,3.81 -2.396,5.873 -0.517,2.37 -0.773,4.894 -0.773,7.574 0,5.048 1.029,10.512 3.092,16.385 1.133,3.092 2.396,5.821 3.787,8.193 1.392,2.369 2.703,4.379 3.94,6.029 1.338,1.855 2.73,3.45 4.174,4.791 -0.517,-0.104 -1.082,-0.336 -1.701,-0.696 -0.618,-0.362 -1.186,-0.748 -1.7,-1.158 -0.618,-0.414 -1.237,-0.928 -1.855,-1.546 -5.358,-5.051 -9.79,-10.615 -13.293,-16.695 -3.401,-5.873 -5.978,-11.593 -7.729,-17.157 -0.619,-1.754 -1.135,-3.377 -1.546,-4.87 -0.413,-1.495 -0.826,-2.964 -1.235,-4.406 -0.415,-1.648 -0.828,-3.09 -1.236,-4.327 -0.517,-1.135 -1.083,-2.138 -1.701,-3.015 -0.618,-0.874 -1.495,-1.364 -2.628,-1.468 -2.063,-0.206 -3.609,0.464 -4.638,2.01 -1.029,1.545 -1.802,3.297 -2.319,5.256 -0.514,2.264 -0.773,4.842 -0.773,7.728 0,2.37 0.155,4.842 0.464,7.419 0.309,2.575 0.877,5.203 1.701,7.884 0.927,3.606 2.266,7.265 4.019,10.975 0.411,0.823 0.928,1.828 1.546,3.014 0.618,1.183 1.365,2.266 2.242,3.246 0.874,0.978 1.802,1.751 2.782,2.319 0.976,0.565 2.032,0.696 3.167,0.386 1.648,-0.516 2.602,-1.468 2.86,-2.859 0.256,-1.392 0.179,-2.938 -0.232,-4.638 -0.413,-1.7 -1.005,-3.453 -1.778,-5.255 -0.773,-1.804 -1.418,-3.324 -1.932,-4.561 -0.413,-0.927 -0.903,-2.217 -1.467,-3.863 -0.567,-1.65 -1.108,-3.532 -1.623,-5.643 -0.516,-2.113 -1.004,-4.354 -1.468,-6.723 -0.464,-2.372 -0.749,-4.793 -0.85,-7.266 0.823,4.019 1.828,7.703 3.014,11.052 1.182,3.348 2.341,6.208 3.476,8.58 1.237,2.781 2.575,5.305 4.02,7.573 1.855,3.194 3.992,6.338 6.415,9.429 2.42,3.092 5.126,6.029 8.116,8.811 1.131,0.928 2.317,1.802 3.553,2.628 1.03,0.72 2.189,1.365 3.479,1.933 1.287,0.565 2.551,0.85 3.787,0.85 1.237,-0.104 2.319,-0.362 3.247,-0.773 C 0.205,44.774 0.928,44.054 1.546,43.127 2.164,42.199 2.42,40.808 2.319,38.954 2.111,36.376 1.338,33.748 0,31.069 c -1.341,-2.681 -2.474,-4.895 -3.401,-6.646 -0.413,-0.826 -1.082,-2.087 -2.01,-3.787 -0.927,-1.701 -1.908,-3.609 -2.937,-5.719 -1.031,-2.113 -2.036,-4.329 -3.015,-6.647 -0.98,-2.319 -1.726,-4.509 -2.239,-6.569 -0.519,-2.063 -0.695,-3.918 -0.541,-5.566 0.155,-1.649 0.85,-2.834 2.085,-3.554 0.927,-0.517 2.06,-0.387 3.401,0.386 1.338,0.773 2.679,1.673 4.019,2.705 C -3.196,-3.196 -1.65,-1.753 0,0"
         style="fill:#262626;fill-opacity:1;fill-rule:nonzero;stroke:none"
         id="path32" /></g><g
       id="g34"
       transform="translate(374.2217,314.7008)"><path
         d="m 0,0 c -1.753,-0.207 -3.246,-0.799 -4.483,-1.777 -1.237,-0.98 -2.319,-1.985 -3.246,-3.014 -1.136,-1.237 -2.063,-2.577 -2.783,-4.02 -1.135,-2.062 -2.036,-3.968 -2.705,-5.718 -0.672,-1.754 -1.213,-3.35 -1.624,-4.793 -0.413,-1.649 -0.773,-3.144 -1.082,-4.482 0.309,-0.105 0.669,-0.309 1.082,-0.618 0.31,-0.209 0.669,-0.49 1.083,-0.85 0.41,-0.362 0.772,-0.749 1.082,-1.16 5.152,2.061 9.352,4.893 12.599,8.502 3.246,3.606 5.024,7.211 5.333,10.82 0.1,1.751 -0.028,3.116 -0.386,4.097 -0.365,0.978 -0.826,1.7 -1.392,2.163 C 2.911,-0.386 2.292,-0.13 1.623,-0.077 0.952,-0.026 0.411,0 0,0 m -34.317,-25.04 c 0.517,-0.413 1.135,-0.826 1.855,-1.237 1.444,-0.928 3.454,-1.599 6.029,-2.01 -0.207,0.824 -0.362,1.623 -0.464,2.396 -0.103,0.773 -0.258,1.57 -0.463,2.395 -2.266,0.619 -4.07,0.72 -5.411,0.31 -0.72,-0.208 -1.288,-0.413 -1.701,-0.618 -0.101,-0.105 -0.154,-0.208 -0.154,-0.309 v -0.386 c 0,-0.155 0.104,-0.336 0.309,-0.541 m 15.305,5.718 c 0.618,2.165 1.258,4.121 1.932,5.875 0.667,1.75 1.312,3.245 1.93,4.482 0.72,1.442 1.442,2.729 2.164,3.865 1.03,1.647 2.216,3.091 3.556,4.327 1.133,1.133 2.575,2.189 4.328,3.169 1.752,0.979 3.812,1.57 6.184,1.778 1.338,0.102 2.679,0 4.019,-0.309 C 6.232,3.657 7.443,3.297 8.732,2.783 10.02,2.266 11.23,1.442 12.365,0.309 c 1.237,-1.237 2.111,-2.781 2.628,-4.636 0.515,-1.546 0.696,-3.505 0.541,-5.875 -0.154,-2.372 -1.005,-5.049 -2.551,-8.038 -1.135,-2.062 -2.681,-4.019 -4.637,-5.873 -1.754,-1.546 -3.995,-3.092 -6.723,-4.638 -2.732,-1.545 -6.106,-2.628 -10.125,-3.246 0.618,-1.237 1.082,-2.526 1.391,-3.864 0.824,-2.681 1.7,-5.05 2.628,-7.111 0.927,-2.063 1.855,-3.813 2.783,-5.255 1.029,-1.444 2.111,-2.732 3.246,-3.865 1.029,-0.927 2.164,-1.802 3.401,-2.628 1.234,-0.823 2.573,-1.183 4.017,-1.082 1.855,0 3.71,0.722 5.565,2.165 1.856,1.444 3.556,3.038 5.102,4.792 1.855,2.06 3.606,4.429 5.256,7.11 0.824,1.442 1.597,2.911 2.319,4.406 0.718,1.492 1.44,3.013 2.162,4.559 1.957,4.329 3.452,8.399 4.483,12.212 0.411,1.338 1.237,1.802 2.473,1.391 1.339,-0.413 1.803,-1.237 1.392,-2.473 -0.722,-2.372 -1.546,-4.792 -2.474,-7.265 -0.927,-2.474 -1.959,-4.947 -3.091,-7.419 -1.65,-3.401 -3.401,-6.597 -5.254,-9.585 -1.754,-2.576 -3.763,-5.127 -6.029,-7.651 -2.268,-2.524 -4.846,-4.406 -7.73,-5.643 -4.328,-1.546 -8.14,-1.802 -11.437,-0.773 -3.3,1.032 -6.133,2.706 -8.503,5.024 -2.372,2.319 -4.278,4.947 -5.72,7.885 -1.444,2.936 -2.473,5.486 -3.092,7.651 -0.309,1.338 -0.645,2.473 -1.004,3.401 -0.363,0.927 -0.749,1.75 -1.158,2.472 -0.309,-2.163 -0.464,-3.709 -0.464,-4.636 0,-0.517 -0.077,-1.213 -0.231,-2.088 -0.155,-0.876 -0.696,-1.263 -1.624,-1.159 -0.516,0 -1.314,0.72 -2.396,2.164 -1.082,1.442 -2.087,3.711 -3.014,6.801 -2.474,0 -4.534,0.309 -6.184,0.928 -1.647,0.618 -2.988,1.338 -4.019,2.164 -1.133,0.928 -2.01,1.957 -2.628,3.092 -0.409,0.824 -0.59,1.546 -0.541,2.164 0.055,0.617 0.183,1.183 0.386,1.7 0.309,0.514 0.674,0.978 1.082,1.391 0.619,0.411 1.391,0.824 2.319,1.237 0.826,0.309 1.831,0.541 3.015,0.695 1.186,0.155 2.654,0.077 4.406,-0.232 -0.208,2.165 -0.31,4.484 -0.31,6.957 0,2.472 0.102,5.1 0.31,7.883 0.41,6.388 1.415,13.009 3.014,19.863 1.597,6.852 3.478,13.294 5.643,19.321 2.164,6.029 4.531,11.335 7.108,15.922 2.576,4.584 5.102,7.857 7.576,9.816 0.719,0.514 1.492,0.978 2.318,1.391 0.72,0.309 1.442,0.541 2.165,0.696 0.72,0.154 1.442,0.077 2.164,-0.232 0.72,-0.31 1.314,-0.877 1.778,-1.701 C 4.561,59.768 4.715,58.403 4.561,56.498 4.406,54.589 3.838,52.066 2.86,48.924 1.879,45.779 0.256,41.838 -2.01,37.099 -3.763,33.181 -5.565,29.163 -7.42,25.042 c -1.855,-4.124 -3.609,-8.502 -5.256,-13.139 -1.65,-4.637 -3.041,-9.533 -4.172,-14.684 -1.137,-5.155 -1.855,-10.666 -2.164,-16.541"
         style="fill:#262626;fill-opacity:1;fill-rule:nonzero;stroke:none"
         id="path36" /></g><g
       id="g38"
       transform="translate(155.6899,389.0383)"><path
         d="m 0,0 c -19.087,-26.376 -27.217,-64.401 -27.869,-96.405 -0.231,-11.372 1.593,-22.835 8.872,-32.01 4.743,-5.977 13.961,-11.685 21.512,-7.683 0.901,0.478 0.856,1.844 0,2.334 -9.514,5.444 -13.981,10.952 -16.31,21.964 -2.299,10.869 -1.226,22.139 0.008,33.097 1.484,13.18 3.607,26.261 7.074,39.074 3.436,12.699 8.911,24.542 12.887,37.026 C 7.411,1.282 2.113,2.92 0,0"
         style="fill:#262626;fill-opacity:1;fill-rule:nonzero;stroke:none"
         id="path40" /></g><g
       id="g42"
       transform="translate(107.7982,332.7237)"><path
         d="m 0,0 c 3.743,3.885 5.973,8.513 10.983,11.247 6.55,3.576 14.878,3.13 22.01,2.301 12.78,-1.485 25.198,-5.014 37.704,-7.896 24.568,-5.66 49.374,-12.016 74.592,-13.891 35.483,-2.638 77.304,7.601 97.841,38.873 1.106,1.685 -1.393,3.578 -2.775,2.142 C 205.501,-3.443 153.684,-0.578 108.294,8.954 83.483,14.164 59.031,20.639 33.577,21.923 21.436,22.535 -5.491,18.618 -2.953,0.78 -2.761,-0.568 -0.839,-0.871 0,0"
         style="fill:#262626;fill-opacity:1;fill-rule:nonzero;stroke:none"
         id="path44" /></g><g
       id="g46"
       transform="translate(255.8512,177.5587)"><path
         d="m 0,0 c 0.082,-0.669 0.292,-1.297 0.626,-1.879 0.251,-0.501 0.628,-0.981 1.128,-1.44 0.5,-0.459 1.126,-0.732 1.877,-0.814 1.503,-0.249 3.131,0.521 4.885,2.316 1.754,1.795 3.339,4.571 4.759,8.328 C 12.104,6.678 10.937,6.907 9.767,7.199 8.598,7.492 7.429,7.845 6.262,8.265 5.342,8.596 4.465,8.932 3.631,9.265 2.797,9.599 1.962,9.975 1.128,10.393 0.459,8.473 0.02,6.615 -0.188,4.82 -0.396,3.025 -0.333,1.418 0,0 m 1.128,22.789 c 0.5,0.334 1.042,0.669 1.628,1.003 0.501,0.333 1.063,0.667 1.689,1.002 0.626,0.331 1.273,0.626 1.942,0.877 0.416,0.082 1.042,0.269 1.878,0.563 0.833,0.292 1.691,0.437 2.568,0.437 0.877,0 1.669,-0.207 2.379,-0.625 0.708,-0.418 1.146,-1.211 1.315,-2.38 0.082,-1.42 -0.295,-2.546 -1.129,-3.38 C 12.565,19.45 11.521,18.699 10.27,18.032 9.016,17.363 7.702,16.675 6.325,15.966 4.948,15.254 3.757,14.317 2.756,13.147 4.259,12.478 5.803,11.853 7.388,11.27 c 2.087,-0.751 4.426,-1.254 7.013,-1.503 1.585,3.839 2.462,7.263 2.631,10.268 0.164,3.005 0,5.552 -0.503,7.639 -0.584,2.421 -1.502,4.549 -2.754,6.387 -1.671,2.254 -3.404,3.735 -5.196,4.446 -1.797,0.708 -3.445,0.978 -4.948,0.814 -1.752,-0.169 -3.464,-0.671 -5.134,-1.503 -1.42,-0.751 -2.503,-1.609 -3.254,-2.568 -0.754,-0.961 -1.336,-1.901 -1.754,-2.817 -0.502,-1.002 -0.833,-2.048 -1.002,-3.131 -0.252,-1.42 -0.291,-2.838 -0.126,-4.259 0.169,-1.169 0.524,-2.44 1.065,-3.817 0.544,-1.379 1.523,-2.611 2.943,-3.696 0.333,0.584 0.708,1.169 1.128,1.754 0.416,0.5 0.916,1.065 1.503,1.691 0.582,0.625 1.292,1.23 2.128,1.814 m 13.524,-23.04 c -0.92,-1.336 -1.923,-2.505 -3.005,-3.506 -0.92,-0.92 -2.046,-1.734 -3.382,-2.442 -1.336,-0.71 -2.798,-1.15 -4.383,-1.314 -1.169,-0.169 -2.213,-0.085 -3.131,0.249 -0.92,0.333 -1.712,0.751 -2.379,1.253 -0.836,0.5 -1.503,1.167 -2.003,2.003 -1.42,1.921 -2.295,3.965 -2.631,6.136 -0.331,2.17 -0.416,4.173 -0.249,6.011 0.169,2.17 0.626,4.257 1.377,6.262 -1.585,1.083 -2.754,2.336 -3.505,3.757 -0.752,1.418 -1.336,2.754 -1.754,4.005 -0.418,1.503 -0.667,2.962 -0.751,4.383 0,2.505 0.417,4.633 1.251,6.387 0.836,1.754 1.754,3.213 2.756,4.383 1.17,1.334 2.503,2.462 4.006,3.382 2.005,1.167 4.3,1.752 6.888,1.752 3.338,0 6.469,-1.085 9.393,-3.255 1.584,-1.336 3.005,-2.923 4.256,-4.759 1.085,-1.587 2.023,-3.486 2.817,-5.697 0.793,-2.213 1.107,-4.739 0.94,-7.576 0,-1.087 -0.084,-2.254 -0.251,-3.508 -0.167,-1.084 -0.375,-2.316 -0.626,-3.694 -0.249,-1.377 -0.626,-2.817 -1.126,-4.319 2.003,0.167 3.839,0.5 5.509,1.002 1.669,0.5 3.087,1.083 4.259,1.752 1.418,0.751 2.669,1.544 3.756,2.38 1.334,1.333 2.462,2.754 3.38,4.256 0.167,0.418 0.459,0.67 0.877,0.752 0.418,0.082 0.834,0.041 1.254,-0.124 1,-0.586 1.208,-1.338 0.626,-2.254 -1.087,-2.005 -2.423,-3.674 -4.008,-5.01 C 33.392,11.06 31.682,9.934 29.679,9.016 26.171,7.344 22.248,6.426 17.907,6.26 17.406,4.924 16.885,3.735 16.343,2.691 15.798,1.648 15.235,0.667 14.652,-0.251"
         style="fill:#262626;fill-opacity:1;fill-rule:nonzero;stroke:none"
         id="path48" /></g><g
       id="g50"
       transform="translate(315.8348,172.0482)"><path
         d="m 0,0 c 0.582,-0.169 1.145,-0.188 1.689,-0.063 0.543,0.126 1.022,0.271 1.44,0.44 0.502,0.249 1.002,0.541 1.502,0.875 1.421,0.918 2.861,2.21 4.322,3.882 1.46,1.669 2.858,3.339 4.194,5.01 1.503,1.919 3.006,3.88 4.508,5.885 0.918,1.252 1.754,2.443 2.506,3.569 0.751,1.128 1.418,2.106 2.002,2.942 0.252,0.418 0.585,0.667 1.003,0.751 0.416,0.083 0.834,0 1.251,-0.251 0.418,-0.166 0.646,-0.48 0.689,-0.937 C 25.147,21.642 25.084,21.204 24.92,20.786 24.251,19.868 23.499,18.783 22.666,17.532 21.83,16.278 20.912,14.942 19.909,13.524 18.322,11.437 16.735,9.393 15.152,7.388 13.73,5.716 12.186,4.008 10.519,2.254 8.847,0.5 7.219,-0.877 5.634,-1.877 4.631,-2.548 3.735,-2.986 2.943,-3.194 2.148,-3.402 1.418,-3.506 0.751,-3.506 c -0.751,0 -1.379,0.085 -1.879,0.249 -2.423,0.667 -4.131,1.984 -5.134,3.946 -1.002,1.961 -1.587,4.027 -1.754,6.199 -0.333,2.505 -0.208,5.216 0.377,8.139 -0.92,-1.836 -1.838,-3.631 -2.756,-5.385 -0.752,-1.503 -1.566,-3.049 -2.441,-4.634 -0.876,-1.585 -1.608,-2.923 -2.191,-4.005 -0.42,-0.921 -1.002,-1.839 -1.754,-2.757 -0.5,-0.669 -1.024,-1.189 -1.565,-1.565 -0.544,-0.375 -1.024,-0.646 -1.44,-0.814 -0.5,-0.249 -1.046,-0.375 -1.628,-0.375 -1.336,-0.082 -2.443,0.084 -3.32,0.5 -0.874,0.42 -1.606,0.94 -2.191,1.566 -0.584,0.625 -1.022,1.232 -1.314,1.816 -0.292,0.583 -0.479,1.042 -0.563,1.377 -0.751,1.836 -1.128,3.861 -1.128,6.074 0,2.211 0.125,4.276 0.377,6.199 0.333,2.254 0.794,4.508 1.377,6.762 0.751,2.754 1.836,5.549 3.256,8.39 0.332,0.752 0.771,1.585 1.315,2.503 0.541,0.918 1.145,1.754 1.816,2.505 0.667,0.752 1.377,1.334 2.129,1.754 0.751,0.416 1.585,0.5 2.503,0.249 1.336,-0.418 2.109,-1.188 2.316,-2.317 0.208,-1.125 0.126,-2.377 -0.249,-3.756 -0.376,-1.377 -0.876,-2.776 -1.502,-4.194 -0.628,-1.421 -1.109,-2.672 -1.44,-3.757 -0.251,-0.751 -0.628,-1.921 -1.128,-3.505 -0.5,-1.588 -0.983,-3.363 -1.44,-5.323 -0.459,-1.964 -0.858,-3.988 -1.189,-6.073 -0.335,-2.087 -0.502,-4.008 -0.502,-5.762 0,-0.333 0.041,-0.626 0.125,-0.875 0.167,-0.586 0.501,-0.877 1.003,-0.877 0.331,-0.084 0.689,0.083 1.063,0.501 0.377,0.415 0.73,0.877 1.065,1.377 0.332,0.582 0.708,1.21 1.126,1.879 1.085,2.085 2.337,4.465 3.757,7.137 0.669,1.418 1.379,2.838 2.131,4.259 0.751,1.418 1.585,2.88 2.503,4.382 1.253,2.337 2.524,4.571 3.819,6.7 1.293,2.128 2.484,4.027 3.568,5.696 1.254,1.921 2.506,3.714 3.757,5.385 0.585,0.834 1.273,1.711 2.068,2.631 0.792,0.916 1.607,1.708 2.44,2.38 0.834,0.666 1.628,1.082 2.38,1.251 0.751,0.167 1.377,-0.084 1.879,-0.751 0.834,-1.172 1.23,-2.464 1.189,-3.883 -0.043,-1.42 -0.312,-2.86 -0.814,-4.319 C 10.268,31.911 9.642,30.513 8.89,29.177 8.139,27.841 7.513,26.715 7.011,25.797 6.678,25.128 6.134,24.106 5.383,22.729 4.631,21.351 3.839,19.805 3.005,18.095 2.17,16.382 1.355,14.589 0.563,12.71 -0.232,10.833 -0.836,9.057 -1.254,7.388 -1.672,5.716 -1.817,4.214 -1.691,2.88 -1.565,1.544 -1.003,0.582 0,0"
         style="fill:#262626;fill-opacity:1;fill-rule:nonzero;stroke:none"
         id="path52" /></g><g
       id="g54"
       transform="translate(236.1944,249.6793)"><path
         d="m 0,0 c -5.012,-36.843 -5.004,-76.81 -23.158,-110.351 -7.724,-14.273 -23.377,-36.461 -42.575,-30.859 -11.078,3.232 -14.879,13.81 -8.786,23.784 4.934,8.076 13.934,12.998 22.839,15.418 53.2,14.461 118.905,-55.895 163.126,-3.073 18.677,22.309 14.755,52.22 -2.228,74.047 -1.801,2.315 -4.922,-0.631 -3.82,-2.947 7.691,-16.155 13.689,-35.218 6.855,-52.719 -5.391,-13.806 -17.683,-24.226 -31.914,-28.023 -17.949,-4.789 -33.692,3.017 -50.349,8.878 -17.827,6.273 -36.382,13.308 -55.257,15.525 -15.87,1.864 -32.928,10e-4 -46.339,-9.331 -10.93,-7.605 -19.813,-21.167 -15.592,-34.853 3.816,-12.374 17.67,-18.955 29.923,-17.877 15.029,1.321 27.06,12.605 35.341,24.393 C 2.461,-93.261 8.196,-41.037 2.606,0 2.43,1.29 0.176,1.291 0,0"
         style="fill:#262626;fill-opacity:1;fill-rule:nonzero;stroke:none"
         id="path56" /></g><g
       id="g58"
       transform="translate(227.2375,161.2199)"><path
         d="m 0,0 c 6.791,15.361 10.896,31.833 13.536,48.392 1.924,12.066 7.231,29.504 -0.467,40.281 -1.079,1.51 -3.059,1.554 -4.13,0 C 6.038,84.466 7.097,76.708 6.806,71.985 6.193,62.007 4.571,51.595 5.717,41.676 c 0.21,-1.82 2.998,-2.584 3.471,-0.47 1.47,6.582 1.372,13.225 1.66,19.954 0.15,3.522 -1.103,22.621 1.363,24.241 C 11.04,85.878 9.869,86.354 8.698,86.83 10.282,80.203 8.852,72.509 8.693,65.82 8.527,58.809 8.454,51.966 7.681,44.973 6.009,29.83 2.627,15.104 -0.57,0.24 -0.64,-0.084 -0.151,-0.341 0,0"
         style="fill:#262626;fill-opacity:1;fill-rule:nonzero;stroke:none"
         id="path60" /></g><g
       id="g62"
       transform="translate(194.4263,243.3121)"><path
         d="m 0,0 c -10.009,-19.288 -26.962,-81.576 14.821,-77.358 11.859,1.197 19.882,16.868 22.729,27.104 4.344,15.623 5.797,33.421 5.329,49.572 -0.017,0.566 -0.889,0.73 -1.021,0.138 -2.25,-10.103 -2.646,-20.534 -4.372,-30.738 -1.884,-11.136 -3.984,-26.792 -14.675,-32.913 -6.476,-3.708 -13.36,-3.908 -19.047,1.001 -6.073,5.243 -6.842,13.101 -6.83,20.797 0.022,13.603 2.299,28.185 5.535,41.356 C 2.823,0.398 0.729,1.404 0,0"
         style="fill:#262626;fill-opacity:1;fill-rule:nonzero;stroke:none"
         id="path64" /></g><g
       id="g66"
       transform="translate(156.8624,235.7326)"><path
         d="m 0,0 c 4.952,9.773 -7.3,15.632 -14.831,9.622 -10.755,-8.581 -3.858,-25.927 5.249,-32.668 13.248,-9.807 34.981,-9.202 46.576,3.103 5.931,6.295 12.877,23.229 8.66,31.728 -0.324,0.652 -1.063,0.963 -1.747,1.002 -4.804,0.272 -8.353,-6.239 -7.112,-10.578 0.255,-0.893 1.413,-0.983 1.899,-0.248 1.031,1.557 1.749,6.594 3.824,4.944 0.667,-0.53 -1.175,-5.092 -1.36,-5.658 -1.97,-6.033 -4.524,-12.598 -9.059,-17.084 -7.8,-7.714 -19.772,-9.559 -30.031,-6.196 -4.678,1.533 -9.043,4.18 -12.271,7.929 -2.365,2.653 -3.938,5.713 -4.718,9.18 C -17.069,5.106 -12.349,6.854 -0.76,0.32 -0.916,-0.122 -0.213,-0.42 0,0"
         style="fill:#262626;fill-opacity:1;fill-rule:nonzero;stroke:none"
         id="path68" /></g><g
       id="g70"
       transform="translate(267.2462,234.3816)"><path
         d="m 0,0 c -6.793,6.008 -4.443,14.014 4.896,14.832 5.142,0.449 8.886,-2.455 12.869,-5.23 C 24.178,5.135 30.6,0.911 37.677,-2.48 48.701,-7.761 62.374,-12.788 74.303,-7.26 82.137,-3.63 88.759,4.898 86.69,13.97 85.08,21.03 78.339,25.747 71.908,21.287 70.939,20.615 71.568,19.305 72.677,19.464 82.276,20.839 83.048,8.094 77.827,2.718 74.311,-0.902 69.003,-2.721 64.046,-2.915 54.806,-3.277 45.576,1.277 37.705,5.556 27.478,11.115 17.313,22.491 4.88,22.099 -2.37,21.87 -9.54,17.592 -10.767,10.004 -11.844,3.342 -8.392,-3.08 -1.587,-3.832 0.34,-4.045 1.386,-1.226 0,0"
         style="fill:#262626;fill-opacity:1;fill-rule:nonzero;stroke:none"
         id="path72" /></g><g
       id="g74"
       transform="translate(239.8134,119.2048)"><path
         d="M 0,0 C 4.675,0 9.154,4.111 8.938,8.938 8.721,13.781 5.011,17.876 0,17.876 -4.675,17.876 -9.154,13.765 -8.938,8.938 -8.721,4.095 -5.011,0 0,0"
         style="fill:#262626;fill-opacity:1;fill-rule:nonzero;stroke:none"
         id="path76" /></g><g
       id="g78"
       transform="translate(261.0985,116.7628)"><path
         d="M 0,0 C 2.551,0 4.994,2.243 4.876,4.876 4.758,7.518 2.734,9.753 0,9.753 -2.551,9.753 -4.994,7.51 -4.876,4.876 -4.758,2.234 -2.734,0 0,0"
         style="fill:#262626;fill-opacity:1;fill-rule:nonzero;stroke:none"
         id="path80" /></g><g
       id="g82"
       transform="translate(279.0467,116.5388)"><path
         d="M 0,0 C -0.094,0.225 -0.189,0.451 -0.283,0.676 -0.322,0.381 -0.36,0.085 -0.399,-0.211 1.237,2.125 -1.883,5.035 -3.97,2.947 -6.059,0.859 -3.157,-2.266 -0.812,-0.624 -1.108,-0.663 -1.403,-0.701 -1.699,-0.74 -1.474,-0.834 -1.248,-0.928 -1.023,-1.023 -0.468,-1.255 0.232,-0.555 0,0"
         style="fill:#262626;fill-opacity:1;fill-rule:nonzero;stroke:none"
         id="path84" /></g><g
       id="g86"
       transform="translate(106.69,245.0965)"><path
         d="m 0,0 c -7.217,-8.191 3.639,-15.602 11.649,-10.771 8.98,5.415 5.854,19.853 -3.169,23.389 -13.32,5.22 -24.837,-8.638 -26.812,-20.233 -2.677,-15.716 7.059,-33.63 23.686,-36.295 8.909,-1.427 25.079,10.28 14.072,18.683 -11.806,9.011 -22.773,-12.293 -24.501,-20.718 -3.359,-16.376 3.846,-33.171 18.336,-41.685 13.115,-7.706 32.679,-7.268 42.245,5.94 8.629,11.914 4.825,31.551 -11.233,34.273 -12.548,2.128 -21.756,-14.72 -9.328,-21.15 1.603,-0.829 3.049,1.106 1.89,2.448 -4.695,4.504 -4.522,8.128 0.516,10.875 2.589,4.823 6.276,5.346 11.062,1.569 3.703,-2.927 6.712,-7.957 6.811,-12.726 0.228,-11.038 -8.7,-18.725 -18.893,-20.456 -16.318,-2.771 -32.173,9.173 -36.037,24.905 -2.195,8.934 1.559,14.667 2.979,22.923 0.827,4.804 2.54,0.118 -1.792,3.423 -3.606,2.751 -7.27,4.689 -9.775,8.735 -4.202,6.786 -5.017,16.491 -2.039,23.864 C -8.566,1.367 -5.294,6.85 0.123,7.446 3.286,6.964 6.448,6.483 9.61,6.001 15.681,-2.169 12.804,-4.421 0.979,-0.756 1.367,-0.17 0.47,0.533 0,0"
         style="fill:#262626;fill-opacity:1;fill-rule:nonzero;stroke:none"
         id="path88" /></g><g
       id="g90"
       transform="translate(384.98,178.0686)"><path
         d="M 0,0 C 3.574,0.139 4.281,4.615 2.62,7.282 0.353,10.919 -4.888,11.241 -8.199,9 c -3.968,-2.685 -6.303,-9.321 -4.616,-13.835 1.885,-5.044 7.712,-7.241 12.712,-7.251 12.364,-0.026 21.111,11.927 17.717,23.733 -3.135,10.902 -17.27,17.558 -26.448,9.252 -1.003,-0.907 0.087,-2.284 1.214,-2.084 4.972,0.883 10.013,0.845 14.326,-2.171 4.771,-3.337 6.613,-9.873 4.291,-15.218 -2.132,-4.909 -7.713,-8.118 -13.036,-7.624 -4.512,0.419 -8.102,4.58 -6.05,9.146 0.263,1.351 1.131,2.203 2.604,2.554 1.848,2.167 3.082,1.742 3.703,-1.276 1.778,-2.962 1.58,-1.758 1.491,-3.935 C -0.297,0.138 -0.153,-0.006 0,0"
         style="fill:#262626;fill-opacity:1;fill-rule:nonzero;stroke:none"
         id="path92" /></g><g
       id="g94"
       transform="translate(379.7238,199.5029)"><path
         d="M 0,0 C 11.857,-1.76 20.285,18.393 19.019,27.847 17.42,39.799 4.888,49.204 -6.512,42.41 -15.511,37.047 -15.633,22.81 -5.387,18.591 3.344,14.995 14.369,25.719 8.069,33.894 6.704,35.665 4.22,34.629 4.532,32.403 5.117,28.236 1.96,20.896 -4.16,24.236 c -4.179,2.28 -4.199,8.721 -1.306,11.833 6.05,6.51 15.632,1.214 18.494,-5.4 C 15.914,23.999 13.777,16.532 9.831,10.763 6.989,6.608 2.177,4.618 -0.083,0.203 -0.119,0.133 -0.094,0.014 0,0"
         style="fill:#262626;fill-opacity:1;fill-rule:nonzero;stroke:none"
         id="path96" /></g><g
       id="g98"
       transform="translate(254.894,352.6078)"><path
         d="m 0,0 c -7.01,1.438 -13.204,4.136 -19.194,8.093 -2.98,1.969 -5.887,4.181 -8.499,6.614 -1.151,1.073 -2.249,2.195 -3.28,3.384 -1.899,2.19 -4.981,4.009 -0.11,4.363 7.585,0.551 12.482,-9.554 15.676,-14.768 2.884,-4.707 5.937,-10.175 11.604,-11.504 2.657,-0.623 4.83,2.146 3.51,4.565 -2.875,5.265 -7.303,9.909 -10.541,15.112 -2.397,3.851 -4.902,7.4 -8.569,10.158 -5.702,4.288 -16.976,7.552 -21.921,0.046 C -46.03,18.92 -34.669,9.671 -29.946,6.009 -21.342,-0.662 -13.299,-4.375 -2.519,-3.859 -0.78,-3.775 0.482,-1.378 0,0"
         style="fill:#262626;fill-opacity:1;fill-rule:nonzero;stroke:none"
         id="path100" /></g><g
       id="g102"
       transform="translate(264.4958,354.0549)"><path
         d="m 0,0 c 1.631,4.996 -3.044,9.909 -4.237,14.838 -1.597,6.594 -3.738,16.011 -1.401,22.512 2.745,7.634 3.174,-0.508 3.332,-4.548 C -2.173,29.438 -2.388,26.016 -2.483,22.654 -2.677,15.771 -3.979,8.472 -2.533,1.724 -2.041,-0.569 1.093,-0.574 1.891,1.487 4.202,7.456 10.231,56.745 -7.086,47.612 -14.043,43.943 -12.55,31.927 -11.954,25.578 -11.272,18.303 -9.822,2.534 -1.723,-0.337 -1.518,-0.41 -0.067,-0.206 0,0"
         style="fill:#262626;fill-opacity:1;fill-rule:nonzero;stroke:none"
         id="path104" /></g><g
       id="g106"
       transform="translate(272.3769,348.5869)"><path
         d="m 0,0 c 10.007,1.464 19.405,5.237 27.45,11.401 4.718,3.615 15.53,11.896 8.506,18.375 C 29.958,35.309 19.09,31.168 13.406,27.408 5.635,22.268 -1.623,14.5 -3.406,5.209 -3.73,3.522 -1.916,1.613 -0.231,2.767 c 4.53,3.103 7.343,6.934 10.846,11.111 3.377,4.027 10.492,11.838 16.447,10.963 5.025,-0.738 1.151,-5.018 -1.12,-7.25 C 23.474,15.164 20.775,12.984 17.876,11.093 12.102,7.328 4.119,7.138 -2.596,5.663 -4.85,5.168 -2.177,-0.319 0,0"
         style="fill:#262626;fill-opacity:1;fill-rule:nonzero;stroke:none"
         id="path108" /></g></g></g></g></svg>
