<?xml version="1.0" encoding="UTF-8" standalone="no"?> <svg height="512pt" viewBox="0 0 512 512" width="512pt" xmlns="http://www.w3.org/2000/svg"><path d="m421 165c0 62.101562-35.097656 118.800781-90 146.699219v63.300781h-150v-63.300781c-64.199219-32.699219-99.902344-103.5-87.597656-175.800781 11.398437-65.699219 62.398437-118.796876 127.199218-132.296876 11.699219-2.402343 23.699219-3.601562 35.398438-3.601562 37.800781 0 74.398438 12.597656 104.097656 36.898438 38.703125 31.5 60.902344 78.300781 60.902344 128.101562zm0 0" fill="#ffda2d"/><path d="m421 165c0 62.101562-35.097656 118.800781-90 146.699219v63.300781h-75v-375c37.800781 0 74.398438 12.597656 104.097656 36.898438 38.703125 31.5 60.902344 78.300781 60.902344 128.101562zm0 0" fill="#fdbf00"/><path d="m452 150h60v30h-60zm0 0" fill="#fdbf00"/><path d="m0 150h60v30h-60zm0 0" fill="#ffda2d"/><path d="m469.339844 305.492188-51.957032-30 15-25.984376 51.957032 30zm0 0" fill="#fdbf00"/><path d="m79.617188 80.492188-51.957032-30 15-25.984376 51.957032 30zm0 0" fill="#ffda2d"/><path d="m432.382812 80.492188-15-25.984376 51.957032-30 15 25.984376zm0 0" fill="#fdbf00"/><path d="m42.660156 305.492188-15-25.984376 51.957032-30 15 25.984376zm0 0" fill="#ffda2d"/><path d="m211 420v92h90v-92zm0 0" fill="#766e6e"/><path d="m268 75.597656-12-16.199218-12 16.199218c-14.699219 19.5-63 86.402344-63 119.402344 0 41.398438 33.601562 75 75 75s75-33.601562 75-75c0-33-48.300781-99.902344-63-119.402344zm0 0" fill="#73e6d3"/><path d="m181 375h150v60h-150zm0 0" fill="#e3eeff"/><path d="m256 270v-210.601562l12 16.199218c14.699219 19.5 63 86.402344 63 119.402344 0 41.398438-33.601562 75-75 75zm0 0" fill="#6cb"/><path d="m256 420h45v92h-45zm0 0" fill="#5b5555"/><g fill="#c4d9f2"><path d="m256 375h75v60h-75zm0 0"/><path d="m151 360h210v30h-210zm0 0"/><path d="m151 420h210v30h-210zm0 0"/></g><path d="m256 360h105v30h-105zm0 0" fill="#a9c3ea"/><path d="m256 420h105v30h-105zm0 0" fill="#a9c3ea"/></svg>