<?xml version="1.0" encoding="UTF-8" standalone="no"?> <svg height="512pt" viewBox="0 -28 512 512" width="512pt" xmlns="http://www.w3.org/2000/svg"><path d="m466 125.140625c-38.402344 0-71.699219 20.703125-90 51.300781-18.300781-30.597656-51.597656-51.300781-90-51.300781h-15v15c0 57.878906 47.3125 105 105 105 57.613281 0 105-47.039063 105-105v-15zm0 0" fill="#b9df47"/><path d="m226 125.140625c-38.402344 0-71.699219 20.703125-90 51.300781-18.300781-30.597656-51.597656-51.300781-90-51.300781h-15v15c0 57.878906 47.3125 105 105 105 57.613281 0 105-47.039063 105-105v-15zm0 0" fill="#daf569"/><path d="m121 140.140625h30v150h-30zm0 0" fill="#b9df47"/><path d="m361 140.140625h30v150h-30zm0 0" fill="#96cc29"/><path d="m376 160.28125-10.003906-8.964844c-1.4375-1.289062-34.996094-31.785156-34.996094-71.175781 0-39.386719 33.558594-69.886719 34.996094-71.175781l10.003906-8.964844 10.003906 8.964844c1.4375 1.289062 34.996094 31.789062 34.996094 71.175781 0 39.390625-33.558594 69.890625-34.996094 71.179687zm0 0" fill="#b9df47"/><path d="m136 160.28125-10.003906-8.964844c-1.4375-1.289062-34.996094-31.785156-34.996094-71.175781 0-39.386719 33.558594-69.886719 34.996094-71.175781l10.003906-8.964844 10.003906 8.964844c1.4375 1.289062 34.996094 31.789062 34.996094 71.175781 0 39.390625-33.558594 69.890625-34.996094 71.179687zm0 0" fill="#daf569"/><path d="m512 275.140625h-512v60l30 15-30 15v90h512v-60l-30-15 30-15zm0 0" fill="#766e6e"/><g fill="#5b5555"><path d="m512 365.140625-30 15 30 15v60h-256v-180h256zm0 0"/><path d="m0 335.140625h121v30h-121zm0 0"/><path d="m151 365.140625h90v30h-90zm0 0"/></g><path d="m271 335.140625h90v30h-90zm0 0" fill="#463f3f"/><path d="m391 365.140625h121v30h-121zm0 0" fill="#463f3f"/></svg>